<svg width="259" height="70" viewBox="0 0 259 70" fill="none" xmlns="http://www.w3.org/2000/svg">
<path d="M246.469 0H18.3092C11.7853 0 6.4967 5.26987 6.4967 11.7706V57.8302C6.4967 64.3309 11.7853 69.6008 18.3092 69.6008H246.469C252.993 69.6008 258.282 64.3309 258.282 57.8302V11.7706C258.282 5.26987 252.993 0 246.469 0Z" fill="#480090"/>
<path d="M246.469 3.66602H18.3092C13.817 3.66602 10.1754 7.29469 10.1754 11.7709V57.8305C10.1754 62.3067 13.817 65.9354 18.3092 65.9354H246.469C250.962 65.9354 254.603 62.3067 254.603 57.8305V11.7709C254.603 7.29469 250.962 3.66602 246.469 3.66602Z" fill="#6B01A3"/>
<path d="M32.6372 24.3413V29.1177C32.6372 29.5979 32.5489 29.9535 32.3796 30.1845C32.2067 30.4154 31.9308 30.639 31.5556 30.8553C31.1142 31.1009 30.474 31.3171 29.6353 31.5041C28.7965 31.691 27.9578 31.7827 27.1264 31.7827C25.6181 31.7827 24.2496 31.5261 23.0172 31.0166C21.7848 30.507 20.8063 29.7042 20.0852 28.6045C19.3642 27.5085 19 26.0935 19 24.3633C19 22.7394 19.3642 21.3721 20.0963 20.2614C20.8283 19.1507 21.8069 18.3076 23.0393 17.7357C24.2717 17.1639 25.6512 16.8779 27.1742 16.8779C28.1638 16.8779 29.0246 16.9806 29.753 17.1895C30.4851 17.3985 31.0443 17.6917 31.4379 18.0693C31.8315 18.4469 32.0265 18.8904 32.0265 19.4036C32.0265 19.7885 31.9235 20.1331 31.7211 20.4337C31.5151 20.7343 31.2797 20.9725 31.0148 21.1411C30.6212 20.9102 30.1282 20.6866 29.5323 20.4703C28.9363 20.2541 28.2521 20.1477 27.4832 20.1477C26.6518 20.1477 25.9124 20.32 25.2686 20.6683C24.6248 21.0165 24.1245 21.5041 23.7713 22.1272C23.4182 22.7541 23.2416 23.4909 23.2416 24.3413C23.2416 25.2687 23.4108 26.0459 23.7493 26.6727C24.0877 27.2995 24.5549 27.7651 25.1509 28.0767C25.7468 28.3846 26.4311 28.5385 27.2 28.5385C27.5458 28.5385 27.8474 28.5056 28.1049 28.4359C28.3624 28.3663 28.5648 28.3003 28.7046 28.238V26.0129H26.1846C26.089 25.8443 26.0007 25.617 25.9124 25.342C25.8241 25.0635 25.7836 24.7702 25.7836 24.4623C25.7836 23.9051 25.9124 23.5055 26.1736 23.2563C26.4311 23.0107 26.7659 22.886 27.1742 22.886H31.1546C31.6255 22.886 31.9897 23.0143 32.2509 23.2673C32.5121 23.5202 32.6408 23.8831 32.6408 24.345L32.6372 24.3413Z" fill="white"/>
<path d="M39.8696 19.7524C41.5802 19.7524 42.9524 20.097 43.9788 20.7825C45.0088 21.4716 45.5202 22.542 45.5202 23.9936V29.1843C45.5202 29.5875 45.4061 29.9138 45.1781 30.1704C44.95 30.427 44.6777 30.6469 44.3651 30.8302C43.8611 31.1234 43.2504 31.3471 42.5257 31.501C41.801 31.655 40.9769 31.732 40.0535 31.732C38.4055 31.732 37.0811 31.4204 36.0842 30.7935C35.0872 30.1667 34.5869 29.2209 34.5869 27.9526C34.5869 26.8859 34.9143 26.0684 35.5655 25.4966C36.2166 24.9247 37.2099 24.5692 38.5453 24.4299L41.6317 24.1073V23.946C41.6317 23.4988 41.4331 23.1762 41.0321 22.9856C40.6311 22.7913 40.0535 22.696 39.2994 22.696C38.7182 22.696 38.1406 22.7583 37.5667 22.8829C36.9928 23.0076 36.4778 23.1615 36.0253 23.3448C35.8193 23.2055 35.6501 22.9929 35.5066 22.707C35.3668 22.4211 35.2932 22.1241 35.2932 21.8162C35.2932 21.0757 35.6942 20.5479 36.4962 20.24C36.9524 20.0713 37.4895 19.9467 38.1112 19.8697C38.7329 19.7927 39.3178 19.7524 39.8659 19.7524H39.8696ZM38.9021 18.4768L36.5918 16.391C36.5771 16.3287 36.5624 16.2407 36.555 16.1234C36.5477 16.0061 36.544 15.9181 36.544 15.8558C36.544 15.2839 36.7096 14.8404 37.037 14.5215C37.3681 14.2062 37.7764 14.0449 38.262 14.0449C38.5747 14.0449 38.8763 14.1072 39.167 14.2319C39.4576 14.3565 39.7372 14.5801 40.002 14.9027L42.0989 17.476C42.0364 18.0185 41.8341 18.4181 41.4993 18.682C41.1609 18.946 40.804 19.0779 40.4288 19.0779C40.0977 19.0779 39.8218 19.0266 39.5937 18.9276C39.3656 18.8287 39.1339 18.6784 38.8984 18.4768H38.9021ZM40.0572 28.8617C40.3258 28.8617 40.6201 28.836 40.9401 28.7811C41.2639 28.7261 41.503 28.6528 41.6575 28.5611V26.7063L39.9616 26.8456C39.5201 26.8749 39.1596 26.9702 38.8763 27.1242C38.5931 27.2781 38.4533 27.5091 38.4533 27.8206C38.4533 28.1322 38.5747 28.3815 38.8175 28.5721C39.0603 28.7664 39.4723 28.8617 40.0535 28.8617H40.0572Z" fill="white"/>
<path d="M65.9226 25.2471V30.8812C65.7018 31.0829 65.3855 31.2441 64.9698 31.3688C64.5541 31.4934 64.0537 31.5557 63.4725 31.5557C62.8913 31.5557 62.3431 31.4714 61.8244 31.2991C61.3057 31.1305 60.8827 30.72 60.5516 30.0711L58.2192 25.39C58.061 25.0638 57.9176 24.7595 57.7815 24.4736C57.649 24.1877 57.5203 23.8907 57.3915 23.5828C57.2664 23.2749 57.123 22.934 56.9685 22.5638L52.988 23.4215V18.0439C53.2088 17.736 53.5435 17.5051 53.9997 17.3474C54.4559 17.1935 54.9415 17.1165 55.4602 17.1165C56.0414 17.1165 56.5932 17.2045 57.1193 17.3841C57.6453 17.5637 58.0647 17.967 58.3811 18.6011L60.7355 23.2822C60.8937 23.5901 61.0372 23.8944 61.1696 24.1877C61.302 24.4809 61.4381 24.7815 61.5706 25.0931C61.703 25.401 61.8428 25.7419 61.9826 26.1122L65.9152 25.2544L65.9226 25.2471ZM52.988 22.0945H56.7808C56.8434 22.8057 56.8875 23.4838 56.9096 24.1327C56.9317 24.7815 56.9464 25.3973 56.9464 25.9765V31.3651C56.7882 31.3944 56.5344 31.4348 56.1812 31.4824C55.828 31.5301 55.4712 31.5521 55.1107 31.5521C54.3234 31.5521 53.7753 31.4164 53.4626 31.1452C53.1499 30.8739 52.9917 30.39 52.9917 29.6972V22.0945H52.988ZM65.9226 26.4971H62.1297C62.0341 25.4157 61.9826 24.4186 61.9752 23.5058C61.9679 22.5931 61.9642 21.728 61.9642 20.9105V17.2485C62.1371 17.2192 62.3946 17.1788 62.7404 17.1312C63.0862 17.0835 63.4394 17.0615 63.7999 17.0615C64.5835 17.0615 65.1353 17.1972 65.448 17.4684C65.7607 17.7397 65.9189 18.2199 65.9189 18.9164V26.4971H65.9226Z" fill="white"/>
<path d="M72.6842 26.358H68.678V20.1446C68.8509 20.0969 69.0974 20.0529 69.4211 20.0053C69.7448 19.9576 70.0943 19.9356 70.4695 19.9356C71.2531 19.9356 71.8197 20.0639 72.1655 20.3169C72.5113 20.5735 72.6842 21.061 72.6842 21.7868V26.3543V26.358ZM68.678 26.8932V25.3645H72.6842V26.8932C72.6842 27.5127 72.846 27.9599 73.1661 28.2385C73.4861 28.5171 73.9386 28.6564 74.5199 28.6564C74.8804 28.6564 75.1784 28.627 75.4138 28.5647C75.6492 28.5024 75.8221 28.4401 75.9325 28.3778V25.3645H79.9387V28.9569C79.9387 29.3418 79.8577 29.6791 79.6922 29.965C79.5267 30.2509 79.2802 30.4965 78.9491 30.6945C78.3973 31.0354 77.7425 31.292 76.981 31.4716C76.2195 31.6476 75.3917 31.7392 74.4941 31.7392C73.3647 31.7392 72.3568 31.5743 71.4775 31.2407C70.5983 30.9071 69.9104 30.3866 69.4174 29.6754C68.9245 28.9643 68.6743 28.0369 68.6743 26.8932H68.678ZM79.9387 26.358H75.9325V20.1446C76.1054 20.0969 76.3519 20.0529 76.6756 20.0053C76.9957 19.9576 77.3488 19.9356 77.7241 19.9356C78.5076 19.9356 79.0742 20.0639 79.42 20.3169C79.7658 20.5735 79.9387 21.061 79.9387 21.7868V26.3543V26.358ZM79.8688 24.5288L79.3758 24.5068C79.2655 24.3382 79.1625 24.0156 79.0705 23.5464C78.9748 23.0735 78.9307 22.6006 78.9307 22.1204C79.5266 22.1204 80.0159 21.9298 80.3912 21.5522C80.7664 21.1746 80.9577 20.5661 80.9577 19.734V18.9459C81.1784 18.8396 81.3918 18.7516 81.6052 18.6893C81.8185 18.627 82.0797 18.5977 82.3961 18.5977C82.9001 18.5977 83.3305 18.715 83.691 18.9459C84.0515 19.1768 84.2318 19.5727 84.2318 20.1263V20.2656C84.2318 21.1453 84.0368 21.9078 83.6432 22.5493C83.2496 23.1908 82.7235 23.682 82.065 24.0229C81.4065 24.3638 80.6744 24.5324 79.8725 24.5324L79.8688 24.5288Z" fill="white"/>
<path d="M97.5341 25.7308C97.5341 26.9662 97.2803 28.0329 96.769 28.931C96.2576 29.8291 95.5439 30.5182 94.6242 31.0058C93.7046 31.4933 92.6193 31.7352 91.3612 31.7352C90.1031 31.7352 89.0362 31.497 88.1092 31.0168C87.1821 30.5366 86.4648 29.8511 85.9534 28.953C85.4421 28.0585 85.1882 26.9808 85.1882 25.7308C85.1882 24.4808 85.4457 23.4508 85.9645 22.5563C86.4832 21.6619 87.2042 20.9691 88.1312 20.4815C89.0583 19.994 90.1325 19.752 91.3575 19.752C92.5825 19.752 93.6788 19.9977 94.5948 20.4925C95.5145 20.9874 96.2319 21.6839 96.7506 22.5783C97.2693 23.4764 97.5268 24.5248 97.5268 25.7308H97.5341ZM89.5255 16.4602L91.9056 13.9346C92.7223 13.9346 93.333 14.1032 93.745 14.4441C94.1534 14.785 94.3594 15.1699 94.3594 15.6025C94.3594 15.958 94.2821 16.255 94.1239 16.4932C93.9658 16.7315 93.7009 17.0064 93.322 17.318L91.0853 19.1252C90.3937 19.1252 89.8713 18.9639 89.5181 18.6377C89.165 18.3114 88.9884 17.9669 88.9884 17.5929C88.9884 17.406 89.0252 17.23 89.0951 17.0614C89.165 16.8928 89.3121 16.6912 89.5292 16.4602H89.5255ZM91.3649 22.8349C90.7211 22.8349 90.2134 23.0878 89.8455 23.59C89.4777 24.0922 89.2937 24.8071 89.2937 25.7345C89.2937 26.6619 89.474 27.4207 89.8345 27.9119C90.195 28.4068 90.7064 28.6524 91.3649 28.6524C92.0234 28.6524 92.5347 28.4031 92.8952 27.9009C93.2557 27.3987 93.436 26.6766 93.436 25.7345C93.436 24.7924 93.2521 24.1106 92.8842 23.601C92.5163 23.0915 92.0086 22.8349 91.3649 22.8349ZM95.6984 24.5285L95.2055 24.5065C95.0951 24.3378 94.9921 24.0153 94.9002 23.5461C94.8045 23.0732 94.7604 22.6003 94.7604 22.1201C95.3563 22.1201 95.8456 21.9295 96.2208 21.5519C96.5961 21.1743 96.7874 20.5658 96.7874 19.7337V18.9456C97.0081 18.8393 97.2215 18.7513 97.4348 18.689C97.6482 18.6267 97.9094 18.5973 98.2258 18.5973C98.7297 18.5973 99.1602 18.7147 99.5207 18.9456C99.8812 19.1765 100.061 19.5724 100.061 20.126V20.2653C100.061 21.145 99.8628 21.9075 99.4728 22.549C99.0792 23.1905 98.5532 23.6817 97.8947 24.0226C97.2362 24.3635 96.5041 24.5321 95.7021 24.5321L95.6984 24.5285Z" fill="white"/>
<path d="M111.951 24.1107V26.2442H107.945V24.228C107.945 23.7478 107.802 23.3959 107.511 23.1723C107.22 22.9487 106.838 22.8351 106.367 22.8351C106.054 22.8351 105.756 22.8754 105.484 22.9524C105.208 23.0293 104.947 23.132 104.693 23.2529V26.2442H100.687V22.7214C100.687 22.3035 100.779 21.9663 100.959 21.7023C101.139 21.4384 101.386 21.2002 101.702 20.9839C102.236 20.6136 102.912 20.3167 103.729 20.0931C104.546 19.8695 105.44 19.7559 106.415 19.7559C108.188 19.7559 109.556 20.1371 110.513 20.9032C111.469 21.6694 111.951 22.7398 111.951 24.1144V24.1107ZM100.694 25.2471H104.7V31.3432C104.527 31.3908 104.281 31.4348 103.957 31.4825C103.634 31.5301 103.284 31.5521 102.909 31.5521C102.14 31.5521 101.577 31.4201 101.224 31.1562C100.871 30.8923 100.694 30.4084 100.694 29.6973V25.2471ZM107.949 25.2471H111.955V31.3432C111.782 31.3908 111.535 31.4348 111.212 31.4825C110.888 31.5301 110.539 31.5521 110.163 31.5521C109.394 31.5521 108.832 31.4201 108.478 31.1562C108.125 30.8923 107.949 30.4084 107.949 29.6973V25.2471Z" fill="white"/>
<path d="M119.162 30.9033C118.22 30.9033 117.348 30.7273 116.546 30.3717C115.744 30.0162 115.104 29.4333 114.626 28.6232C114.147 27.8131 113.908 26.7427 113.908 25.412C113.908 24.1767 114.158 23.1356 114.662 22.2925C115.166 21.4494 115.876 20.8189 116.792 20.3937C117.712 19.9685 118.783 19.7559 120.008 19.7559C120.902 19.7559 121.729 19.8732 122.495 20.1041C123.256 20.335 123.841 20.5843 124.249 20.8446C124.562 21.0462 124.812 21.2845 124.992 21.5631C125.173 21.8416 125.265 22.1899 125.265 22.6078V29.9099H121.424V23.1173C121.266 23.0403 121.093 22.9744 120.905 22.9194C120.718 22.8644 120.475 22.8387 120.177 22.8387C119.5 22.8387 118.952 23.044 118.529 23.4546C118.106 23.8651 117.892 24.5249 117.892 25.4377C117.892 26.4128 118.084 27.0763 118.47 27.4318C118.853 27.7874 119.338 27.9634 119.919 27.9634C120.39 27.9634 120.784 27.8827 121.097 27.7214C121.409 27.5602 121.693 27.3769 121.946 27.1752L122.064 30.2581C121.704 30.4451 121.292 30.599 120.828 30.72C120.365 30.8446 119.813 30.9069 119.169 30.9069L119.162 30.9033ZM121.494 31.1086V29.0228H125.265V31.2002C125.265 32.2816 124.996 33.1723 124.463 33.8762C123.929 34.58 123.208 35.1005 122.307 35.4414C121.402 35.7823 120.394 35.9509 119.279 35.9509C118.448 35.9509 117.705 35.885 117.054 35.753C116.402 35.621 115.887 35.4304 115.512 35.1848C114.946 34.8146 114.666 34.2867 114.666 33.6086C114.666 33.253 114.74 32.9267 114.891 32.6335C115.041 32.3402 115.211 32.124 115.398 31.9847C115.854 32.2303 116.369 32.4392 116.94 32.6115C117.513 32.7801 118.113 32.8681 118.742 32.8681C119.574 32.8681 120.243 32.7288 120.743 32.4502C121.244 32.1716 121.498 31.7244 121.498 31.1049L121.494 31.1086Z" fill="white"/>
<path d="M36.9597 51.8015H32.8358V42.6005C33.0234 42.5712 33.303 42.5272 33.6709 42.4722C34.0388 42.4173 34.3956 42.3916 34.7414 42.3916C35.525 42.3916 36.0915 42.5236 36.4373 42.7875C36.7831 43.0514 36.956 43.561 36.956 44.3161V51.8015H36.9597ZM32.8358 46.4459H36.9597V56.5522L35.0284 56.7612C34.3515 56.7612 33.818 56.5669 33.4281 56.182C33.0345 55.7971 32.8395 55.2692 32.8395 54.6057V46.4459H32.8358ZM35.0284 56.7612V53.4914H42.3564C42.4668 53.66 42.5698 53.8873 42.6618 54.1622C42.7574 54.4408 42.8016 54.7414 42.8016 55.0676C42.8016 55.6395 42.6765 56.0647 42.4263 56.3433C42.1762 56.6219 41.8304 56.7612 41.3889 56.7612H35.0284Z" fill="white"/>
<path d="M49.3277 45.0782C51.0383 45.0782 52.4105 45.4228 53.4369 46.1083C54.4669 46.7974 54.9783 47.8678 54.9783 49.3194V54.5101C54.9783 54.9133 54.8642 55.2396 54.6361 55.4962C54.408 55.7528 54.1358 55.9727 53.8231 56.156C53.3191 56.4492 52.7085 56.6729 51.9837 56.8268C51.259 56.9808 50.435 57.0578 49.5116 57.0578C47.8635 57.0578 46.5392 56.7462 45.5422 56.1193C44.5453 55.4925 44.045 54.5467 44.045 53.2784C44.045 52.2117 44.3724 51.3942 45.0235 50.8224C45.6747 50.2505 46.6679 49.895 48.0033 49.7557L51.0898 49.4331V49.2718C51.0898 48.8246 50.8912 48.502 50.4902 48.3114C50.0892 48.1171 49.5116 48.0218 48.7575 48.0218C48.1762 48.0218 47.5987 48.0841 47.0248 48.2087C46.4509 48.3334 45.9359 48.4873 45.4834 48.6706C45.2774 48.5313 45.1081 48.3187 44.9647 48.0328C44.8249 47.7469 44.7513 47.4499 44.7513 47.142C44.7513 46.4015 45.1523 45.8737 45.9543 45.5658C46.4104 45.3971 46.9475 45.2725 47.5692 45.1955C48.1909 45.1185 48.7759 45.0782 49.324 45.0782H49.3277ZM49.5153 54.1912C49.7838 54.1912 50.0781 54.1655 50.3982 54.1105C50.7219 54.0555 50.9611 53.9822 51.1156 53.8906V52.0357L49.4197 52.175C48.9782 52.2044 48.6177 52.2997 48.3344 52.4536C48.0511 52.6076 47.9114 52.8385 47.9114 53.1501C47.9114 53.4617 48.0328 53.711 48.2756 53.9016C48.5184 54.0959 48.9304 54.1912 49.5116 54.1912H49.5153ZM48.5478 41.7864L50.9279 39.2607C51.7446 39.2607 52.3553 39.4294 52.7673 39.7703C53.1757 40.1112 53.3817 40.4961 53.3817 40.9286C53.3817 41.2842 53.3044 41.5811 53.1462 41.8194C52.988 42.0577 52.7232 42.3326 52.3443 42.6442L50.1076 44.4514C49.416 44.4514 48.8936 44.2901 48.5404 43.9638C48.1873 43.6376 48.0107 43.293 48.0107 42.9191C48.0107 42.7322 48.0475 42.5562 48.1174 42.3876C48.1873 42.219 48.3344 42.0174 48.5551 41.7864H48.5478Z" fill="white"/>
<path d="M73.659 44.686C73.659 45.0709 73.556 45.4155 73.3537 45.7161C73.1477 46.0167 72.9122 46.2513 72.6473 46.4236C72.2537 46.1596 71.8233 45.936 71.3524 45.7528C70.8815 45.5695 70.3408 45.4742 69.7264 45.4742C68.9244 45.4742 68.2475 45.6391 67.6884 45.9727C67.1292 46.3063 66.7061 46.7828 66.4155 47.4096C66.1249 48.0365 65.9814 48.788 65.9814 49.6714C65.9814 51.0314 66.3309 52.0688 67.0299 52.7762C67.7288 53.4874 68.7 53.843 69.9398 53.843C70.5836 53.843 71.128 53.7587 71.5768 53.5864C72.0256 53.4177 72.4524 53.2235 72.8607 53.0072C73.1293 53.2088 73.3353 53.4617 73.4861 53.7733C73.6369 54.0812 73.7105 54.4368 73.7105 54.84C73.7105 55.1956 73.6149 55.5219 73.4272 55.8151C73.2396 56.1084 72.9159 56.3576 72.4634 56.5556C72.1801 56.6802 71.7792 56.8012 71.2604 56.9258C70.7417 57.0505 70.1127 57.1128 69.3769 57.1128C67.9643 57.1128 66.6804 56.8488 65.5253 56.3246C64.3701 55.8005 63.4504 54.9867 62.7699 53.8906C62.0856 52.7946 61.7435 51.3869 61.7435 49.6714C61.7435 48.0658 62.0746 46.7095 62.7331 45.6025C63.3916 44.4991 64.2855 43.656 65.4075 43.0768C66.5296 42.4976 67.7656 42.208 69.1194 42.208C70.0759 42.208 70.8926 42.3143 71.5695 42.5306C72.2427 42.7469 72.7614 43.0401 73.1256 43.4104C73.4861 43.7806 73.6664 44.2058 73.6664 44.686H73.659Z" fill="white"/>
<path d="M79.6444 52.6368H75.6382V41.581C75.8111 41.5334 76.0576 41.4894 76.3813 41.4417C76.7013 41.3941 77.0508 41.3721 77.4297 41.3721C78.2133 41.3721 78.7798 41.5004 79.1257 41.7533C79.4715 42.0099 79.6444 42.4974 79.6444 43.2269V52.6368ZM75.6382 50.573H79.6444V56.6691C79.4714 56.7167 79.225 56.7607 78.9012 56.8084C78.5775 56.856 78.228 56.878 77.8528 56.878C77.0839 56.878 76.5211 56.746 76.1679 56.4821C75.8148 56.2182 75.6382 55.7343 75.6382 55.0232V50.573ZM86.8989 51.9403H82.8927V49.8765C82.8927 49.2423 82.7308 48.7988 82.4108 48.5422C82.087 48.2856 81.6934 48.161 81.2225 48.161C80.7517 48.161 80.336 48.2453 79.9754 48.4176C79.6149 48.5862 79.2986 48.7731 79.0337 48.9747V45.8002C79.3942 45.6133 79.8246 45.4483 80.3286 45.3017C80.8326 45.1551 81.3807 45.0818 81.9767 45.0818C83.5144 45.0818 84.721 45.463 85.5929 46.2291C86.4648 46.9953 86.8989 48.1353 86.8989 49.6492V51.944V51.9403ZM82.8964 50.573H86.9025V56.6691C86.7296 56.7167 86.4832 56.7607 86.1594 56.8084C85.8357 56.856 85.4899 56.878 85.111 56.878C84.3421 56.878 83.7793 56.746 83.4261 56.4821C83.073 56.2182 82.8964 55.7343 82.8964 55.0232V50.573Z" fill="white"/>
<path d="M93.3771 51.6875H89.371V45.4741C89.5439 45.4265 89.7904 45.3825 90.1141 45.3348C90.4378 45.2872 90.7873 45.2652 91.1625 45.2652C91.9461 45.2652 92.5126 45.3935 92.8584 45.6464C93.2042 45.903 93.3771 46.3906 93.3771 47.1164V51.6838V51.6875ZM89.3747 52.219V50.6904H93.3808V52.219C93.3808 52.8385 93.5427 53.2857 93.8627 53.5643C94.1828 53.8429 94.6353 53.9822 95.2165 53.9822C95.577 53.9822 95.875 53.9529 96.1105 53.8906C96.3459 53.8283 96.5188 53.766 96.6292 53.7036V50.6904H100.635V54.2828C100.635 54.6677 100.554 55.005 100.389 55.2909C100.223 55.5768 99.9768 55.8224 99.6457 56.0204C99.0939 56.3613 98.4391 56.6179 97.6776 56.7975C96.9161 56.9734 96.0884 57.0651 95.1908 57.0651C94.0614 57.0651 93.0534 56.9001 92.1742 56.5666C91.295 56.233 90.607 55.7124 90.1141 55.0013C89.6211 54.2901 89.371 53.3627 89.371 52.219H89.3747ZM94.1313 41.7864L96.5114 39.2607C97.3281 39.2607 97.9388 39.4294 98.3471 39.7703C98.7555 40.1112 98.9615 40.4961 98.9615 40.9286C98.9615 41.2842 98.8842 41.5811 98.7261 41.8194C98.5679 42.0577 98.303 42.3326 97.9241 42.6442L95.6874 44.4514C94.9958 44.4514 94.4734 44.2901 94.1203 43.9639C93.7671 43.6376 93.5905 43.293 93.5905 42.9191C93.5905 42.7322 93.6273 42.5562 93.6972 42.3876C93.7671 42.219 93.9142 42.0174 94.1313 41.7864ZM100.635 51.6875H96.6292V45.4741C96.8021 45.4265 97.0485 45.3825 97.3723 45.3348C97.6923 45.2872 98.0455 45.2652 98.4207 45.2652C99.2043 45.2652 99.7708 45.3935 100.117 45.6464C100.462 45.903 100.635 46.3906 100.635 47.1164V51.6838V51.6875Z" fill="white"/>
<path d="M109.538 48.1874C108.751 48.1874 108.074 48.433 107.5 48.9278C106.926 49.4227 106.639 50.1485 106.639 51.1053C106.639 52.062 106.915 52.7732 107.463 53.2387C108.011 53.7042 108.696 53.9352 109.512 53.9352C109.983 53.9352 110.403 53.8765 110.774 53.7629C111.142 53.6456 111.455 53.5283 111.705 53.4037C112.003 53.6199 112.227 53.8509 112.378 54.1001C112.525 54.3457 112.602 54.65 112.602 55.0056C112.602 55.6251 112.293 56.1199 111.672 56.4902C111.05 56.8604 110.167 57.0474 109.023 57.0474C107.721 57.0474 106.584 56.8238 105.62 56.3765C104.653 55.9293 103.91 55.2622 103.383 54.3714C102.857 53.4843 102.596 52.3993 102.596 51.1163C102.596 49.7563 102.887 48.6309 103.468 47.7438C104.049 46.8567 104.818 46.1896 105.778 45.7497C106.735 45.3098 107.78 45.0898 108.913 45.0898C110.046 45.0898 110.895 45.2915 111.517 45.691C112.139 46.0942 112.448 46.6111 112.448 47.2453C112.448 47.5385 112.378 47.8135 112.235 48.0701C112.095 48.3267 111.929 48.5466 111.742 48.7299C111.473 48.6053 111.153 48.4879 110.778 48.3706C110.403 48.2533 109.99 48.1984 109.553 48.1984L109.538 48.1874Z" fill="white"/>
<path d="M182.414 13.2382C182.414 13.4545 182.356 13.6488 182.241 13.821C182.127 13.9897 181.991 14.1253 181.844 14.2206C181.623 14.0703 181.377 13.9457 181.112 13.8394C180.847 13.7331 180.542 13.6817 180.192 13.6817C179.74 13.6817 179.357 13.7771 179.041 13.964C178.725 14.151 178.485 14.4222 178.324 14.7741C178.162 15.126 178.077 15.5513 178.077 16.0498C178.077 16.8159 178.276 17.4024 178.669 17.802C179.063 18.2016 179.611 18.4032 180.31 18.4032C180.674 18.4032 180.983 18.3555 181.234 18.2602C181.487 18.1649 181.726 18.0549 181.958 17.934C182.109 18.0476 182.227 18.1906 182.311 18.3665C182.396 18.5425 182.436 18.7404 182.436 18.9677C182.436 19.1693 182.385 19.3526 182.278 19.5176C182.172 19.6825 181.991 19.8218 181.734 19.9354C181.576 20.0051 181.348 20.0747 181.057 20.1444C180.763 20.214 180.409 20.2507 179.994 20.2507C179.195 20.2507 178.471 20.1004 177.82 19.8071C177.168 19.5139 176.65 19.052 176.264 18.4325C175.877 17.813 175.686 17.0175 175.686 16.0498C175.686 15.1444 175.874 14.3782 176.245 13.7551C176.617 13.1319 177.121 12.6553 177.753 12.3291C178.386 12.0028 179.085 11.8379 179.847 11.8379C180.387 11.8379 180.847 11.9002 181.23 12.0212C181.612 12.1421 181.903 12.3108 182.109 12.5197C182.315 12.7287 182.414 12.9706 182.414 13.2382Z" fill="white"/>
<path d="M185.795 17.7252H183.533V11.4825C183.628 11.4569 183.768 11.4312 183.952 11.4056C184.136 11.3799 184.331 11.3652 184.544 11.3652C184.986 11.3652 185.306 11.4385 185.501 11.5815C185.696 11.7245 185.791 12.0031 185.791 12.4136V17.7252H185.795ZM183.533 16.5632H185.795V20.0053C185.7 20.031 185.56 20.0566 185.376 20.0823C185.192 20.1079 184.997 20.1226 184.784 20.1226C184.349 20.1226 184.033 20.0493 183.834 19.899C183.636 19.7487 183.536 19.4774 183.536 19.0742V16.5632H183.533ZM189.89 17.333H187.627V16.1673C187.627 15.8081 187.535 15.5588 187.355 15.4158C187.175 15.2729 186.95 15.1996 186.682 15.1996C186.413 15.1996 186.181 15.2472 185.975 15.3425C185.773 15.4378 185.593 15.5441 185.442 15.6578V13.8652C185.644 13.7589 185.891 13.6673 186.174 13.583C186.457 13.4987 186.766 13.4583 187.105 13.4583C187.973 13.4583 188.654 13.6746 189.147 14.1072C189.639 14.5397 189.886 15.1812 189.886 16.039V17.333H189.89ZM187.631 16.5632H189.893V20.0053C189.794 20.031 189.654 20.0566 189.474 20.0823C189.294 20.1079 189.095 20.1226 188.882 20.1226C188.448 20.1226 188.131 20.0493 187.933 19.899C187.734 19.7487 187.635 19.4774 187.635 19.0742V16.5632H187.631Z" fill="white"/>
<path d="M192.299 9.91382C192.645 9.91382 192.98 9.96881 193.304 10.0788C193.627 10.1888 193.892 10.3574 194.102 10.5847C194.311 10.8119 194.414 11.1052 194.414 11.4607C194.414 11.9153 194.267 12.2452 193.977 12.4542C193.686 12.6631 193.351 12.7767 192.98 12.7951V13.147C192.936 13.1726 192.847 13.202 192.719 13.2313C192.59 13.2606 192.443 13.2753 192.273 13.2753C191.972 13.2753 191.766 13.246 191.655 13.1836C191.545 13.1213 191.49 13.0407 191.49 12.9344V12.4358C191.49 12.2086 191.545 12.0583 191.655 11.9849C191.766 11.9116 191.898 11.875 192.049 11.875H192.277C192.605 11.875 192.77 11.754 192.77 11.5084C192.77 11.3874 192.711 11.2885 192.597 11.2152C192.483 11.1418 192.299 11.1052 192.053 11.1052C191.85 11.1052 191.659 11.1308 191.483 11.1822C191.306 11.2335 191.162 11.2811 191.056 11.3251C190.956 11.2555 190.879 11.1675 190.824 11.0649C190.765 10.9586 190.736 10.8486 190.736 10.7239C190.736 10.4454 190.89 10.2401 191.203 10.1081C191.512 9.97614 191.88 9.91016 192.307 9.91016L192.299 9.91382ZM193.601 17.2562H191.339V13.7482C191.435 13.7225 191.574 13.6968 191.758 13.6712C191.942 13.6455 192.137 13.6309 192.351 13.6309C192.792 13.6309 193.112 13.7042 193.307 13.8471C193.502 13.9901 193.598 14.2687 193.598 14.6792V17.2562H193.601ZM191.339 16.6551H193.601V20.0055C193.506 20.0312 193.366 20.0568 193.182 20.0825C192.998 20.1082 192.803 20.1228 192.59 20.1228C192.156 20.1228 191.839 20.0495 191.641 19.8992C191.442 19.7489 191.343 19.4777 191.343 19.0744V16.6551H191.339Z" fill="white"/>
<path d="M199.959 16.8746H197.726V12.1752C197.821 12.1495 197.961 12.1202 198.145 12.0909C198.325 12.0615 198.52 12.0469 198.722 12.0469C199.157 12.0469 199.473 12.1202 199.668 12.2705C199.863 12.4208 199.959 12.692 199.959 13.0953V16.8783V16.8746ZM197.722 16.563H199.955V17.8314C199.955 18.0513 200.028 18.2089 200.176 18.3079C200.323 18.4069 200.529 18.4582 200.794 18.4582C200.926 18.4582 201.062 18.4472 201.206 18.4252C201.349 18.4032 201.471 18.3739 201.577 18.3409C201.658 18.4289 201.724 18.5315 201.783 18.6561C201.842 18.7771 201.868 18.9237 201.868 19.0887C201.868 19.4113 201.743 19.6789 201.489 19.8952C201.235 20.1078 200.79 20.2141 200.154 20.2141C199.374 20.2141 198.774 20.0381 198.351 19.6899C197.928 19.3416 197.718 18.7734 197.718 17.989V16.563H197.722ZM199.186 15.5036V13.8028H201.699C201.75 13.8907 201.802 14.008 201.853 14.1547C201.901 14.3013 201.927 14.4626 201.927 14.6385C201.927 14.9428 201.857 15.1627 201.721 15.2984C201.585 15.434 201.401 15.5 201.169 15.5H199.186V15.5036Z" fill="white"/>
<path d="M205.237 17.1907H202.975V13.6826C203.071 13.6569 203.21 13.6313 203.394 13.6056C203.578 13.5799 203.773 13.5653 203.987 13.5653C204.428 13.5653 204.748 13.6386 204.943 13.7816C205.138 13.9245 205.234 14.2031 205.234 14.6137V17.1907H205.237ZM202.979 17.4913V16.6261H205.241V17.4913C205.241 17.8395 205.333 18.0924 205.513 18.2501C205.694 18.4077 205.951 18.4847 206.279 18.4847C206.481 18.4847 206.65 18.4663 206.783 18.4333C206.915 18.4003 207.014 18.3637 207.073 18.327V16.6261H209.336V18.6533C209.336 18.8732 209.288 19.0602 209.196 19.2215C209.104 19.3828 208.964 19.5221 208.776 19.632C208.467 19.8226 208.096 19.9693 207.665 20.0719C207.235 20.1709 206.768 20.2222 206.264 20.2222C205.624 20.2222 205.057 20.1269 204.561 19.9399C204.064 19.753 203.678 19.4597 203.398 19.0565C203.118 18.6569 202.979 18.1327 202.979 17.4876V17.4913ZM205.079 12.7405L203.777 11.5638C203.77 11.5271 203.762 11.4795 203.759 11.4135C203.755 11.3475 203.751 11.2962 203.751 11.2632C203.751 10.9406 203.843 10.6914 204.031 10.5117C204.218 10.3321 204.447 10.2441 204.722 10.2441C204.899 10.2441 205.072 10.2808 205.234 10.3504C205.399 10.4201 205.554 10.5484 205.705 10.7317L206.889 12.1833C206.852 12.4876 206.742 12.7148 206.551 12.8651C206.359 13.0118 206.157 13.0887 205.944 13.0887C205.756 13.0887 205.602 13.0594 205.473 13.0044C205.344 12.9458 205.212 12.8615 205.079 12.7478V12.7405ZM209.336 17.1907H207.073V13.6826C207.169 13.6569 207.309 13.6313 207.493 13.6056C207.676 13.5799 207.871 13.5653 208.085 13.5653C208.526 13.5653 208.846 13.6386 209.041 13.7816C209.236 13.9245 209.336 14.2031 209.336 14.6137V17.1907ZM209.295 16.1569L209.016 16.1423C208.953 16.047 208.894 15.8673 208.843 15.5997C208.791 15.3321 208.762 15.0645 208.762 14.7933C209.1 14.7933 209.372 14.687 209.586 14.4707C209.799 14.2581 209.906 13.9135 209.906 13.4443V13.0008C210.031 12.9384 210.152 12.8908 210.27 12.8578C210.391 12.8248 210.539 12.8065 210.715 12.8065C210.998 12.8065 211.241 12.8725 211.447 13.0044C211.65 13.1364 211.753 13.3563 211.753 13.6716V13.7486C211.753 14.2471 211.642 14.676 211.421 15.0389C211.201 15.4018 210.903 15.6767 210.531 15.871C210.16 16.0616 209.748 16.1606 209.295 16.1606V16.1569Z" fill="white"/>
<path d="M142.728 32.0909C142.728 30.8922 143.121 29.9061 143.905 29.1327C144.689 28.3592 145.788 27.78 147.197 27.3841C148.61 26.9919 150.273 26.7939 152.19 26.7939C154.941 26.7939 157.244 27.2155 159.091 28.0549C160.938 28.8944 162.332 30.0344 163.274 31.475C164.215 32.9157 164.686 34.5432 164.686 36.3614C164.686 38.1796 164.171 39.9355 163.145 41.6327C162.118 43.3299 160.559 45.0015 158.465 46.6474L151.616 52.047H164.164C164.374 52.3916 164.572 52.8608 164.764 53.462C164.955 54.0631 165.05 54.7046 165.05 55.3901C165.05 56.6255 164.771 57.5089 164.215 58.0404C163.656 58.572 162.924 58.8359 162.019 58.8359H143.879C143.114 58.3227 142.511 57.6519 142.077 56.8308C141.639 56.006 141.422 55.0639 141.422 54.0008C141.422 52.8351 141.676 51.8491 142.18 51.0426C142.684 50.2361 143.217 49.5946 143.773 49.1144L150.987 43.044C152.797 41.5337 154.036 40.3167 154.698 39.393C155.361 38.4656 155.692 37.6261 155.692 36.871C155.692 35.9106 155.298 35.1554 154.514 34.6092C153.731 34.0594 152.642 33.7844 151.248 33.7844C149.854 33.7844 148.606 33.9971 147.51 34.4259C146.414 34.8548 145.498 35.3094 144.766 35.7896C144.207 35.379 143.728 34.8622 143.327 34.2463C142.926 33.6305 142.728 32.9083 142.728 32.0872V32.0909Z" fill="url(#paint0_linear_15_545)"/>
<path d="M183.867 52.0987H174.98V35.8962L169.752 37.4908C169.23 37.1499 168.707 36.666 168.185 36.0502C167.662 35.4344 167.401 34.5766 167.401 33.4769C167.401 31.4204 168.674 29.9798 171.216 29.155L177.073 27.2012H179.008C180.505 27.2012 181.69 27.6301 182.561 28.4878C183.433 29.3456 183.867 30.5113 183.867 31.9849V52.0987ZM174.983 45.2584H183.871V58.7886C183.488 58.8912 182.937 58.9938 182.223 59.0965C181.509 59.1991 180.733 59.2504 179.898 59.2504C178.191 59.2504 176.944 58.9572 176.16 58.3743C175.377 57.7915 174.983 56.7101 174.983 55.1339V45.2584Z" fill="url(#paint1_linear_15_545)"/>
<path d="M191.081 32.0909C191.081 30.8922 191.475 29.9061 192.259 29.1327C193.042 28.3592 194.142 27.78 195.551 27.3841C196.964 26.9919 198.626 26.7939 200.543 26.7939C203.295 26.7939 205.598 27.2155 207.444 28.0549C209.291 28.8944 210.685 30.0344 211.627 31.475C212.569 32.9157 213.04 34.5432 213.04 36.3614C213.04 38.1796 212.525 39.9355 211.498 41.6327C210.472 43.3299 208.912 45.0015 206.819 46.6474L199.969 52.047H212.517C212.727 52.3916 212.926 52.8608 213.117 53.462C213.308 54.0631 213.404 54.7046 213.404 55.3901C213.404 56.6255 213.124 57.5089 212.569 58.0404C212.01 58.572 211.278 58.8359 210.373 58.8359H192.233C191.468 58.3227 190.864 57.6519 190.43 56.8308C189.992 56.006 189.775 55.0639 189.775 54.0008C189.775 52.8351 190.029 51.8491 190.533 51.0426C191.037 50.2361 191.571 49.5946 192.126 49.1144L199.34 43.044C201.15 41.5337 202.39 40.3167 203.052 39.393C203.714 38.4656 204.045 37.6261 204.045 36.871C204.045 35.9106 203.652 35.1554 202.868 34.6092C202.085 34.0594 200.996 33.7844 199.601 33.7844C198.207 33.7844 196.96 33.9971 195.864 34.4259C194.767 34.8548 193.851 35.3094 193.119 35.7896C192.56 35.379 192.082 34.8622 191.681 34.2463C191.28 33.6305 191.081 32.9083 191.081 32.0872V32.0909Z" fill="url(#paint2_linear_15_545)"/>
<path d="M227.781 47.9851H218.632V27.5634C219.051 27.4938 219.669 27.4021 220.486 27.2812C221.303 27.1602 222.097 27.1016 222.866 27.1016C224.61 27.1016 225.864 27.3948 226.629 27.9777C227.395 28.5605 227.781 29.6932 227.781 31.3721V47.9888V47.9851ZM218.632 36.1009H227.781V58.7843C227.398 58.8869 226.806 58.9895 226.004 59.0922C225.202 59.1948 224.382 59.2461 223.547 59.2461C221.733 59.2461 220.464 58.9272 219.732 58.2931C219 57.6589 218.635 56.5518 218.635 54.9756V36.0972L218.632 36.1009ZM234.053 45.2065L222.082 46.0789L238.655 27.3545C241.024 27.3545 242.724 27.7907 243.754 28.6668C244.78 29.5393 245.295 30.5803 245.295 31.779C245.295 32.6698 245.067 33.5092 244.615 34.301C244.162 35.0891 243.43 35.9799 242.419 36.977L234.053 45.2065ZM223.337 42.0686L234.002 41.3502C236.683 44.2644 239.115 46.8707 241.293 49.1691C243.471 51.4675 245.203 53.3004 246.495 54.6713C246.495 56.145 245.991 57.3033 244.979 58.1428C243.967 58.9822 242.801 59.4038 241.477 59.4038C240.046 59.4038 238.88 59.0519 237.975 58.348C237.07 57.6442 236.198 56.8121 235.359 55.8517L223.337 42.065V42.0686Z" fill="url(#paint3_linear_15_545)"/>
<path d="M133.061 7.30191C133.743 7.30191 134.297 6.70944 134.297 5.97859C134.297 5.24774 133.743 4.65527 133.061 4.65527C132.378 4.65527 131.825 5.24774 131.825 5.97859C131.825 6.70944 132.378 7.30191 133.061 7.30191Z" fill="#480090"/>
<path d="M133.061 10.8908C133.743 10.8908 134.297 10.2983 134.297 9.56746C134.297 8.83661 133.743 8.24414 133.061 8.24414C132.378 8.24414 131.825 8.83661 131.825 9.56746C131.825 10.2983 132.378 10.8908 133.061 10.8908Z" fill="#480090"/>
<path d="M133.061 14.4757C133.743 14.4757 134.297 13.8833 134.297 13.1524C134.297 12.4216 133.743 11.8291 133.061 11.8291C132.378 11.8291 131.825 12.4216 131.825 13.1524C131.825 13.8833 132.378 14.4757 133.061 14.4757Z" fill="#480090"/>
<path d="M133.061 18.0646C133.743 18.0646 134.297 17.4721 134.297 16.7413C134.297 16.0104 133.743 15.418 133.061 15.418C132.378 15.418 131.825 16.0104 131.825 16.7413C131.825 17.4721 132.378 18.0646 133.061 18.0646Z" fill="#480090"/>
<path d="M133.061 21.6535C133.743 21.6535 134.297 21.061 134.297 20.3302C134.297 19.5993 133.743 19.0068 133.061 19.0068C132.378 19.0068 131.825 19.5993 131.825 20.3302C131.825 21.061 132.378 21.6535 133.061 21.6535Z" fill="#480090"/>
<path d="M133.061 25.2423C133.743 25.2423 134.297 24.6499 134.297 23.919C134.297 23.1882 133.743 22.5957 133.061 22.5957C132.378 22.5957 131.825 23.1882 131.825 23.919C131.825 24.6499 132.378 25.2423 133.061 25.2423Z" fill="#480090"/>
<path d="M133.061 28.8302C133.743 28.8302 134.297 28.2378 134.297 27.5069C134.297 26.7761 133.743 26.1836 133.061 26.1836C132.378 26.1836 131.825 26.7761 131.825 27.5069C131.825 28.2378 132.378 28.8302 133.061 28.8302Z" fill="#480090"/>
<path d="M133.061 32.4191C133.743 32.4191 134.297 31.8266 134.297 31.0958C134.297 30.3649 133.743 29.7725 133.061 29.7725C132.378 29.7725 131.825 30.3649 131.825 31.0958C131.825 31.8266 132.378 32.4191 133.061 32.4191Z" fill="#480090"/>
<path d="M133.061 36.0041C133.743 36.0041 134.297 35.4116 134.297 34.6807C134.297 33.9499 133.743 33.3574 133.061 33.3574C132.378 33.3574 131.825 33.9499 131.825 34.6807C131.825 35.4116 132.378 36.0041 133.061 36.0041Z" fill="#480090"/>
<path d="M133.061 39.5929C133.743 39.5929 134.297 39.0005 134.297 38.2696C134.297 37.5388 133.743 36.9463 133.061 36.9463C132.378 36.9463 131.825 37.5388 131.825 38.2696C131.825 39.0005 132.378 39.5929 133.061 39.5929Z" fill="#480090"/>
<path d="M133.061 43.1818C133.743 43.1818 134.297 42.5893 134.297 41.8585C134.297 41.1276 133.743 40.5352 133.061 40.5352C132.378 40.5352 131.825 41.1276 131.825 41.8585C131.825 42.5893 132.378 43.1818 133.061 43.1818Z" fill="#480090"/>
<path d="M133.061 46.7707C133.743 46.7707 134.297 46.1782 134.297 45.4473C134.297 44.7165 133.743 44.124 133.061 44.124C132.378 44.124 131.825 44.7165 131.825 45.4473C131.825 46.1782 132.378 46.7707 133.061 46.7707Z" fill="#480090"/>
<path d="M133.061 50.3595C133.743 50.3595 134.297 49.7671 134.297 49.0362C134.297 48.3054 133.743 47.7129 133.061 47.7129C132.378 47.7129 131.825 48.3054 131.825 49.0362C131.825 49.7671 132.378 50.3595 133.061 50.3595Z" fill="#480090"/>
<path d="M133.061 53.9484C133.743 53.9484 134.297 53.3559 134.297 52.6251C134.297 51.8942 133.743 51.3018 133.061 51.3018C132.378 51.3018 131.825 51.8942 131.825 52.6251C131.825 53.3559 132.378 53.9484 133.061 53.9484Z" fill="#480090"/>
<path d="M133.061 57.5334C133.743 57.5334 134.297 56.9409 134.297 56.21C134.297 55.4792 133.743 54.8867 133.061 54.8867C132.378 54.8867 131.825 55.4792 131.825 56.21C131.825 56.9409 132.378 57.5334 133.061 57.5334Z" fill="#480090"/>
<path d="M133.061 61.1222C133.743 61.1222 134.297 60.5298 134.297 59.7989C134.297 59.0681 133.743 58.4756 133.061 58.4756C132.378 58.4756 131.825 59.0681 131.825 59.7989C131.825 60.5298 132.378 61.1222 133.061 61.1222Z" fill="#480090"/>
<path d="M133.061 64.7101C133.743 64.7101 134.297 64.1176 134.297 63.3868C134.297 62.6559 133.743 62.0635 133.061 62.0635C132.378 62.0635 131.825 62.6559 131.825 63.3868C131.825 64.1176 132.378 64.7101 133.061 64.7101Z" fill="#480090"/>
<path d="M6.50772 41.7896C10.1018 41.7896 13.0154 38.8863 13.0154 35.3049C13.0154 31.7236 10.1018 28.8203 6.50772 28.8203C2.91361 28.8203 0 31.7236 0 35.3049C0 38.8863 2.91361 41.7896 6.50772 41.7896Z" fill="white"/>
<defs>
<linearGradient id="paint0_linear_15_545" x1="141.422" y1="43.099" x2="246.495" y2="43.099" gradientUnits="userSpaceOnUse">
<stop stop-color="#ECFFB6"/>
<stop offset="1" stop-color="#FF7800"/>
</linearGradient>
<linearGradient id="paint1_linear_15_545" x1="141.422" y1="43.0993" x2="246.495" y2="43.0993" gradientUnits="userSpaceOnUse">
<stop stop-color="#ECFFB6"/>
<stop offset="1" stop-color="#FF7800"/>
</linearGradient>
<linearGradient id="paint2_linear_15_545" x1="141.422" y1="43.099" x2="246.494" y2="43.099" gradientUnits="userSpaceOnUse">
<stop stop-color="#ECFFB6"/>
<stop offset="1" stop-color="#FF7800"/>
</linearGradient>
<linearGradient id="paint3_linear_15_545" x1="141.422" y1="43.0987" x2="246.495" y2="43.0987" gradientUnits="userSpaceOnUse">
<stop stop-color="#ECFFB6"/>
<stop offset="1" stop-color="#FF7800"/>
</linearGradient>
</defs>
</svg>
