<svg width="259" height="70" viewBox="0 0 259 70" fill="none" xmlns="http://www.w3.org/2000/svg">
<path d="M33.8555 27.2467H29.441V17.3896C29.6433 17.3566 29.9413 17.3126 30.3349 17.254C30.7285 17.1953 31.1111 17.166 31.4827 17.166C32.3251 17.166 32.9284 17.3053 33.3 17.5876C33.6715 17.8698 33.8555 18.416 33.8555 19.2261V27.2467ZM29.441 21.5099H33.8555V32.3347L31.788 32.5583C31.0633 32.5583 30.4931 32.353 30.0737 31.9388C29.6543 31.5246 29.4446 30.9637 29.4446 30.2489V21.5099H29.441ZM31.788 32.5583V29.0576H39.6348C39.7525 29.2409 39.8629 29.4791 39.9622 29.776C40.0615 30.073 40.113 30.3956 40.113 30.7438C40.113 31.356 39.9769 31.8105 39.7084 32.1111C39.4398 32.408 39.0683 32.5583 38.5974 32.5583H31.7843H31.788Z" fill="white"/>
<path d="M47.1028 20.0476C48.9348 20.0476 50.4027 20.4178 51.5063 21.1509C52.6062 21.8877 53.158 23.0351 53.158 24.5894V30.1503C53.158 30.5791 53.0366 30.931 52.7938 31.206C52.5511 31.4772 52.2604 31.7155 51.922 31.9135C51.3849 32.2287 50.7264 32.467 49.9538 32.6319C49.1813 32.7969 48.2984 32.8812 47.3051 32.8812C45.5393 32.8812 44.123 32.5476 43.0525 31.8768C41.9857 31.206 41.4485 30.1942 41.4485 28.8343C41.4485 27.6906 41.798 26.8145 42.497 26.2023C43.196 25.5901 44.2591 25.2089 45.6902 25.0586L48.9937 24.7103V24.5381C48.9937 24.0578 48.7803 23.7133 48.3499 23.508C47.9195 23.3027 47.3015 23.1964 46.4958 23.1964C45.8741 23.1964 45.2561 23.2624 44.6417 23.3944C44.0274 23.5263 43.4755 23.6913 42.9899 23.8892C42.7729 23.7389 42.5853 23.5117 42.4345 23.2074C42.2836 22.9031 42.2064 22.5842 42.2064 22.2507C42.2064 21.4552 42.6368 20.8943 43.4939 20.5608C43.9832 20.3775 44.5571 20.2455 45.223 20.1649C45.8888 20.0806 46.5142 20.0402 47.1028 20.0402V20.0476ZM48.567 18.1597L47.559 16.9427C47.1212 17.4229 46.7644 17.8151 46.4885 18.1231C46.2125 18.431 45.8851 18.7976 45.5173 19.2264C44.8624 19.2264 44.3401 19.0762 43.9538 18.7792C43.5675 18.4823 43.3726 18.1011 43.3726 17.6355C43.3726 17.3056 43.4645 17.0197 43.6485 16.7778C43.8324 16.5395 44.112 16.2352 44.4798 15.8723L45.337 15.0292C45.6571 14.714 45.9955 14.461 46.3597 14.2704C46.7202 14.0798 47.1469 13.9845 47.6325 13.9845C48.0703 13.9845 48.4787 14.0688 48.8576 14.2338C49.2365 14.3987 49.6596 14.7726 50.1304 15.3518L51.922 17.5109C51.922 17.9728 51.7822 18.3687 51.5063 18.6913C51.2304 19.0138 50.8036 19.1751 50.2334 19.1751C49.9134 19.1751 49.6228 19.0835 49.3616 18.9002C49.1004 18.7169 48.8355 18.4713 48.567 18.1561V18.1597ZM47.3051 29.802C47.5921 29.802 47.9048 29.7727 48.2506 29.714C48.5964 29.6554 48.8502 29.5784 49.0194 29.4794V27.4926L47.2021 27.6429C46.7313 27.6759 46.345 27.7749 46.0397 27.9398C45.738 28.1048 45.5872 28.3541 45.5872 28.684C45.5872 29.0139 45.7159 29.2851 45.9771 29.4904C46.2383 29.6994 46.6798 29.802 47.3015 29.802H47.3051ZM52.0728 9.89355C52.93 9.89355 53.6473 10.1098 54.2175 10.5387C54.7877 10.9676 55.0747 11.5798 55.0747 12.3752C55.0747 12.9874 54.8723 13.4566 54.4677 13.7792C54.063 14.1018 53.6252 14.2814 53.1544 14.3144V15.1099C53.0366 15.1612 52.8932 15.2015 52.724 15.2345C52.5547 15.2675 52.3524 15.2858 52.1169 15.2858C51.7307 15.2858 51.4364 15.2418 51.2341 15.1502C51.0317 15.0585 50.9324 14.8899 50.9324 14.6406V13.6216C50.9324 13.3723 50.9913 13.1964 51.109 13.0864C51.2267 12.9801 51.3959 12.9251 51.613 12.9251H51.738C52.3083 12.9251 52.5952 12.7345 52.5952 12.3532C52.5952 12.17 52.5143 12.027 52.3561 11.917C52.1942 11.8107 51.9735 11.7557 51.6865 11.7557C51.418 11.7557 51.1568 11.7961 50.903 11.8804C50.6491 11.9647 50.4394 12.0453 50.2739 12.1296C49.9538 11.8987 49.7957 11.5834 49.7957 11.1875C49.7957 10.7917 50.0053 10.4544 50.4247 10.2308C50.8441 10.0072 51.3922 9.89722 52.0655 9.89722L52.0728 9.89355Z" fill="white"/>
<path d="M60.0702 27.122H55.7808V20.4687C55.9648 20.4174 56.2296 20.3698 56.5754 20.3184C56.9212 20.2671 57.2928 20.2451 57.6975 20.2451C58.5399 20.2451 59.1432 20.3807 59.5148 20.6557C59.8863 20.9306 60.0702 21.4548 60.0702 22.2319V27.122ZM55.7808 27.6938V26.0553H60.0702V27.6938C60.0702 28.3573 60.2432 28.8375 60.589 29.1345C60.9348 29.4314 61.4167 29.5817 62.0384 29.5817C62.4247 29.5817 62.7447 29.5487 62.9985 29.4827C63.2524 29.4167 63.4363 29.3507 63.554 29.2848V26.0589H67.8435V29.9079C67.8435 30.3221 67.7552 30.6814 67.5786 30.9893C67.402 31.2972 67.1371 31.5575 66.784 31.7701C66.1954 32.133 65.4927 32.4116 64.6761 32.6022C63.8594 32.7928 62.9728 32.8881 62.0126 32.8881C60.8023 32.8881 59.7244 32.7085 58.7827 32.3529C57.8409 31.9974 57.1052 31.4402 56.5754 30.6777C56.0457 29.9153 55.7808 28.9218 55.7808 27.6975V27.6938ZM67.8435 27.122H63.554V20.4687C63.738 20.4174 64.0028 20.3698 64.3486 20.3184C64.6944 20.2671 65.066 20.2451 65.4707 20.2451C66.3131 20.2451 66.9164 20.3807 67.288 20.6557C67.6595 20.9306 67.8435 21.4548 67.8435 22.2319V27.122Z" fill="white"/>
<path d="M89.6919 24.9629V30.0766C89.6919 30.5898 89.5999 30.971 89.416 31.2203C89.2321 31.4695 88.9378 31.7078 88.5331 31.9388C88.0622 32.2027 87.378 32.4336 86.4767 32.6352C85.5754 32.8332 84.6815 32.9322 83.7912 32.9322C82.1762 32.9322 80.7084 32.6572 79.3877 32.1147C78.067 31.5685 77.0186 30.7071 76.2461 29.5341C75.4735 28.3574 75.0836 26.8434 75.0836 24.9922C75.0836 23.2547 75.4735 21.7884 76.2571 20.5971C77.0407 19.4057 78.0891 18.5039 79.4098 17.8918C80.7305 17.2796 82.2057 16.9717 83.839 16.9717C84.8985 16.9717 85.8182 17.0817 86.6017 17.3053C87.3853 17.5289 87.985 17.8441 88.4044 18.2473C88.8237 18.6542 89.0334 19.1271 89.0334 19.6733C89.0334 20.0875 88.9231 20.4541 88.706 20.7767C88.489 21.0993 88.2351 21.3522 87.9482 21.5355C87.5288 21.2862 86.9991 21.0479 86.359 20.817C85.7189 20.5861 84.9868 20.4688 84.1628 20.4688C83.2725 20.4688 82.4816 20.6557 81.7899 21.026C81.0983 21.3999 80.5649 21.9204 80.186 22.5912C79.8071 23.262 79.6195 24.0538 79.6195 24.9629C79.6195 25.9563 79.7997 26.7884 80.1603 27.4593C80.5208 28.1301 81.0211 28.6286 81.6612 28.9622C82.3013 29.2921 83.0334 29.4571 83.8574 29.4571C84.229 29.4571 84.5527 29.4204 84.8286 29.3471C85.1045 29.2738 85.3216 29.2041 85.4724 29.1345V26.7518H82.7722C82.6728 26.5685 82.5735 26.3302 82.4816 26.0333C82.3896 25.7364 82.3418 25.4211 82.3418 25.0912C82.3418 24.4937 82.4816 24.0648 82.7575 23.8009C83.0334 23.537 83.3939 23.405 83.828 23.405H88.0917C88.5957 23.405 88.9856 23.5406 89.2652 23.8156C89.5411 24.0868 89.6809 24.4717 89.6809 24.9703L89.6919 24.9629Z" fill="white"/>
<path d="M97.4356 20.0473C99.2676 20.0473 100.735 20.4175 101.839 21.1506C102.939 21.8874 103.491 23.0348 103.491 24.5891V30.1499C103.491 30.5788 103.369 30.9307 103.127 31.2057C102.884 31.4769 102.593 31.7152 102.255 31.9131C101.718 32.2284 101.059 32.4667 100.287 32.6316C99.5141 32.7966 98.6312 32.8809 97.6379 32.8809C95.8721 32.8809 94.4558 32.5473 93.3852 31.8765C92.3184 31.2057 91.7813 30.1939 91.7813 28.834C91.7813 27.6903 92.1308 26.8142 92.8298 26.202C93.5287 25.5898 94.5919 25.2086 96.0229 25.0583L99.3264 24.71V24.5377C99.3264 24.0575 99.1131 23.713 98.6827 23.5077C98.2523 23.3024 97.6342 23.1961 96.8286 23.1961C96.2069 23.1961 95.5888 23.2621 94.9745 23.394C94.3601 23.526 93.8083 23.691 93.3227 23.8889C93.1057 23.7386 92.918 23.5113 92.7672 23.2071C92.6164 22.9028 92.5391 22.5839 92.5391 22.2503C92.5391 21.4549 92.9695 20.894 93.8267 20.5605C94.316 20.3772 94.8899 20.2452 95.5557 20.1646C96.2216 20.0802 96.847 20.0399 97.4356 20.0399V20.0473ZM96.4018 18.6799L93.9297 16.4439C93.9113 16.3779 93.9003 16.2826 93.8929 16.1579C93.8856 16.0333 93.8819 15.938 93.8819 15.872C93.8819 15.2598 94.0585 14.7833 94.4116 14.4461C94.7648 14.1051 95.2026 13.9365 95.725 13.9365C96.0597 13.9365 96.3834 14.0025 96.6961 14.1345C97.0088 14.2664 97.3068 14.5084 97.5901 14.853L99.8341 17.6096C99.7679 18.1887 99.5509 18.6176 99.1903 18.8999C98.8298 19.1821 98.4472 19.3214 98.0426 19.3214C97.6894 19.3214 97.3914 19.2665 97.1486 19.1602C96.9058 19.0538 96.6557 18.8926 96.4055 18.6763L96.4018 18.6799ZM97.6379 29.8017C97.9248 29.8017 98.2375 29.7724 98.5833 29.7137C98.9291 29.6551 99.183 29.5781 99.3522 29.4791V27.4923L97.5349 27.6426C97.064 27.6756 96.6777 27.7746 96.3724 27.9395C96.0707 28.1045 95.9199 28.3537 95.9199 28.6837C95.9199 29.0136 96.0487 29.2848 96.3099 29.4901C96.5711 29.6991 97.0125 29.8017 97.6342 29.8017H97.6379Z" fill="white"/>
<path d="M19.6004 49.721H13.7217V40.7584C13.7217 40.4102 13.8211 40.1426 14.0234 39.9519C14.2257 39.7613 14.4869 39.6074 14.807 39.4937C15.3772 39.2958 16.0614 39.1491 16.8524 39.0575C17.6433 38.9659 18.3496 38.9219 18.9713 38.9219C21.2742 38.9219 23.0474 39.4094 24.2835 40.3882C25.5195 41.3632 26.1376 42.6902 26.1376 44.3618C26.1376 45.4395 25.869 46.3779 25.3319 47.1807C24.7948 47.9835 24.037 48.6067 23.0621 49.0539C22.0872 49.5011 20.9358 49.7247 19.6041 49.7247L19.6004 49.721ZM13.7217 47.8369H18.1363V54.3655C17.9523 54.4168 17.6654 54.4645 17.2791 54.5158C16.8928 54.5671 16.4955 54.5891 16.0945 54.5891C15.219 54.5891 14.6046 54.4351 14.2515 54.1309C13.8983 53.823 13.7217 53.2914 13.7217 52.529V47.8369ZM18.1142 46.3229H19.3245C20.0124 46.3229 20.5716 46.1543 21.002 45.8134C21.4324 45.4762 21.6458 44.9886 21.6458 44.3618C21.6458 43.7349 21.4471 43.2474 21.0535 42.9102C20.6599 42.5729 20.0823 42.4006 19.3245 42.4006C19.056 42.4006 18.8315 42.4043 18.655 42.4116C18.4784 42.419 18.2981 42.441 18.1142 42.4739V46.3229Z" fill="white"/>
<path d="M32.3914 50.0441H28.102V38.2002C28.286 38.1489 28.5508 38.1012 28.8966 38.0499C29.2424 37.9986 29.614 37.9766 30.0186 37.9766C30.8611 37.9766 31.4644 38.1122 31.8359 38.3871C32.2075 38.6621 32.3914 39.1862 32.3914 39.9634V50.0441ZM28.1057 47.8373H32.3951V54.3659C32.2112 54.4173 31.9463 54.4649 31.6005 54.5162C31.2547 54.5676 30.8831 54.5895 30.4785 54.5895C29.6544 54.5895 29.0511 54.4502 28.6759 54.168C28.297 53.8857 28.1094 53.3652 28.1094 52.6027V47.8373H28.1057ZM40.1647 49.2999H35.8752V47.0895C35.8752 46.4114 35.7023 45.9348 35.3565 45.6635C35.0107 45.3923 34.5877 45.253 34.0837 45.253C33.5797 45.253 33.1346 45.3446 32.7483 45.5279C32.362 45.7112 32.0236 45.9092 31.7403 46.1254V42.7237C32.1266 42.5257 32.5901 42.3461 33.1272 42.1885C33.6643 42.0308 34.2529 41.9539 34.893 41.9539C36.5411 41.9539 37.8323 42.3644 38.7667 43.1819C39.7011 43.9993 40.1683 45.2237 40.1683 46.8439V49.2999H40.1647ZM35.8752 47.8373H40.1647V54.3659C39.9807 54.4173 39.7159 54.4649 39.3701 54.5162C39.0243 54.5676 38.6527 54.5895 38.248 54.5895C37.424 54.5895 36.8207 54.4502 36.4454 54.168C36.0665 53.8857 35.8789 53.3652 35.8789 52.6027V47.8373H35.8752Z" fill="white"/>
<path d="M47.8606 41.9536C49.6926 41.9536 51.1605 42.3239 52.2641 43.057C53.3641 43.7938 53.9159 44.9412 53.9159 46.4954V52.0563C53.9159 52.4852 53.7945 52.8371 53.5517 53.112C53.3089 53.3833 53.0183 53.6216 52.6798 53.8195C52.1427 54.1348 51.4842 54.373 50.7117 54.538C49.9391 54.7029 49.0562 54.7873 48.063 54.7873C46.2972 54.7873 44.8808 54.4537 43.8103 53.7829C42.7435 53.112 42.2064 52.1003 42.2064 50.7403C42.2064 49.5966 42.5559 48.7205 43.2548 48.1083C43.9538 47.4962 45.017 47.1149 46.448 46.9646L49.7515 46.6164V46.4441C49.7515 45.9639 49.5381 45.6193 49.1077 45.414C48.6773 45.2088 48.0593 45.1025 47.2536 45.1025C46.6319 45.1025 46.0139 45.1684 45.3995 45.3004C44.7852 45.4324 44.2334 45.5973 43.7478 45.7953C43.5307 45.645 43.3431 45.4177 43.1923 45.1135C43.0415 44.8092 42.9642 44.4903 42.9642 44.1567C42.9642 43.3613 43.3946 42.8004 44.2518 42.4668C44.741 42.2835 45.3149 42.1516 45.9808 42.0709C46.6466 41.9866 47.272 41.9463 47.8606 41.9463V41.9536ZM48.063 51.7081C48.3499 51.7081 48.6626 51.6787 49.0084 51.6201C49.3542 51.5614 49.608 51.4845 49.7773 51.3855V49.3987L47.96 49.549C47.4891 49.582 47.1028 49.6809 46.7975 49.8459C46.4958 50.0108 46.345 50.2601 46.345 50.59C46.345 50.9199 46.4737 51.1912 46.7349 51.3965C46.9961 51.6054 47.4376 51.7081 48.0593 51.7081H48.063Z" fill="white"/>
<path d="M68.5979 46.6198V48.9035H64.3084V46.7444C64.3084 46.2312 64.1539 45.8537 63.8412 45.6154C63.5285 45.3771 63.1239 45.2562 62.6162 45.2562C62.2778 45.2562 61.9651 45.2965 61.6708 45.3808C61.3765 45.4651 61.0932 45.5714 60.8247 45.7034V48.9072H56.5352V45.1352C56.5352 44.688 56.6309 44.3251 56.8258 44.0428C57.0208 43.7606 57.2857 43.504 57.6205 43.273C58.1907 42.8771 58.9154 42.5582 59.7909 42.3163C60.6665 42.078 61.6229 41.957 62.6677 41.957C64.5696 41.957 66.0301 42.3676 67.0565 43.185C68.0829 44.0025 68.5942 45.1499 68.5942 46.6235L68.5979 46.6198ZM56.5389 47.8368H60.8283V54.3654C60.6444 54.4168 60.3795 54.4644 60.0337 54.5157C59.6879 54.5671 59.3164 54.5891 58.9117 54.5891C58.0877 54.5891 57.4843 54.4498 57.1091 54.1675C56.7302 53.8852 56.5426 53.3647 56.5426 52.6022V47.8368H56.5389ZM64.3084 47.8368H68.5979V54.3654C68.4139 54.4168 68.1491 54.4644 67.8033 54.5157C67.4575 54.5671 67.0859 54.5891 66.6812 54.5891C65.8572 54.5891 65.2539 54.4498 64.8786 54.1675C64.4997 53.8852 64.3121 53.3647 64.3121 52.6022V47.8368H64.3084Z" fill="white"/>
<path d="M81.0393 49.153H76.6248V39.2959C76.8271 39.2629 77.1251 39.2189 77.5188 39.1602C77.9124 39.1016 78.295 39.0723 78.6665 39.0723C79.509 39.0723 80.1123 39.2116 80.4839 39.4938C80.8554 39.7761 81.0393 40.3223 81.0393 41.1324V49.153ZM76.6212 43.4161H81.0357V54.241L78.9682 54.4646C78.2435 54.4646 77.6733 54.2593 77.2539 53.8451C76.8345 53.4308 76.6248 52.87 76.6248 52.1552V43.4161H76.6212ZM78.9682 54.4646V50.9638H86.815C86.9327 51.1471 87.0431 51.3854 87.1424 51.6823C87.2417 51.9792 87.2932 52.3018 87.2932 52.65C87.2932 53.2622 87.1571 53.7168 86.8886 54.0174C86.62 54.3143 86.2484 54.4646 85.7776 54.4646H78.9645H78.9682Z" fill="white"/>
<path d="M94.2827 41.9534C96.1148 41.9534 97.5826 42.3236 98.6862 43.0568C99.7862 43.7936 100.338 44.9409 100.338 46.4952V52.0561C100.338 52.485 100.217 52.8369 99.9738 53.1118C99.731 53.3831 99.4404 53.6213 99.1019 53.8193C98.5648 54.1345 97.9063 54.3728 97.1338 54.5378C96.3612 54.7027 95.4783 54.787 94.4851 54.787C92.7193 54.787 91.303 54.4534 90.2324 53.7826C89.1656 53.1118 88.6285 52.1001 88.6285 50.7401C88.6285 49.5964 88.978 48.7203 89.6769 48.1081C90.3759 47.4959 91.4391 47.1147 92.8701 46.9644L96.1736 46.6162V46.4439C96.1736 45.9637 95.9602 45.6191 95.5298 45.4138C95.0994 45.2085 94.4814 45.1022 93.6757 45.1022C93.054 45.1022 92.436 45.1682 91.8216 45.3002C91.2073 45.4321 90.6555 45.5971 90.1699 45.795C89.9528 45.6447 89.7652 45.4175 89.6144 45.1132C89.4636 44.809 89.3863 44.4901 89.3863 44.1565C89.3863 43.361 89.8167 42.8002 90.6739 42.4666C91.1631 42.2833 91.737 42.1513 92.4029 42.0707C93.0687 41.9864 93.6941 41.9461 94.2827 41.9461V41.9534ZM94.4851 51.7078C94.772 51.7078 95.0847 51.6785 95.4305 51.6199C95.7763 51.5612 96.0301 51.4842 96.1994 51.3852V49.3984L94.3821 49.5487C93.9112 49.5817 93.5249 49.6807 93.2196 49.8456C92.9179 50.0106 92.7671 50.2599 92.7671 50.5898C92.7671 50.9197 92.8958 51.191 93.157 51.3962C93.4182 51.6052 93.8597 51.7078 94.4814 51.7078H94.4851ZM93.4513 38.427L96.0007 35.7217C96.8763 35.7217 97.5311 35.905 97.9689 36.2679C98.4066 36.6308 98.6237 37.045 98.6237 37.5105C98.6237 37.8918 98.5391 38.2107 98.3698 38.4673C98.2006 38.7239 97.9174 39.0171 97.5127 39.3471L95.1141 41.2826C94.3747 41.2826 93.8155 41.1103 93.4366 40.762C93.0577 40.4138 92.8701 40.0435 92.8701 39.644C92.8701 39.446 92.9069 39.2554 92.9841 39.0721C93.0614 38.8888 93.2159 38.6762 93.4513 38.427Z" fill="white"/>
<path d="M112.625 50.3919H108.336V41.6529C108.336 40.9417 108.545 40.3772 108.965 39.963C109.384 39.5488 109.958 39.3435 110.679 39.3435C111.084 39.3435 111.462 39.3692 111.816 39.4168C112.169 39.4681 112.437 39.5158 112.621 39.5671V50.3919H112.625ZM108.336 43.4161H112.625V54.2409C112.441 54.2922 112.172 54.3399 111.819 54.3912C111.466 54.4425 111.087 54.4645 110.683 54.4645C109.958 54.4645 109.388 54.2593 108.968 53.845C108.549 53.4308 108.339 52.8699 108.339 52.1551V43.4161H108.336ZM110.683 42.7453V39.3435H119.008C119.125 39.5268 119.232 39.7577 119.324 40.04C119.416 40.3222 119.464 40.6375 119.464 40.9821C119.464 41.5942 119.328 42.0415 119.059 42.3237C118.791 42.606 118.419 42.7453 117.948 42.7453H110.683ZM110.683 48.4308V45.0547H118.301C118.419 45.2379 118.526 45.4689 118.618 45.7511C118.71 46.0334 118.757 46.3487 118.757 46.6932C118.757 47.3054 118.621 47.749 118.353 48.0202C118.084 48.2951 117.713 48.4308 117.242 48.4308H110.683ZM110.683 54.4645V51.0371H119.111C119.228 51.2204 119.335 51.4587 119.427 51.7556C119.519 52.0525 119.567 52.3751 119.567 52.7233C119.567 53.3355 119.431 53.779 119.162 54.0503C118.894 54.3252 118.522 54.4609 118.051 54.4609H110.683V54.4645ZM113.232 35.6228L116.16 33.3867C116.867 33.3867 117.418 33.5553 117.812 33.8963C118.206 34.2372 118.404 34.6551 118.404 35.1499C118.404 35.4652 118.323 35.7584 118.165 36.0297C118.003 36.301 117.691 36.5795 117.22 36.8618L114.696 38.3024C114.023 38.3024 113.515 38.1521 113.169 37.8552C112.824 37.5583 112.651 37.2101 112.651 36.8142C112.651 36.6162 112.68 36.4219 112.739 36.2313C112.798 36.0407 112.963 35.8391 113.232 35.6228Z" fill="white"/>
<path d="M239.973 0H11.8125C5.28863 0 0 5.26987 0 11.7706V57.8302C0 64.3309 5.28863 69.6008 11.8125 69.6008H239.973C246.497 69.6008 251.785 64.3309 251.785 57.8302V11.7706C251.785 5.26987 246.497 0 239.973 0Z" fill="#480090"/>
<path d="M239.973 3.66602H11.8124C7.3203 3.66602 3.67871 7.29469 3.67871 11.7709V57.8305C3.67871 62.3067 7.3203 65.9354 11.8124 65.9354H239.973C244.465 65.9354 248.106 62.3067 248.106 57.8305V11.7709C248.106 7.29469 244.465 3.66602 239.973 3.66602Z" fill="#6B01A3"/>
<path d="M174.778 14.4975C174.778 14.6771 174.73 14.8347 174.638 14.974C174.542 15.1133 174.435 15.2196 174.314 15.3002C174.134 15.1793 173.935 15.0766 173.718 14.9923C173.501 14.908 173.251 14.864 172.971 14.864C172.603 14.864 172.291 14.941 172.033 15.095C171.776 15.2489 171.581 15.4689 171.448 15.7548C171.316 16.0444 171.246 16.389 171.246 16.7959C171.246 17.4227 171.408 17.8992 171.728 18.2255C172.048 18.5517 172.497 18.7167 173.067 18.7167C173.365 18.7167 173.615 18.6764 173.821 18.5994C174.027 18.5224 174.226 18.4308 174.413 18.3318C174.535 18.4234 174.63 18.5407 174.7 18.6837C174.77 18.8267 174.803 18.9916 174.803 19.1749C174.803 19.3399 174.759 19.4865 174.675 19.6221C174.586 19.7577 174.439 19.8714 174.229 19.963C174.101 20.0217 173.913 20.0767 173.678 20.1353C173.439 20.1903 173.148 20.2196 172.809 20.2196C172.158 20.2196 171.566 20.0987 171.036 19.8567C170.507 19.6148 170.084 19.2409 169.767 18.735C169.451 18.2291 169.296 17.584 169.296 16.7922C169.296 16.0517 169.447 15.4285 169.752 14.919C170.058 14.4095 170.466 14.0209 170.985 13.757C171.504 13.4894 172.07 13.3574 172.692 13.3574C173.133 13.3574 173.508 13.4087 173.821 13.5077C174.134 13.6067 174.369 13.7423 174.538 13.9146C174.704 14.0869 174.789 14.2812 174.789 14.5011L174.778 14.4975Z" fill="white"/>
<path d="M177.533 18.1596H175.69V13.068C175.771 13.046 175.885 13.024 176.032 13.0056C176.179 12.9837 176.341 12.9727 176.514 12.9727C176.874 12.9727 177.136 13.0313 177.294 13.1486C177.452 13.2659 177.533 13.4932 177.533 13.8268V18.1596ZM175.69 17.2102H177.533V20.0181C177.452 20.0401 177.338 20.0621 177.191 20.0805C177.044 20.1025 176.882 20.1135 176.709 20.1135C176.356 20.1135 176.095 20.0511 175.933 19.9302C175.771 19.8092 175.69 19.5856 175.69 19.2593V17.2102ZM180.873 17.837H179.03V16.8876C179.03 16.5944 178.957 16.3928 178.81 16.2755C178.662 16.1582 178.478 16.0995 178.261 16.0995C178.044 16.0995 177.853 16.1398 177.688 16.2168C177.522 16.2938 177.375 16.3818 177.253 16.4734V15.0108C177.419 14.9265 177.618 14.8495 177.849 14.7798C178.081 14.7139 178.335 14.6772 178.607 14.6772C179.317 14.6772 179.873 14.8532 180.274 15.2051C180.675 15.557 180.877 16.0812 180.877 16.7813V17.837H180.873ZM179.03 17.2102H180.873V20.0181C180.792 20.0401 180.678 20.0621 180.531 20.0805C180.384 20.1025 180.222 20.1135 180.049 20.1135C179.696 20.1135 179.435 20.0511 179.273 19.9302C179.111 19.8092 179.03 19.5856 179.03 19.2593V17.2102Z" fill="white"/>
<path d="M182.838 11.7849C183.121 11.7849 183.393 11.8289 183.658 11.9169C183.923 12.0049 184.14 12.1442 184.309 12.3274C184.479 12.5144 184.563 12.7527 184.563 13.0423C184.563 13.4125 184.445 13.6838 184.206 13.8524C183.967 14.0247 183.695 14.1163 183.393 14.131V14.4206C183.356 14.4426 183.287 14.4645 183.184 14.4902C183.077 14.5159 182.959 14.5269 182.819 14.5269C182.573 14.5269 182.404 14.5012 182.315 14.4536C182.223 14.4022 182.179 14.3362 182.179 14.2519V13.845C182.179 13.6618 182.223 13.5371 182.315 13.4785C182.407 13.4198 182.514 13.3868 182.635 13.3868H182.819C183.088 13.3868 183.22 13.2879 183.22 13.0862C183.22 12.9873 183.173 12.9066 183.081 12.848C182.985 12.7893 182.838 12.7563 182.635 12.7563C182.47 12.7563 182.315 12.7783 182.168 12.8186C182.025 12.8626 181.907 12.8993 181.822 12.9359C181.742 12.881 181.679 12.8076 181.631 12.7233C181.583 12.639 181.561 12.5437 181.561 12.4447C181.561 12.2175 181.686 12.0488 181.94 11.9425C182.194 11.8362 182.492 11.7812 182.841 11.7812L182.838 11.7849ZM183.901 17.7747H182.058V14.9154C182.139 14.8934 182.253 14.8714 182.4 14.8531C182.547 14.8348 182.709 14.8201 182.882 14.8201C183.242 14.8201 183.504 14.8788 183.662 14.9961C183.82 15.1134 183.901 15.3407 183.901 15.6742V17.7783V17.7747ZM182.054 17.2835H183.897V20.0144C183.816 20.0364 183.702 20.0584 183.555 20.0767C183.408 20.0987 183.246 20.1097 183.073 20.1097C182.72 20.1097 182.459 20.0474 182.297 19.9265C182.135 19.8055 182.054 19.5819 182.054 19.2556V17.2798V17.2835Z" fill="white"/>
<path d="M190.214 16.1103C189.853 16.1103 189.54 16.2239 189.276 16.4512C189.011 16.6785 188.878 17.0121 188.878 17.4556C188.878 17.8992 189.003 18.2254 189.257 18.438C189.511 18.6506 189.824 18.7569 190.203 18.7569C190.42 18.7569 190.615 18.7313 190.784 18.6763C190.953 18.6213 191.097 18.5663 191.211 18.5113C191.347 18.6103 191.45 18.7166 191.52 18.8302C191.59 18.9439 191.623 19.0832 191.623 19.2481C191.623 19.5341 191.479 19.7613 191.196 19.93C190.909 20.1022 190.504 20.1866 189.975 20.1866C189.375 20.1866 188.853 20.0839 188.407 19.8786C187.962 19.6734 187.62 19.3654 187.377 18.9549C187.135 18.5443 187.013 18.0458 187.013 17.4556C187.013 16.8288 187.146 16.3119 187.414 15.9013C187.683 15.4908 188.036 15.1865 188.477 14.9849C188.919 14.7833 189.401 14.6807 189.919 14.6807C190.438 14.6807 190.832 14.7723 191.119 14.9593C191.406 15.1462 191.545 15.3808 191.545 15.6741C191.545 15.8097 191.512 15.9343 191.446 16.0516C191.38 16.1689 191.306 16.2716 191.218 16.3559C191.097 16.3009 190.946 16.2423 190.773 16.1909C190.6 16.1396 190.412 16.1103 190.21 16.1103H190.214Z" fill="white"/>
<path d="M197.84 17.4342C197.84 18.0024 197.722 18.4936 197.487 18.9078C197.251 19.3221 196.924 19.6373 196.501 19.8646C196.078 20.0919 195.577 20.2018 195 20.2018C194.422 20.2018 193.929 20.0919 193.503 19.8719C193.076 19.652 192.745 19.3331 192.509 18.9225C192.274 18.5083 192.156 18.0171 192.156 17.4379C192.156 16.8587 192.274 16.3895 192.513 15.9753C192.752 15.5611 193.083 15.2458 193.51 15.0185C193.937 14.7949 194.433 14.6813 194.996 14.6813C195.559 14.6813 196.063 14.7949 196.486 15.0222C196.909 15.2495 197.24 15.5684 197.479 15.9826C197.718 16.3968 197.836 16.8807 197.836 17.4342H197.84ZM194.617 14.0911L193.554 13.1307C193.547 13.1014 193.543 13.061 193.539 13.0097C193.536 12.9584 193.536 12.9144 193.536 12.8888C193.536 12.6248 193.613 12.4195 193.764 12.2766C193.915 12.13 194.102 12.0566 194.327 12.0566C194.47 12.0566 194.61 12.086 194.746 12.141C194.878 12.1996 195.007 12.3022 195.132 12.4489L196.096 13.6329C196.067 13.8822 195.975 14.0654 195.82 14.1864C195.666 14.3074 195.5 14.3697 195.327 14.3697C195.176 14.3697 195.048 14.3477 194.941 14.3001C194.834 14.2524 194.731 14.1828 194.621 14.0911H194.617ZM194.996 16.0999C194.698 16.0999 194.466 16.2172 194.297 16.4482C194.128 16.6791 194.043 17.009 194.043 17.4342C194.043 17.8595 194.128 18.2114 194.294 18.4386C194.459 18.6659 194.694 18.7795 195 18.7795C195.305 18.7795 195.537 18.6622 195.706 18.4313C195.872 18.2004 195.956 17.8668 195.956 17.4342C195.956 17.0017 195.872 16.6864 195.702 16.4518C195.533 16.2172 195.298 16.0999 195.003 16.0999H194.996Z" fill="white"/>
<path d="M203.924 16.6863V17.6687H202.081V16.7413C202.081 16.5213 202.015 16.36 201.879 16.2574C201.746 16.1548 201.57 16.1034 201.353 16.1034C201.209 16.1034 201.073 16.1218 200.944 16.1584C200.819 16.1951 200.698 16.2391 200.58 16.2977V17.676H198.737V16.0521C198.737 15.8615 198.778 15.7039 198.862 15.5829C198.947 15.4619 199.061 15.352 199.204 15.253C199.451 15.0807 199.76 14.9451 200.139 14.8424C200.514 14.7398 200.926 14.6885 201.375 14.6885C202.192 14.6885 202.821 14.8644 203.262 15.2163C203.704 15.5682 203.924 16.0631 203.924 16.6936V16.6863ZM198.737 17.2105H200.58V20.0184C200.499 20.0404 200.385 20.0624 200.238 20.0807C200.091 20.1027 199.929 20.1137 199.756 20.1137C199.403 20.1137 199.142 20.0514 198.98 19.9304C198.818 19.8095 198.737 19.5859 198.737 19.2596V17.2105ZM202.081 17.2105H203.924V20.0184C203.843 20.0404 203.729 20.0624 203.582 20.0807C203.435 20.1027 203.273 20.1137 203.1 20.1137C202.747 20.1137 202.486 20.0514 202.324 19.9304C202.162 19.8095 202.081 19.5859 202.081 19.2596V17.2105Z" fill="white"/>
<path d="M125.891 6.965C126.573 6.965 127.127 6.37253 127.127 5.64168C127.127 4.91083 126.573 4.31836 125.891 4.31836C125.208 4.31836 124.655 4.91083 124.655 5.64168C124.655 6.37253 125.208 6.965 125.891 6.965Z" fill="#480090"/>
<path d="M125.891 10.5539C126.573 10.5539 127.127 9.9614 127.127 9.23055C127.127 8.4997 126.573 7.90723 125.891 7.90723C125.208 7.90723 124.655 8.4997 124.655 9.23055C124.655 9.9614 125.208 10.5539 125.891 10.5539Z" fill="#480090"/>
<path d="M125.891 14.1427C126.573 14.1427 127.127 13.5503 127.127 12.8194C127.127 12.0886 126.573 11.4961 125.891 11.4961C125.208 11.4961 124.655 12.0886 124.655 12.8194C124.655 13.5503 125.208 14.1427 125.891 14.1427Z" fill="#480090"/>
<path d="M125.891 17.7277C126.573 17.7277 127.127 17.1352 127.127 16.4044C127.127 15.6735 126.573 15.0811 125.891 15.0811C125.208 15.0811 124.655 15.6735 124.655 16.4044C124.655 17.1352 125.208 17.7277 125.891 17.7277Z" fill="#480090"/>
<path d="M125.891 21.3166C126.573 21.3166 127.127 20.7241 127.127 19.9932C127.127 19.2624 126.573 18.6699 125.891 18.6699C125.208 18.6699 124.655 19.2624 124.655 19.9932C124.655 20.7241 125.208 21.3166 125.891 21.3166Z" fill="#480090"/>
<path d="M125.891 24.9054C126.573 24.9054 127.127 24.313 127.127 23.5821C127.127 22.8513 126.573 22.2588 125.891 22.2588C125.208 22.2588 124.655 22.8513 124.655 23.5821C124.655 24.313 125.208 24.9054 125.891 24.9054Z" fill="#480090"/>
<path d="M125.891 28.4933C126.573 28.4933 127.127 27.9008 127.127 27.17C127.127 26.4392 126.573 25.8467 125.891 25.8467C125.208 25.8467 124.655 26.4392 124.655 27.17C124.655 27.9008 125.208 28.4933 125.891 28.4933Z" fill="#480090"/>
<path d="M125.891 32.0822C126.573 32.0822 127.127 31.4897 127.127 30.7589C127.127 30.028 126.573 29.4355 125.891 29.4355C125.208 29.4355 124.655 30.028 124.655 30.7589C124.655 31.4897 125.208 32.0822 125.891 32.0822Z" fill="#480090"/>
<path d="M125.891 35.6711C126.573 35.6711 127.127 35.0786 127.127 34.3477C127.127 33.6169 126.573 33.0244 125.891 33.0244C125.208 33.0244 124.655 33.6169 124.655 34.3477C124.655 35.0786 125.208 35.6711 125.891 35.6711Z" fill="#480090"/>
<path d="M125.891 39.256C126.573 39.256 127.127 38.6635 127.127 37.9327C127.127 37.2018 126.573 36.6094 125.891 36.6094C125.208 36.6094 124.655 37.2018 124.655 37.9327C124.655 38.6635 125.208 39.256 125.891 39.256Z" fill="#480090"/>
<path d="M125.891 42.8449C126.573 42.8449 127.127 42.2524 127.127 41.5216C127.127 40.7907 126.573 40.1982 125.891 40.1982C125.208 40.1982 124.655 40.7907 124.655 41.5216C124.655 42.2524 125.208 42.8449 125.891 42.8449Z" fill="#480090"/>
<path d="M125.891 46.4338C126.573 46.4338 127.127 45.8413 127.127 45.1104C127.127 44.3796 126.573 43.7871 125.891 43.7871C125.208 43.7871 124.655 44.3796 124.655 45.1104C124.655 45.8413 125.208 46.4338 125.891 46.4338Z" fill="#480090"/>
<path d="M125.891 50.0226C126.573 50.0226 127.127 49.4301 127.127 48.6993C127.127 47.9684 126.573 47.376 125.891 47.376C125.208 47.376 124.655 47.9684 124.655 48.6993C124.655 49.4301 125.208 50.0226 125.891 50.0226Z" fill="#480090"/>
<path d="M125.891 53.6115C126.573 53.6115 127.127 53.019 127.127 52.2882C127.127 51.5573 126.573 50.9648 125.891 50.9648C125.208 50.9648 124.655 51.5573 124.655 52.2882C124.655 53.019 125.208 53.6115 125.891 53.6115Z" fill="#480090"/>
<path d="M125.891 57.1994C126.573 57.1994 127.127 56.6069 127.127 55.876C127.127 55.1452 126.573 54.5527 125.891 54.5527C125.208 54.5527 124.655 55.1452 124.655 55.876C124.655 56.6069 125.208 57.1994 125.891 57.1994Z" fill="#480090"/>
<path d="M125.891 60.7853C126.573 60.7853 127.127 60.1928 127.127 59.462C127.127 58.7311 126.573 58.1387 125.891 58.1387C125.208 58.1387 124.655 58.7311 124.655 59.462C124.655 60.1928 125.208 60.7853 125.891 60.7853Z" fill="#480090"/>
<path d="M125.891 64.3732C126.573 64.3732 127.127 63.7807 127.127 63.0499C127.127 62.319 126.573 61.7266 125.891 61.7266C125.208 61.7266 124.655 62.319 124.655 63.0499C124.655 63.7807 125.208 64.3732 125.891 64.3732Z" fill="#480090"/>
<path d="M31.1956 26.2164H26.7811V16.3594C26.9835 16.3264 27.2814 16.2824 27.6751 16.2237C28.0687 16.1651 28.4513 16.1357 28.8228 16.1357C29.6653 16.1357 30.2686 16.275 30.6401 16.5573C31.0117 16.8396 31.1956 17.3857 31.1956 18.1959V26.2164ZM26.7811 20.4796H31.1956V31.3044L29.1282 31.528C28.4035 31.528 27.8333 31.3228 27.4139 30.9085C26.9945 30.4943 26.7848 29.9335 26.7848 29.2186V20.4796H26.7811ZM29.1245 31.528V28.0273H36.9713C37.089 28.2106 37.1994 28.4488 37.2987 28.7458C37.398 29.0427 37.4495 29.3653 37.4495 29.7135C37.4495 30.3257 37.3134 30.7802 37.0449 31.0808C36.7763 31.3778 36.4048 31.528 35.9339 31.528H29.1208H29.1245Z" fill="white"/>
<path d="M44.4392 19.0173C46.2712 19.0173 47.7391 19.3875 48.8427 20.1207C49.9427 20.8575 50.4945 22.0048 50.4945 23.5591V29.12C50.4945 29.5489 50.3731 29.9008 50.1303 30.1757C49.8875 30.447 49.5969 30.6852 49.2584 30.8832C48.7213 31.1984 48.0628 31.4367 47.2903 31.6017C46.5177 31.7666 45.6348 31.8509 44.6416 31.8509C42.8757 31.8509 41.4594 31.5173 40.3889 30.8465C39.3221 30.1757 38.785 29.164 38.785 27.804C38.785 26.6603 39.1345 25.7842 39.8334 25.172C40.5324 24.5598 41.5956 24.1786 43.0266 24.0283L46.3301 23.6801V23.5078C46.3301 23.0276 46.1167 22.683 45.6863 22.4777C45.2559 22.2724 44.6379 22.1661 43.8322 22.1661C43.2105 22.1661 42.5925 22.2321 41.9781 22.3641C41.3638 22.496 40.812 22.661 40.3264 22.8589C40.1093 22.7087 39.9217 22.4814 39.7709 22.1771C39.62 21.8729 39.5428 21.554 39.5428 21.2204C39.5428 20.4249 39.9732 19.8641 40.8304 19.5305C41.3196 19.3472 41.8935 19.2152 42.5594 19.1346C43.2252 19.0503 43.8506 19.01 44.4392 19.01V19.0173ZM45.9034 17.1294L44.8954 15.9124C44.4576 16.3926 44.1008 16.7849 43.8249 17.0928C43.549 17.4007 43.2216 17.7673 42.8537 18.1962C42.1989 18.1962 41.6765 18.0459 41.2902 17.749C40.9039 17.452 40.709 17.0708 40.709 16.6053C40.709 16.2753 40.8009 15.9894 40.9849 15.7475C41.1688 15.5092 41.4484 15.205 41.8163 14.842L42.6734 13.9989C42.9935 13.6837 43.3319 13.4308 43.6961 13.2401C44.0566 13.0495 44.4834 12.9542 44.969 12.9542C45.4067 12.9542 45.8151 13.0385 46.194 13.2035C46.5729 13.3684 46.996 13.7423 47.4669 14.3215L49.2584 16.4806C49.2584 16.9425 49.1186 17.3384 48.8427 17.661C48.5668 17.9836 48.1401 18.1449 47.5699 18.1449C47.2498 18.1449 46.9592 18.0532 46.698 17.8699C46.4368 17.6866 46.1719 17.441 45.9034 17.1258V17.1294ZM44.6416 28.7717C44.9285 28.7717 45.2412 28.7424 45.587 28.6838C45.9328 28.6251 46.1866 28.5481 46.3559 28.4492V26.4623L44.5386 26.6126C44.0677 26.6456 43.6814 26.7446 43.3761 26.9096C43.0744 27.0745 42.9236 27.3238 42.9236 27.6537C42.9236 27.9836 43.0523 28.2549 43.3135 28.4601C43.5747 28.6691 44.0162 28.7717 44.6379 28.7717H44.6416ZM49.4129 8.86328C50.2701 8.86328 50.9874 9.07956 51.5576 9.50845C52.1278 9.93733 52.4148 10.5495 52.4148 11.345C52.4148 11.9571 52.2125 12.4263 51.8078 12.7489C51.4031 13.0715 50.9653 13.2511 50.4945 13.2841V14.0796C50.3767 14.1309 50.2333 14.1712 50.0641 14.2042C49.8948 14.2372 49.6925 14.2555 49.4571 14.2555C49.0708 14.2555 48.7765 14.2115 48.5741 14.1199C48.3718 14.0283 48.2725 13.8596 48.2725 13.6104V12.5913C48.2725 12.342 48.3314 12.1661 48.4491 12.0561C48.5668 11.9498 48.736 11.8948 48.9531 11.8948H49.0781C49.6483 11.8948 49.9353 11.7042 49.9353 11.323C49.9353 11.1397 49.8544 10.9967 49.6962 10.8868C49.5343 10.7804 49.3136 10.7255 49.0266 10.7255C48.7581 10.7255 48.4969 10.7658 48.2431 10.8501C47.9892 10.9344 47.7795 11.0151 47.614 11.0994C47.2939 10.8684 47.1358 10.5532 47.1358 10.1573C47.1358 9.76138 47.3455 9.42413 47.7648 9.20053C48.1842 8.97692 48.7323 8.86695 49.4055 8.86695L49.4129 8.86328Z" fill="white"/>
<path d="M57.4104 26.0917H53.121V19.4385C53.3049 19.3871 53.5698 19.3395 53.9156 19.2882C54.2614 19.2368 54.6329 19.2148 55.0376 19.2148C55.88 19.2148 56.4833 19.3505 56.8549 19.6254C57.2265 19.9003 57.4104 20.4245 57.4104 21.2017V26.0917ZM53.121 26.6636V25.025H57.4104V26.6636C57.4104 27.3271 57.5833 27.8073 57.9291 28.1042C58.2749 28.4011 58.7568 28.5514 59.3785 28.5514C59.7648 28.5514 60.0849 28.5184 60.3387 28.4524C60.5925 28.3864 60.7765 28.3205 60.8942 28.2545V25.0287H65.1836V28.8776C65.1836 29.2919 65.0953 29.6511 64.9187 29.959C64.7422 30.267 64.4773 30.5272 64.1241 30.7398C63.5355 31.1027 62.8329 31.3813 62.0162 31.5719C61.1995 31.7626 60.3129 31.8579 59.3528 31.8579C58.1425 31.8579 57.0646 31.6782 56.1228 31.3227C55.1811 30.9671 54.4453 30.4099 53.9156 29.6474C53.3858 28.885 53.121 27.8916 53.121 26.6672V26.6636ZM65.1799 26.0917H60.8905V19.4385C61.0744 19.3871 61.3393 19.3395 61.6851 19.2882C62.0309 19.2368 62.4025 19.2148 62.8071 19.2148C63.6496 19.2148 64.2529 19.3505 64.6244 19.6254C64.996 19.9003 65.1799 20.4245 65.1799 21.2017V26.0917Z" fill="white"/>
<path d="M87.0282 23.9326V29.0463C87.0282 29.5595 86.9362 29.9407 86.7523 30.19C86.5683 30.4393 86.274 30.6775 85.8693 30.9085C85.3985 31.1724 84.7142 31.4034 83.8129 31.605C82.9116 31.8029 82.0177 31.9019 81.1274 31.9019C79.5125 31.9019 78.0446 31.627 76.724 31.0844C75.4033 30.5383 74.3548 29.6768 73.5823 28.5038C72.8098 27.3271 72.4198 25.8132 72.4198 23.962C72.4198 22.2244 72.8097 20.7581 73.5933 19.5668C74.3769 18.3754 75.4253 17.4737 76.746 16.8615C78.0667 16.2493 79.5419 15.9414 81.1752 15.9414C82.2347 15.9414 83.1544 16.0514 83.938 16.275C84.7216 16.4986 85.3212 16.8138 85.7406 17.2171C86.16 17.624 86.3697 18.0968 86.3697 18.643C86.3697 19.0573 86.2593 19.4238 86.0423 19.7464C85.8252 20.069 85.5714 20.3219 85.2844 20.5052C84.8651 20.2559 84.3353 20.0177 83.6952 19.7867C83.0551 19.5558 82.323 19.4385 81.499 19.4385C80.6087 19.4385 79.8178 19.6254 79.1262 19.9957C78.4346 20.3696 77.9011 20.8901 77.5222 21.5609C77.1433 22.2318 76.9557 23.0236 76.9557 23.9326C76.9557 24.9261 77.136 25.7582 77.4965 26.429C77.857 27.0998 78.3573 27.5984 78.9974 27.9319C79.6375 28.2618 80.3696 28.4268 81.1937 28.4268C81.5652 28.4268 81.8889 28.3901 82.1648 28.3168C82.4407 28.2435 82.6578 28.1739 82.8086 28.1042V25.7215H80.1084C80.0091 25.5382 79.9097 25.3 79.8178 25.003C79.7258 24.7061 79.678 24.3909 79.678 24.0609C79.678 23.4634 79.8178 23.0345 80.0937 22.7706C80.3696 22.5067 80.7301 22.3747 81.1642 22.3747H85.4279C85.9319 22.3747 86.3218 22.5104 86.6014 22.7853C86.8773 23.0565 87.0171 23.4414 87.0171 23.94L87.0282 23.9326Z" fill="white"/>
<path d="M94.7757 19.017C96.6077 19.017 98.0755 19.3872 99.1792 20.1204C100.279 20.8572 100.831 22.0045 100.831 23.5588V29.1197C100.831 29.5486 100.71 29.9005 100.467 30.1754C100.224 30.4467 99.9333 30.6849 99.5949 30.8829C99.0578 31.1981 98.3993 31.4364 97.6267 31.6014C96.8542 31.7663 95.9713 31.8506 94.978 31.8506C93.2122 31.8506 91.7959 31.517 90.7254 30.8462C89.6586 30.1754 89.1215 29.1637 89.1215 27.8037C89.1215 26.66 89.4709 25.7839 90.1699 25.1717C90.8689 24.5595 91.932 24.1783 93.3631 24.028L96.6666 23.6798V23.5075C96.6666 23.0273 96.4532 22.6827 96.0228 22.4774C95.5924 22.2721 94.9744 22.1658 94.1687 22.1658C93.547 22.1658 92.929 22.2318 92.3146 22.3638C91.7003 22.4957 91.1485 22.6607 90.6629 22.8586C90.4458 22.7084 90.2582 22.4811 90.1074 22.1768C89.9565 21.8726 89.8793 21.5537 89.8793 21.2201C89.8793 20.4246 90.3097 19.8638 91.1668 19.5302C91.6561 19.3469 92.23 19.2149 92.8959 19.1343C93.5617 19.05 94.1871 19.0097 94.7757 19.0097V19.017ZM93.742 17.6497L91.2698 15.4136C91.2514 15.3476 91.2404 15.2523 91.2331 15.1277C91.2257 15.003 91.222 14.9077 91.222 14.8417C91.222 14.2296 91.3986 13.753 91.7518 13.4158C92.1049 13.0749 92.5427 12.9062 93.0651 12.9062C93.3998 12.9062 93.7236 12.9722 94.0363 13.1042C94.349 13.2362 94.6469 13.4781 94.9302 13.8227L97.1743 16.5793C97.108 17.1585 96.891 17.5874 96.5305 17.8696C96.17 18.1519 95.7874 18.2912 95.3827 18.2912C95.0296 18.2912 94.7316 18.2362 94.4888 18.1299C94.246 18.0236 93.9958 17.8623 93.7457 17.646L93.742 17.6497ZM94.978 28.7714C95.265 28.7714 95.5777 28.7421 95.9235 28.6835C96.2693 28.6248 96.5231 28.5478 96.6924 28.4488V26.462L94.875 26.6123C94.4042 26.6453 94.0179 26.7443 93.7125 26.9093C93.4109 27.0742 93.2601 27.3235 93.2601 27.6534C93.2601 27.9833 93.3888 28.2546 93.65 28.4598C93.9112 28.6688 94.3526 28.7714 94.9744 28.7714H94.978Z" fill="white"/>
<path d="M16.9405 51.0003H11.0619V42.0377C11.0619 41.6894 11.1612 41.4219 11.3635 41.2312C11.5659 41.0406 11.827 40.8867 12.1471 40.773C12.7173 40.5751 13.4016 40.4284 14.1925 40.3368C14.9834 40.2452 15.6897 40.2012 16.3115 40.2012C18.6144 40.2012 20.3875 40.6887 21.6236 41.6675C22.8596 42.6425 23.4777 43.9695 23.4777 45.6411C23.4777 46.7188 23.2091 47.6572 22.672 48.46C22.1349 49.2628 21.3771 49.886 20.4022 50.3332C19.4274 50.7804 18.2759 51.004 16.9442 51.004L16.9405 51.0003ZM11.0619 49.1125H15.4764V55.6411C15.2924 55.6924 15.0055 55.7401 14.6192 55.7914C14.2329 55.8427 13.8356 55.8647 13.4347 55.8647C12.5591 55.8647 11.9448 55.7108 11.5916 55.4065C11.2384 55.0986 11.0619 54.5671 11.0619 53.8046V49.1125ZM15.4506 47.5986H16.6609C17.3488 47.5986 17.908 47.4299 18.3384 47.089C18.7688 46.7518 18.9822 46.2643 18.9822 45.6374C18.9822 45.0106 18.7836 44.523 18.3899 44.1858C17.9963 43.8486 17.4187 43.6763 16.6609 43.6763C16.3924 43.6763 16.168 43.6799 15.9914 43.6873C15.8148 43.6946 15.6346 43.7166 15.4506 43.7496V47.5986Z" fill="white"/>
<path d="M29.7316 51.3234H25.4421V39.4795C25.626 39.4281 25.8909 39.3805 26.2367 39.3292C26.5825 39.2779 26.9541 39.2559 27.3587 39.2559C28.2012 39.2559 28.8045 39.3915 29.1761 39.6664C29.5476 39.9413 29.7316 40.4655 29.7316 41.2427V51.3234ZM25.4421 49.1129H29.7316V55.6416C29.5476 55.6929 29.2827 55.7405 28.9369 55.7919C28.5911 55.8432 28.2196 55.8652 27.8149 55.8652C26.9909 55.8652 26.3876 55.7259 26.0123 55.4436C25.6334 55.1614 25.4458 54.6408 25.4458 53.8784V49.1129H25.4421ZM37.5011 50.5792H33.2117V48.3688C33.2117 47.6907 33.0388 47.2141 32.6929 46.9428C32.3471 46.6716 31.9241 46.5323 31.4201 46.5323C30.9161 46.5323 30.471 46.6239 30.0847 46.8072C29.6985 46.9905 29.36 47.1885 29.0767 47.4047V44.003C29.463 43.805 29.9265 43.6254 30.4636 43.4678C31.0007 43.3101 31.5893 43.2332 32.2294 43.2332C33.8775 43.2332 35.1688 43.6437 36.1032 44.4612C37.0376 45.2786 37.5048 46.503 37.5048 48.1232V50.5792H37.5011ZM33.2117 49.1129H37.5011V55.6416C37.3172 55.6929 37.0523 55.7405 36.7065 55.7919C36.3607 55.8432 35.9891 55.8652 35.5844 55.8652C34.7604 55.8652 34.1571 55.7259 33.7819 55.4436C33.403 55.1614 33.2153 54.6408 33.2153 53.8784V49.1129H33.2117Z" fill="white"/>
<path d="M45.1971 43.229C47.0291 43.229 48.497 43.5992 49.6006 44.3324C50.7005 45.0692 51.2523 46.2166 51.2523 47.7708V53.3317C51.2523 53.7606 51.1309 54.1125 50.8881 54.3874C50.6453 54.6587 50.3547 54.897 50.0163 55.0949C49.4792 55.4102 48.8207 55.6484 48.0481 55.8134C47.2756 55.9783 46.3927 56.0627 45.3994 56.0627C43.6336 56.0627 42.2173 55.7291 41.1468 55.0582C40.0799 54.3874 39.5428 53.3757 39.5428 52.0157C39.5428 50.872 39.8923 49.9959 40.5913 49.3837C41.2903 48.7716 42.3534 48.3903 43.7845 48.24L47.088 47.8918V47.7195C47.088 47.2393 46.8746 46.8947 46.4442 46.6894C46.0138 46.4842 45.3958 46.3779 44.5901 46.3779C43.9684 46.3779 43.3504 46.4438 42.736 46.5758C42.1217 46.7078 41.5698 46.8727 41.0842 47.0707C40.8672 46.9204 40.6796 46.6931 40.5288 46.3889C40.3779 46.0846 40.3007 45.7657 40.3007 45.4321C40.3007 44.6366 40.7311 44.0758 41.5882 43.7422C42.0775 43.5589 42.6514 43.427 43.3173 43.3463C43.9831 43.262 44.6085 43.2217 45.1971 43.2217V43.229ZM45.3994 52.9871C45.6864 52.9871 45.9991 52.9578 46.3449 52.8991C46.6907 52.8405 46.9445 52.7635 47.1137 52.6645V50.6777L45.2964 50.828C44.8255 50.861 44.4393 50.96 44.1339 51.1249C43.8323 51.2899 43.6814 51.5392 43.6814 51.8691C43.6814 52.199 43.8102 52.4703 44.0714 52.6755C44.3326 52.8845 44.7741 52.9871 45.3958 52.9871H45.3994Z" fill="white"/>
<path d="M65.938 47.8991V50.1828H61.6486V48.0237C61.6486 47.5105 61.4941 47.133 61.1814 46.8947C60.8687 46.6564 60.464 46.5355 59.9563 46.5355C59.6179 46.5355 59.3052 46.5758 59.0109 46.6601C58.7166 46.7444 58.4333 46.8507 58.1648 46.9827V50.1865H53.8754V46.4145C53.8754 45.9673 53.971 45.6044 54.166 45.3221C54.361 45.0399 54.6258 44.7833 54.9606 44.5523C55.5308 44.1564 56.2555 43.8375 57.1311 43.5956C58.0066 43.3573 58.9631 43.2363 60.0079 43.2363C61.9098 43.2363 63.3702 43.6469 64.3966 44.4643C65.423 45.2818 65.9343 46.4292 65.9343 47.9028L65.938 47.8991ZM53.8754 49.1125H58.1648V55.6411C57.9809 55.6924 57.716 55.7401 57.3702 55.7914C57.0244 55.8427 56.6528 55.8647 56.2482 55.8647C55.4241 55.8647 54.8208 55.7254 54.4456 55.4431C54.0667 55.1609 53.879 54.6403 53.879 53.8779V49.1125H53.8754ZM61.6486 49.1125H65.938V55.6411C65.7541 55.6924 65.4892 55.7401 65.1434 55.7914C64.7976 55.8427 64.4261 55.8647 64.0214 55.8647C63.1973 55.8647 62.594 55.7254 62.2188 55.4431C61.8399 55.1609 61.6523 54.6403 61.6523 53.8779V49.1125H61.6486Z" fill="white"/>
<path d="M78.3758 50.4284H73.9613V40.5713C74.1636 40.5383 74.4616 40.4943 74.8552 40.4356C75.2489 40.377 75.6315 40.3477 76.003 40.3477C76.8454 40.3477 77.4488 40.487 77.8203 40.7692C78.1919 41.0515 78.3758 41.5977 78.3758 42.4078V50.4284ZM73.9613 44.6952H78.3758V55.52L76.3084 55.7436C75.5836 55.7436 75.0134 55.5383 74.5941 55.1241C74.1747 54.7099 73.965 54.149 73.965 53.4342V44.6952H73.9613ZM76.3084 55.7436V52.2429H84.1552C84.2729 52.4262 84.3832 52.6644 84.4826 52.9614C84.5819 53.2583 84.6334 53.5809 84.6334 53.9291C84.6334 54.5413 84.4973 54.9958 84.2287 55.2964C83.9602 55.5933 83.5886 55.7436 83.1177 55.7436H76.3047H76.3084Z" fill="white"/>
<path d="M91.6229 43.229C93.4549 43.229 94.9227 43.5992 96.0264 44.3324C97.1263 45.0692 97.6781 46.2166 97.6781 47.7708V53.3317C97.6781 53.7606 97.5567 54.1125 97.3139 54.3874C97.0711 54.6587 96.7805 54.897 96.442 55.0949C95.9049 55.4102 95.2465 55.6484 94.4739 55.8134C93.7014 55.9783 92.8185 56.0627 91.8252 56.0627C90.0594 56.0627 88.6431 55.7291 87.5726 55.0582C86.5057 54.3874 85.9686 53.3757 85.9686 52.0157C85.9686 50.872 86.3181 49.9959 87.0171 49.3837C87.716 48.7716 88.7792 48.3903 90.2102 48.24L93.5138 47.8918V47.7195C93.5138 47.2393 93.3004 46.8947 92.87 46.6894C92.4396 46.4842 91.8215 46.3779 91.0159 46.3779C90.3942 46.3779 89.7761 46.4438 89.1618 46.5758C88.5474 46.7078 87.9956 46.8727 87.51 47.0707C87.293 46.9204 87.1054 46.6931 86.9545 46.3889C86.8037 46.0846 86.7265 45.7657 86.7265 45.4321C86.7265 44.6366 87.1569 44.0758 88.014 43.7422C88.5033 43.5589 89.0772 43.427 89.743 43.3463C90.4089 43.262 91.0343 43.2217 91.6229 43.2217V43.229ZM91.8252 52.9871C92.1121 52.9871 92.4248 52.9578 92.7706 52.8991C93.1165 52.8405 93.3703 52.7635 93.5395 52.6645V50.6777L91.7222 50.828C91.2513 50.861 90.865 50.96 90.5597 51.1249C90.2581 51.2899 90.1072 51.5392 90.1072 51.8691C90.1072 52.199 90.236 52.4703 90.4972 52.6755C90.7584 52.8845 91.1998 52.9871 91.8215 52.9871H91.8252ZM90.7878 39.7063L93.3372 37.001C94.2127 37.001 94.8675 37.1843 95.3053 37.5472C95.7431 37.9101 95.9601 38.3243 95.9601 38.7898C95.9601 39.1711 95.8755 39.49 95.7063 39.7466C95.5371 40.0032 95.2538 40.2964 94.8492 40.6264L92.4506 42.5619C91.7112 42.5619 91.152 42.3896 90.7731 42.0413C90.3942 41.6931 90.2066 41.3228 90.2066 40.9233C90.2066 40.7253 90.2434 40.5347 90.3206 40.3514C90.3979 40.1681 90.5524 39.9555 90.7878 39.7063Z" fill="white"/>
<path d="M109.965 51.671H105.676V42.9319C105.676 42.2208 105.885 41.6563 106.305 41.2421C106.724 40.8278 107.298 40.6225 108.019 40.6225C108.424 40.6225 108.803 40.6482 109.156 40.6959C109.509 40.7472 109.777 40.7948 109.961 40.8462V51.671H109.965ZM105.676 44.6951H109.965V55.52C109.781 55.5713 109.513 55.619 109.159 55.6703C108.806 55.7216 108.427 55.7436 108.023 55.7436C107.298 55.7436 106.728 55.5383 106.308 55.1241C105.889 54.7099 105.679 54.149 105.679 53.4342V44.6951H105.676ZM108.023 44.0243V40.6225H116.348C116.465 40.8058 116.572 41.0368 116.664 41.319C116.756 41.6013 116.804 41.9165 116.804 42.2611C116.804 42.8733 116.668 43.3205 116.399 43.6028C116.131 43.885 115.759 44.0243 115.288 44.0243H108.023ZM108.023 49.7098V46.3337H115.641C115.759 46.517 115.866 46.7479 115.958 47.0302C116.05 47.3125 116.098 47.6277 116.098 47.9723C116.098 48.5845 115.961 49.028 115.693 49.2993C115.424 49.5742 115.053 49.7098 114.582 49.7098H108.023ZM108.023 55.7436V52.3162H116.451C116.568 52.4994 116.675 52.7377 116.767 53.0346C116.859 53.3316 116.907 53.6541 116.907 54.0024C116.907 54.6146 116.771 55.0581 116.502 55.3294C116.234 55.6043 115.862 55.7399 115.391 55.7399H108.023V55.7436ZM110.568 36.8982L113.497 34.6621C114.203 34.6621 114.755 34.8307 115.148 35.1716C115.542 35.5126 115.741 35.9304 115.741 36.4253C115.741 36.7406 115.66 37.0338 115.502 37.3051C115.34 37.5763 115.027 37.8549 114.556 38.1372L112.033 39.5778C111.359 39.5778 110.852 39.4275 110.506 39.1306C110.16 38.8337 109.987 38.4854 109.987 38.0895C109.987 37.8916 110.017 37.6973 110.075 37.5067C110.134 37.3161 110.3 37.1145 110.568 36.8982Z" fill="white"/>
<path d="M133.995 30.4916C133.995 29.2782 134.392 28.2848 135.183 27.504C135.974 26.7232 137.085 26.1367 138.509 25.7372C139.936 25.3413 141.614 25.1396 143.552 25.1396C146.334 25.1396 148.655 25.5649 150.52 26.4116C152.385 27.2621 153.794 28.4131 154.743 29.8647C155.692 31.32 156.167 32.9659 156.167 34.7988C156.167 36.6316 155.648 38.4095 154.611 40.1251C153.573 41.8406 151.999 43.5268 149.887 45.1911L142.971 50.6456H155.641C155.851 50.9939 156.053 51.4704 156.248 52.0753C156.439 52.6801 156.539 53.3326 156.539 54.0217C156.539 55.2681 156.255 56.1589 155.692 56.6977C155.13 57.2366 154.39 57.5042 153.474 57.5042H135.154C134.378 56.9836 133.771 56.3091 133.333 55.477C132.891 54.6449 132.674 53.6955 132.674 52.6215C132.674 51.4448 132.928 50.4477 133.44 49.6339C133.951 48.8201 134.488 48.1713 135.051 47.6874L142.335 41.5583C144.163 40.0334 145.414 38.8054 146.083 37.8706C146.753 36.9359 147.088 36.0891 147.088 35.3266C147.088 34.3589 146.69 33.5964 145.9 33.0392C145.109 32.4857 144.009 32.2071 142.6 32.2071C141.191 32.2071 139.933 32.4234 138.825 32.856C137.718 33.2885 136.791 33.7467 136.055 34.2343C135.492 33.82 135.007 33.2995 134.602 32.6763C134.197 32.0532 133.995 31.3274 133.995 30.4952V30.4916Z" fill="url(#paint0_linear_15_568)"/>
<path d="M170.687 25.1396C174.701 25.1396 177.769 25.9644 179.899 27.6067C182.029 29.2526 183.092 31.4593 183.092 34.2306C183.092 35.3376 182.889 36.3347 182.485 37.2182C182.08 38.1016 181.536 38.8714 180.848 39.5312C180.16 40.191 179.395 40.7079 178.552 41.0891C179.538 41.4374 180.425 41.9286 181.219 42.5701C182.01 43.2116 182.654 44.0327 183.147 45.0371C183.64 46.0415 183.886 47.2878 183.886 48.7761C183.886 50.7519 183.324 52.4565 182.198 53.8935C181.072 55.3304 179.531 56.4301 177.577 57.1926C175.624 57.9551 173.361 58.3363 170.794 58.3363C168.366 58.3363 166.331 58.109 164.694 57.6618C163.057 57.2109 161.818 56.5804 160.971 55.7666C160.125 54.9528 159.706 54.0254 159.706 52.988C159.706 52.0533 159.934 51.2395 160.394 50.5467C160.85 49.8538 161.413 49.3333 162.082 48.9887C162.785 49.4396 163.727 49.9418 164.908 50.4953C166.085 51.0489 167.626 51.3275 169.528 51.3275C171.287 51.3275 172.607 51.0085 173.487 50.367C174.366 49.7255 174.807 48.9228 174.807 47.9513C174.807 46.9799 174.465 46.1845 173.777 45.6639C173.089 45.1434 171.905 44.8831 170.212 44.8831H165.25C165.003 44.5019 164.794 44.0364 164.617 43.4792C164.44 42.9257 164.352 42.2658 164.352 41.5034C164.352 40.7409 164.44 40.0151 164.617 39.4249C164.794 38.8347 165.003 38.3692 165.25 38.0209H170.212C171.515 38.0209 172.475 37.779 173.089 37.2951C173.704 36.8113 174.013 36.1001 174.013 35.1654C174.013 34.2306 173.608 33.5378 172.799 32.9843C171.989 32.4307 170.775 32.1521 169.157 32.1521C167.748 32.1521 166.49 32.3171 165.382 32.647C164.275 32.9769 163.366 33.3838 162.664 33.8677C162.101 33.4535 161.615 32.9403 161.211 32.3354C160.806 31.7306 160.604 31.0121 160.604 30.18C160.604 29.0033 161.016 28.0502 161.843 27.3244C162.671 26.5986 163.841 26.0524 165.353 25.6895C166.865 25.3266 168.642 25.1433 170.683 25.1433L170.687 25.1396Z" fill="url(#paint1_linear_15_568)"/>
<path d="M189.691 25.9209H208.063C208.663 26.3021 209.2 26.83 209.674 27.5045C210.149 28.179 210.388 29.0184 210.388 30.0228C210.388 30.5763 210.337 31.1409 210.23 31.7127C210.123 32.2846 209.947 32.8491 209.7 33.4026L198.719 57.8712C198.226 57.9042 197.759 57.9225 197.321 57.9225H196.081C194.496 57.9225 193.212 57.6183 192.226 57.0134C191.24 56.4086 190.747 55.3932 190.747 53.9746C190.747 53.2487 190.931 52.4606 191.303 51.6102C191.671 50.7634 192.138 49.748 192.701 48.5713L200.408 33.0397H187.473C187.263 32.6585 187.05 32.1563 186.84 31.5331C186.631 30.9099 186.524 30.2538 186.524 29.5573C186.524 28.2413 186.822 27.3065 187.422 26.753C188.021 26.1995 188.775 25.9209 189.691 25.9209Z" fill="url(#paint2_linear_15_568)"/>
<path d="M223.588 46.5436H214.35V25.9204C214.773 25.8507 215.399 25.7554 216.223 25.6345C217.05 25.5135 217.849 25.4512 218.625 25.4512C220.383 25.4512 221.653 25.7444 222.425 26.3346C223.198 26.9248 223.588 28.0685 223.588 29.762V46.54V46.5436ZM214.347 34.5421H223.584V57.4528C223.198 57.5554 222.598 57.6617 221.789 57.7644C220.979 57.867 220.152 57.922 219.305 57.922C217.473 57.922 216.19 57.6031 215.45 56.9616C214.711 56.3201 214.343 55.2057 214.343 53.6111V34.5458L214.347 34.5421ZM229.922 43.7394L217.834 44.6228L234.569 25.7151C236.964 25.7151 238.678 26.155 239.715 27.0384C240.753 27.9219 241.271 28.9703 241.271 30.1799C241.271 31.0817 241.043 31.9285 240.583 32.7239C240.127 33.5194 239.388 34.4212 238.365 35.4256L229.919 43.7357L229.922 43.7394ZM219.099 40.5685L229.871 39.8427C232.582 42.7863 235.036 45.4183 237.236 47.7387C239.436 50.0591 241.187 51.9139 242.489 53.2959C242.489 54.7842 241.978 55.9535 240.959 56.804C239.936 57.6507 238.759 58.076 237.42 58.076C235.978 58.076 234.797 57.7204 233.881 57.0092C232.965 56.2981 232.085 55.4586 231.239 54.4909L219.096 40.5685H219.099Z" fill="url(#paint3_linear_15_568)"/>
<path d="M251.701 40.6929C255.295 40.6929 258.208 37.7896 258.208 34.2083C258.208 30.6269 255.295 27.7236 251.701 27.7236C248.107 27.7236 245.193 30.6269 245.193 34.2083C245.193 37.7896 248.107 40.6929 251.701 40.6929Z" fill="white"/>
<defs>
<linearGradient id="paint0_linear_15_568" x1="132.674" y1="41.738" x2="242.489" y2="41.738" gradientUnits="userSpaceOnUse">
<stop stop-color="#ECFFB6"/>
<stop offset="1" stop-color="#FF7800"/>
</linearGradient>
<linearGradient id="paint1_linear_15_568" x1="132.674" y1="41.738" x2="242.489" y2="41.738" gradientUnits="userSpaceOnUse">
<stop stop-color="#ECFFB6"/>
<stop offset="1" stop-color="#FF7800"/>
</linearGradient>
<linearGradient id="paint2_linear_15_568" x1="132.674" y1="41.7384" x2="242.489" y2="41.7384" gradientUnits="userSpaceOnUse">
<stop stop-color="#ECFFB6"/>
<stop offset="1" stop-color="#FF7800"/>
</linearGradient>
<linearGradient id="paint3_linear_15_568" x1="132.674" y1="41.7379" x2="242.489" y2="41.7379" gradientUnits="userSpaceOnUse">
<stop stop-color="#ECFFB6"/>
<stop offset="1" stop-color="#FF7800"/>
</linearGradient>
</defs>
</svg>
