<svg width="259" height="70" viewBox="0 0 259 70" fill="none" xmlns="http://www.w3.org/2000/svg">
<path d="M239.973 0H11.8125C5.28863 0 0 5.26987 0 11.7706V57.8302C0 64.3309 5.28863 69.6008 11.8125 69.6008H239.973C246.497 69.6008 251.785 64.3309 251.785 57.8302V11.7706C251.785 5.26987 246.497 0 239.973 0Z" fill="#480090"/>
<path d="M239.973 3.66602H11.8124C7.3203 3.66602 3.67871 7.29469 3.67871 11.7709V57.8305C3.67871 62.3067 7.3203 65.9354 11.8124 65.9354H239.973C244.465 65.9354 248.106 62.3067 248.106 57.8305V11.7709C248.106 7.29469 244.465 3.66602 239.973 3.66602Z" fill="#6B01A3"/>
<path d="M17.0306 20.073C17.0306 20.392 16.946 20.6742 16.7768 20.9235C16.6076 21.1728 16.4126 21.367 16.1956 21.5063C15.8718 21.2901 15.515 21.1068 15.1287 20.9528C14.7388 20.7989 14.2937 20.7219 13.7897 20.7219C13.1312 20.7219 12.5683 20.8575 12.1085 21.1324C11.6486 21.4074 11.2991 21.7996 11.06 22.3165C10.8209 22.8333 10.6995 23.4528 10.6995 24.1786C10.6995 25.3003 10.9865 26.1545 11.564 26.7373C12.1416 27.3238 12.9399 27.6171 13.9626 27.6171C14.4923 27.6171 14.9448 27.5474 15.3127 27.4081C15.6805 27.2688 16.0337 27.1075 16.3721 26.9316C16.5929 27.0965 16.7621 27.3092 16.8872 27.5621C17.0086 27.8187 17.0711 28.1083 17.0711 28.4419C17.0711 28.7351 16.9939 29.0027 16.8393 29.2446C16.6848 29.4866 16.42 29.6919 16.0447 29.8568C15.813 29.9595 15.4819 30.0621 15.0552 30.1611C14.6284 30.2637 14.1097 30.315 13.5027 30.315C12.3365 30.315 11.2807 30.0988 10.3279 29.6662C9.37514 29.2336 8.621 28.5665 8.05447 27.6611C7.49162 26.7556 7.20836 25.5973 7.20836 24.1823C7.20836 22.859 7.48058 21.7409 8.02503 20.8282C8.56949 19.9191 9.30158 19.2226 10.2286 18.7461C11.152 18.2695 12.1747 18.0312 13.2857 18.0312C14.0766 18.0312 14.7498 18.1192 15.3053 18.2988C15.8608 18.4785 16.2875 18.7204 16.5855 19.0247C16.8835 19.3289 17.0306 19.6808 17.0306 20.0767V20.073Z" fill="white"/>
<path d="M22.5046 20.3992C23.9136 20.3992 25.043 20.6815 25.8928 21.2497C26.7389 21.8179 27.1656 22.6976 27.1656 23.8963V28.1742C27.1656 28.5041 27.07 28.7754 26.8823 28.9843C26.6947 29.1933 26.4703 29.3766 26.2128 29.5305C25.7971 29.7725 25.2931 29.9557 24.6972 30.084C24.1012 30.2123 23.4206 30.2747 22.6591 30.2747C21.3017 30.2747 20.2091 30.0181 19.3887 29.5012C18.5684 28.9843 18.1563 28.2072 18.1563 27.1625C18.1563 26.2827 18.4249 25.6082 18.962 25.139C19.4991 24.6698 20.3194 24.3765 21.4194 24.2592L23.9614 23.9916V23.856C23.9614 23.4858 23.7959 23.2218 23.4648 23.0642C23.1337 22.9066 22.6591 22.8259 22.0374 22.8259C21.5592 22.8259 21.0809 22.8773 20.6101 22.9799C20.1392 23.0825 19.7124 23.2108 19.3372 23.3611C19.168 23.2475 19.0282 23.0715 18.9105 22.8369C18.7928 22.6023 18.7376 22.3567 18.7376 22.1001C18.7376 21.488 19.0687 21.0554 19.7272 20.8025C20.1024 20.6632 20.5439 20.5605 21.0589 20.4982C21.5702 20.4359 22.0521 20.4029 22.5046 20.4029V20.3992ZM22.6591 27.9066C22.8799 27.9066 23.1227 27.8846 23.3875 27.8406C23.6524 27.7966 23.8511 27.7343 23.9798 27.6573V26.1287L22.5819 26.2424C22.2177 26.268 21.9234 26.345 21.6879 26.4733C21.4562 26.6016 21.3385 26.7922 21.3385 27.0452C21.3385 27.2981 21.4378 27.5071 21.6401 27.6647C21.8424 27.8223 22.1809 27.9029 22.6591 27.9029V27.9066ZM21.8645 17.6866L23.8253 15.6045C24.4985 15.6045 25.0025 15.7438 25.3409 16.0261C25.6757 16.3047 25.8449 16.6236 25.8449 16.9828C25.8449 17.2761 25.7787 17.5217 25.65 17.7196C25.5212 17.9176 25.3005 18.1448 24.9915 18.3978L23.1484 19.8897C22.5782 19.8897 22.1478 19.7577 21.8572 19.4901C21.5665 19.2225 21.4194 18.9366 21.4194 18.6287C21.4194 18.4747 21.4488 18.3281 21.5077 18.1888C21.5665 18.0495 21.6843 17.8846 21.8682 17.6939L21.8645 17.6866Z" fill="white"/>
<path d="M38.463 23.9877V25.7435H35.1632V24.083C35.1632 23.6871 35.0418 23.3975 34.8027 23.2142C34.5636 23.0309 34.2509 22.9356 33.8609 22.9356C33.6034 22.9356 33.3606 22.9686 33.1325 23.0309C32.9044 23.0932 32.6874 23.1775 32.4814 23.2802V25.7435H29.1815V22.8403C29.1815 22.4957 29.2551 22.2171 29.4059 22.0008C29.5531 21.7846 29.7591 21.5866 30.0166 21.407C30.4581 21.1027 31.0135 20.8571 31.6868 20.6702C32.36 20.4869 33.0957 20.3916 33.9014 20.3916C35.3655 20.3916 36.4912 20.7068 37.2785 21.3373C38.0694 21.9679 38.463 22.8513 38.463 23.984V23.9877ZM29.1815 24.9261H32.4814V29.9518C32.3379 29.9884 32.1356 30.0287 31.8707 30.0654C31.6058 30.1021 31.3189 30.124 31.0062 30.124C30.3734 30.124 29.9099 30.0141 29.6193 29.7978C29.3287 29.5815 29.1815 29.1783 29.1815 28.5954V24.9261ZM35.1632 24.9261H38.463V29.9518C38.3196 29.9884 38.1172 30.0287 37.8524 30.0654C37.5875 30.1021 37.3006 30.124 36.9879 30.124C36.3551 30.124 35.8916 30.0141 35.601 29.7978C35.3103 29.5815 35.1632 29.1783 35.1632 28.5954V24.9261Z" fill="white"/>
<path d="M43.8412 26.627H40.5414V17.5141C40.6849 17.4774 40.8872 17.4371 41.1521 17.4004C41.4169 17.3638 41.7039 17.3418 42.0166 17.3418C42.664 17.3418 43.1312 17.4481 43.4145 17.657C43.6978 17.866 43.8412 18.2729 43.8412 18.8704V26.627ZM40.5414 24.9261H43.8412V29.9518C43.6978 29.9885 43.4954 30.0288 43.2306 30.0655C42.9657 30.1021 42.6787 30.1241 42.3661 30.1241C41.7333 30.1241 41.2698 30.0141 40.9792 29.7979C40.6885 29.5816 40.5414 29.1784 40.5414 28.5955V24.9261ZM49.8229 26.0515H46.523V24.3506C46.523 23.8301 46.3906 23.4635 46.1257 23.2509C45.8609 23.042 45.5335 22.9357 45.1435 22.9357C44.7536 22.9357 44.4114 23.0053 44.1135 23.1446C43.8155 23.2839 43.558 23.4379 43.3373 23.6028V20.9855C43.6352 20.8316 43.9921 20.6959 44.4041 20.575C44.8198 20.454 45.2723 20.3917 45.7615 20.3917C47.0307 20.3917 48.024 20.7069 48.7413 21.3374C49.4587 21.9679 49.8192 22.9063 49.8192 24.1563V26.0479L49.8229 26.0515ZM46.5194 24.9261H49.8192V29.9518C49.6758 29.9885 49.4734 30.0288 49.2085 30.0655C48.9437 30.1021 48.6567 30.1241 48.344 30.1241C47.7113 30.1241 47.2478 30.0141 46.9571 29.7979C46.6665 29.5816 46.5194 29.1784 46.5194 28.5955V24.9261Z" fill="white"/>
<path d="M66.6534 24.1786V28.1156C66.6534 28.5115 66.5835 28.8048 66.44 28.9954C66.2966 29.186 66.0722 29.3729 65.7595 29.5489C65.3953 29.7542 64.8692 29.9301 64.1776 30.0841C63.486 30.238 62.7944 30.315 62.1101 30.315C60.8667 30.315 59.7373 30.1061 58.722 29.6845C57.7067 29.263 56.901 28.6031 56.3051 27.6977C55.7091 26.7923 55.4111 25.6266 55.4111 24.2006C55.4111 22.8626 55.7128 21.7373 56.3124 20.8208C56.9157 19.9044 57.7214 19.2116 58.7404 18.7387C59.7557 18.2659 60.8925 18.0312 62.1469 18.0312C62.9636 18.0312 63.6699 18.1156 64.2733 18.2878C64.8766 18.4601 65.3364 18.7021 65.6602 19.0137C65.9839 19.3252 66.1458 19.6918 66.1458 20.1134C66.1458 20.4323 66.0611 20.7145 65.8919 20.9638C65.7227 21.2131 65.5277 21.4074 65.3107 21.5467C64.9869 21.356 64.5786 21.1728 64.0893 20.9931C63.5964 20.8135 63.0335 20.7255 62.4008 20.7255C61.7128 20.7255 61.1058 20.8685 60.5761 21.1544C60.0464 21.4404 59.6343 21.8436 59.3437 22.3568C59.0531 22.8736 58.9059 23.4822 58.9059 24.1823C58.9059 24.9448 59.0457 25.5863 59.3216 26.1031C59.6012 26.62 59.9838 27.0049 60.4768 27.2578C60.9697 27.5144 61.5326 27.6391 62.1653 27.6391C62.4486 27.6391 62.6987 27.6097 62.9121 27.5547C63.1255 27.4998 63.291 27.4448 63.4088 27.3935V25.5606H61.3302C61.253 25.4213 61.1794 25.2344 61.1059 25.0071C61.036 24.7762 60.9992 24.5342 60.9992 24.2813C60.9992 23.8231 61.1059 23.4932 61.3192 23.2879C61.5326 23.0826 61.8085 22.9836 62.1433 22.9836H65.4247C65.8147 22.9836 66.1126 23.0899 66.326 23.2989C66.5394 23.5078 66.6461 23.8047 66.6461 24.186L66.6534 24.1786Z" fill="white"/>
<path d="M72.6167 20.3994C74.0256 20.3994 75.155 20.6817 76.0048 21.2498C76.8509 21.818 77.2777 22.6978 77.2777 23.8965V28.1744C77.2777 28.5043 77.182 28.7755 76.9944 28.9845C76.8068 29.1934 76.5824 29.3767 76.3249 29.5307C75.9092 29.7726 75.4052 29.9559 74.8092 30.0842C74.2133 30.2125 73.5327 30.2748 72.7712 30.2748C71.4137 30.2748 70.3211 30.0182 69.5008 29.5013C68.6804 28.9845 68.2684 28.2073 68.2684 27.1626C68.2684 26.2828 68.5369 25.6084 69.074 25.1392C69.6111 24.6699 70.4315 24.3767 71.5314 24.2594L74.0735 23.9918V23.8562C74.0735 23.4859 73.9079 23.222 73.5768 23.0644C73.2457 22.9067 72.7712 22.8261 72.1495 22.8261C71.6712 22.8261 71.193 22.8774 70.7221 22.9801C70.2513 23.0827 69.8245 23.211 69.4493 23.3613C69.2801 23.2476 69.1402 23.0717 69.0225 22.8371C68.9048 22.6025 68.8496 22.3569 68.8496 22.1003C68.8496 21.4881 69.1807 21.0556 69.8392 20.8026C70.2145 20.6633 70.6559 20.5607 71.1709 20.4984C71.6823 20.4361 72.1642 20.4031 72.6167 20.4031V20.3994ZM71.8184 19.3473L69.9165 17.6281C69.9018 17.5768 69.8944 17.5035 69.887 17.4082C69.8797 17.3129 69.876 17.2396 69.876 17.1882C69.876 16.7154 70.0121 16.3525 70.2844 16.0885C70.5566 15.8283 70.8914 15.6963 71.2923 15.6963C71.5499 15.6963 71.8 15.7476 72.0391 15.8503C72.2782 15.9529 72.5063 16.1362 72.727 16.4038L74.4561 18.5226C74.4046 18.9698 74.239 19.2997 73.9594 19.516C73.6799 19.7322 73.3855 19.8422 73.0765 19.8422C72.8043 19.8422 72.5762 19.8019 72.3886 19.7176C72.201 19.6333 72.0097 19.5123 71.8147 19.3437L71.8184 19.3473ZM72.7712 27.9068C72.9919 27.9068 73.2347 27.8848 73.4996 27.8408C73.7645 27.7968 73.9631 27.7345 74.0919 27.6575V26.1289L72.6939 26.2425C72.3297 26.2682 72.0354 26.3452 71.8 26.4735C71.5682 26.6018 71.4505 26.7924 71.4505 27.0453C71.4505 27.2983 71.5499 27.5072 71.7522 27.6648C71.9545 27.8225 72.2929 27.9031 72.7712 27.9031V27.9068Z" fill="white"/>
<path d="M94.0896 24.9266V29.5673C93.9093 29.7323 93.6445 29.8679 93.3023 29.9669C92.9602 30.0695 92.5482 30.1209 92.07 30.1209C91.5917 30.1209 91.1392 30.0512 90.7125 29.9119C90.2858 29.7726 89.9363 29.4354 89.6641 28.9002L87.7437 25.0402C87.615 24.7726 87.4936 24.5197 87.3832 24.2851C87.2729 24.0504 87.1662 23.8048 87.0632 23.5482C86.9602 23.2953 86.8424 23.013 86.7137 22.7088L83.4322 23.4163V18.9844C83.6125 18.7315 83.8921 18.5372 84.2673 18.4126C84.6425 18.2843 85.0435 18.222 85.4703 18.222C85.9485 18.222 86.4047 18.2953 86.8388 18.4419C87.2729 18.5885 87.6187 18.9221 87.8762 19.4463L89.8186 23.3063C89.9473 23.5629 90.0687 23.8085 90.1791 24.0504C90.2894 24.2924 90.3998 24.5416 90.5102 24.7946C90.6205 25.0512 90.7346 25.3298 90.8486 25.634L94.0896 24.9266ZM83.4286 22.3276H86.5555C86.607 22.9141 86.6438 23.4749 86.6622 24.0101C86.6806 24.5453 86.6916 25.0512 86.6916 25.5277V29.9706C86.5629 29.9962 86.3532 30.0292 86.0589 30.0659C85.7646 30.1025 85.4739 30.1245 85.176 30.1245C84.5285 30.1245 84.076 30.0145 83.8185 29.7909C83.561 29.5673 83.4286 29.1714 83.4286 28.5959V22.3312V22.3276ZM94.0896 25.9566H90.9626C90.8854 25.0658 90.8413 24.2447 90.8376 23.4933C90.8302 22.7418 90.8265 22.027 90.8265 21.3525V18.3356C90.97 18.3099 91.1834 18.277 91.4666 18.2403C91.7499 18.2036 92.0442 18.1816 92.3422 18.1816C92.9896 18.1816 93.4421 18.2916 93.6996 18.5152C93.9572 18.7388 94.0896 19.1347 94.0896 19.7102V25.9566Z" fill="white"/>
<path d="M99.6592 25.8427H96.3594V20.7217C96.5029 20.6851 96.7052 20.6447 96.9701 20.6081C97.2349 20.5714 97.5219 20.5494 97.8346 20.5494C98.482 20.5494 98.9493 20.6557 99.2325 20.8647C99.5158 21.0736 99.6592 21.4805 99.6592 22.078V25.8427ZM96.3594 26.2826V25.0216H99.6592V26.2826C99.6592 26.7921 99.7917 27.1624 100.057 27.3896C100.321 27.6206 100.693 27.7342 101.171 27.7342C101.469 27.7342 101.716 27.7086 101.911 27.6572C102.106 27.6059 102.245 27.5546 102.337 27.5033V25.0179H105.637V27.9798C105.637 28.2987 105.571 28.5737 105.435 28.8119C105.299 29.0465 105.096 29.2482 104.824 29.4131C104.372 29.6917 103.831 29.908 103.202 30.0546C102.573 30.2012 101.892 30.2746 101.153 30.2746C100.222 30.2746 99.3907 30.1389 98.666 29.864C97.9413 29.5891 97.3747 29.1602 96.9664 28.5737C96.558 27.9871 96.3557 27.2247 96.3557 26.2826H96.3594ZM105.641 25.8427H102.341V20.7217C102.485 20.6851 102.687 20.6447 102.952 20.6081C103.217 20.5714 103.504 20.5494 103.816 20.5494C104.464 20.5494 104.931 20.6557 105.214 20.8647C105.497 21.0736 105.641 21.4805 105.641 22.078V25.8427ZM105.582 24.3324L105.174 24.3141C105.082 24.1748 105.001 23.9109 104.92 23.5223C104.843 23.1338 104.802 22.7415 104.802 22.3456C105.295 22.3456 105.696 22.188 106.005 21.8764C106.314 21.5648 106.472 21.0663 106.472 20.3771V19.7283C106.653 19.6403 106.833 19.5707 107.006 19.5194C107.179 19.4681 107.396 19.4424 107.657 19.4424C108.073 19.4424 108.426 19.5377 108.724 19.7283C109.022 19.9189 109.169 20.2452 109.169 20.7034V20.817C109.169 21.5428 109.007 22.1697 108.683 22.6975C108.36 23.2254 107.925 23.6323 107.381 23.9109C106.837 24.1895 106.237 24.3324 105.575 24.3324H105.582Z" fill="white"/>
<path d="M120.143 25.326C120.143 26.345 119.933 27.2248 119.51 27.9616C119.09 28.7021 118.502 29.2703 117.744 29.6698C116.986 30.0694 116.089 30.271 115.055 30.271C114.021 30.271 113.138 30.073 112.377 29.6771C111.612 29.2813 111.019 28.7167 110.6 27.9763C110.18 27.2394 109.967 26.3523 109.967 25.3223C109.967 24.2922 110.18 23.4454 110.607 22.705C111.034 21.9682 111.63 21.3963 112.395 20.9968C113.16 20.5972 114.047 20.3956 115.055 20.3956C116.063 20.3956 116.968 20.6009 117.726 21.0078C118.483 21.4146 119.076 21.9902 119.502 22.727C119.929 23.4674 120.143 24.3325 120.143 25.326ZM113.543 17.6866L115.504 15.6045C116.177 15.6045 116.681 15.7438 117.019 16.0261C117.354 16.3047 117.523 16.6236 117.523 16.9828C117.523 17.2761 117.457 17.5217 117.328 17.7196C117.2 17.9176 116.979 18.1448 116.67 18.3978L114.827 19.8897C114.257 19.8897 113.826 19.7577 113.536 19.4901C113.245 19.2225 113.098 18.9366 113.098 18.6287C113.098 18.4747 113.127 18.3281 113.186 18.1888C113.245 18.0495 113.363 17.8846 113.547 17.6939L113.543 17.6866ZM115.059 22.9396C114.529 22.9396 114.109 23.1485 113.808 23.5591C113.502 23.9733 113.352 24.5635 113.352 25.326C113.352 26.0884 113.499 26.7153 113.797 27.1221C114.095 27.529 114.514 27.7343 115.059 27.7343C115.603 27.7343 116.022 27.529 116.32 27.1148C116.618 26.7006 116.765 26.1067 116.765 25.3296C116.765 24.5525 116.615 23.9916 116.309 23.5737C116.004 23.1522 115.588 22.9432 115.059 22.9432V22.9396ZM118.631 24.3326L118.222 24.3142C118.13 24.1749 118.049 23.911 117.968 23.5224C117.891 23.1339 117.851 22.7416 117.851 22.3457C118.344 22.3457 118.745 22.1881 119.054 21.8765C119.363 21.5649 119.521 21.0664 119.521 20.3773V19.7284C119.701 19.6404 119.881 19.5708 120.054 19.5195C120.227 19.4682 120.444 19.4425 120.705 19.4425C121.121 19.4425 121.474 19.5378 121.772 19.7284C122.07 19.919 122.217 20.2453 122.217 20.7035V20.8171C122.217 21.5429 122.056 22.1698 121.732 22.6976C121.408 23.2255 120.974 23.6324 120.43 23.911C119.885 24.1896 119.285 24.3326 118.623 24.3326H118.631Z" fill="white"/>
<path d="M132.025 23.9877V25.7435H128.725V24.083C128.725 23.6871 128.604 23.3975 128.365 23.2142C128.126 23.0309 127.813 22.9356 127.423 22.9356C127.165 22.9356 126.923 22.9686 126.695 23.0309C126.466 23.0932 126.249 23.1775 126.043 23.2802V25.7435H122.744V22.8403C122.744 22.4957 122.817 22.2171 122.968 22.0008C123.115 21.7846 123.321 21.5866 123.579 21.407C124.02 21.1027 124.576 20.8571 125.249 20.6702C125.922 20.4869 126.658 20.3916 127.463 20.3916C128.928 20.3916 130.053 20.7068 130.84 21.3373C131.631 21.9679 132.025 22.8513 132.025 23.984V23.9877ZM122.747 24.9261H126.047V29.9518C125.904 29.9884 125.701 30.0287 125.436 30.0654C125.171 30.1021 124.885 30.124 124.572 30.124C123.939 30.124 123.476 30.0141 123.185 29.7978C122.894 29.5815 122.747 29.1783 122.747 28.5954V24.9261ZM128.725 24.9261H132.025V29.9518C131.882 29.9884 131.679 30.0287 131.414 30.0654C131.149 30.1021 130.863 30.124 130.55 30.124C129.917 30.124 129.454 30.0141 129.163 29.7978C128.872 29.5815 128.725 29.1783 128.725 28.5954V24.9261Z" fill="white"/>
<path d="M137.966 29.5857C137.19 29.5857 136.473 29.439 135.81 29.1458C135.152 28.8525 134.622 28.3723 134.229 27.7052C133.835 27.038 133.636 26.1546 133.636 25.0585C133.636 24.0395 133.842 23.1817 134.258 22.4889C134.674 21.796 135.259 21.2718 136.016 20.9236C136.774 20.5717 137.657 20.3994 138.665 20.3994C139.405 20.3994 140.085 20.4947 140.714 20.6853C141.343 20.876 141.825 21.0812 142.16 21.2975C142.417 21.4625 142.623 21.6604 142.771 21.8914C142.918 22.1223 142.995 22.4082 142.995 22.7528V28.7719H139.831V23.1744C139.703 23.112 139.559 23.0571 139.405 23.0131C139.25 22.9691 139.048 22.9471 138.801 22.9471C138.246 22.9471 137.793 23.1157 137.444 23.4529C137.094 23.7902 136.918 24.3364 136.918 25.0879C136.918 25.8906 137.076 26.4368 137.392 26.7301C137.709 27.0233 138.106 27.17 138.588 27.17C138.978 27.17 139.298 27.104 139.559 26.9684C139.817 26.8364 140.052 26.6861 140.258 26.5211L140.354 29.0615C140.056 29.2154 139.717 29.3401 139.335 29.4427C138.952 29.5453 138.496 29.5967 137.966 29.5967V29.5857ZM139.89 29.758V28.0387H142.995V29.8349C142.995 30.7257 142.774 31.4625 142.337 32.0417C141.895 32.6209 141.303 33.0498 140.56 33.332C139.817 33.6106 138.985 33.7536 138.065 33.7536C137.378 33.7536 136.767 33.6986 136.23 33.5923C135.693 33.4823 135.27 33.3284 134.957 33.1231C134.49 32.8188 134.258 32.3826 134.258 31.8254C134.258 31.5322 134.321 31.2646 134.442 31.0226C134.563 30.7807 134.703 30.6011 134.858 30.4874C135.233 30.6927 135.656 30.8613 136.13 31.0043C136.601 31.1436 137.098 31.2132 137.617 31.2132C138.301 31.2132 138.853 31.0996 139.268 30.8687C139.684 30.6377 139.89 30.2712 139.89 29.7616V29.758Z" fill="white"/>
<path d="M29.7039 49.5155H23.9687V40.7691C23.9687 40.4282 24.068 40.1679 24.263 39.981C24.4616 39.794 24.7155 39.6474 25.0245 39.5337C25.5836 39.3395 26.2458 39.2002 27.0184 39.1085C27.7909 39.0206 28.4788 38.9766 29.0858 38.9766C31.3335 38.9766 33.0626 39.4531 34.2692 40.4062C35.4758 41.3593 36.0791 42.6496 36.0791 44.2808C36.0791 45.3292 35.818 46.2457 35.2919 47.0301C34.7658 47.8146 34.0264 48.4231 33.0773 48.8593C32.1245 49.2955 31.0025 49.5118 29.7039 49.5118V49.5155ZM23.9687 47.6716H28.2765V54.0426C28.0962 54.0903 27.8166 54.1379 27.4377 54.1892C27.0588 54.2369 26.6762 54.2626 26.2789 54.2626C25.4255 54.2626 24.8258 54.1123 24.48 53.8153C24.1342 53.5184 23.9613 52.9942 23.9613 52.2538V47.6753L23.9687 47.6716ZM28.2507 46.1943H29.4316C30.1048 46.1943 30.6493 46.0294 31.0687 45.6995C31.488 45.3696 31.6977 44.8967 31.6977 44.2808C31.6977 43.665 31.5064 43.1958 31.1202 42.8622C30.7339 42.5323 30.1711 42.3673 29.4353 42.3673C29.1741 42.3673 28.9571 42.371 28.7842 42.3783C28.6113 42.3857 28.4347 42.4077 28.2544 42.4407V46.1943H28.2507Z" fill="white"/>
<path d="M42.1861 49.828H37.9997V38.2737C38.1799 38.226 38.4374 38.1783 38.7759 38.127C39.1106 38.0794 39.4785 38.0537 39.8721 38.0537C40.6925 38.0537 41.2848 38.1857 41.6453 38.4533C42.0058 38.7209 42.1861 39.2341 42.1861 39.9929V49.828ZM37.9997 47.6725H42.1861V54.0435C42.0058 54.0912 41.7483 54.1388 41.4098 54.1901C41.0751 54.2378 40.7072 54.2635 40.3136 54.2635C39.5079 54.2635 38.923 54.1278 38.5515 53.8529C38.1836 53.578 37.996 53.0684 37.996 52.328V47.6762L37.9997 47.6725ZM49.768 49.1021H45.5816V46.9467C45.5816 46.2832 45.4123 45.8213 45.0776 45.5537C44.7428 45.2861 44.3271 45.1542 43.8342 45.1542C43.3412 45.1542 42.9071 45.2422 42.5282 45.4218C42.1493 45.6014 41.8219 45.792 41.5423 46.0046V42.6872C41.9212 42.4929 42.37 42.3206 42.8961 42.1666C43.4221 42.0127 43.996 41.9357 44.6177 41.9357C46.2254 41.9357 47.4872 42.3353 48.3958 43.1344C49.3082 43.9335 49.7606 45.1249 49.7606 46.7084V49.1058L49.768 49.1021ZM45.5853 47.6725H49.7717V54.0435C49.5914 54.0912 49.3339 54.1388 48.9955 54.1901C48.6607 54.2378 48.2928 54.2635 47.8992 54.2635C47.0935 54.2635 46.5086 54.1278 46.1371 53.8529C45.7692 53.578 45.5816 53.0684 45.5816 52.328V47.6762L45.5853 47.6725Z" fill="white"/>
<path d="M57.2763 41.9312C59.0642 41.9312 60.4989 42.2904 61.5731 43.0089C62.6473 43.7274 63.1844 44.8454 63.1844 46.363V51.7882C63.1844 52.2098 63.0667 52.5507 62.8276 52.8183C62.5885 53.0859 62.3052 53.3132 61.9778 53.5075C61.4517 53.8154 60.8116 54.05 60.0575 54.2113C59.3033 54.3726 58.4388 54.4532 57.4713 54.4532C55.7496 54.4532 54.3664 54.127 53.3217 53.4708C52.2806 52.8183 51.7582 51.8286 51.7582 50.5016C51.7582 49.3872 52.1003 48.5331 52.7809 47.9319C53.4615 47.3344 54.4989 46.9642 55.8968 46.8175L59.1231 46.4766V46.308C59.1231 45.8388 58.9134 45.5052 58.494 45.3036C58.0746 45.102 57.4713 44.9994 56.684 44.9994C56.077 44.9994 55.4737 45.0653 54.8741 45.1936C54.2745 45.3219 53.7374 45.4832 53.2628 45.6775C53.0494 45.5309 52.8692 45.3109 52.722 45.0103C52.5749 44.7134 52.5013 44.4018 52.5013 44.0793C52.5013 43.3058 52.9207 42.7559 53.7557 42.4334C54.2303 42.2574 54.7932 42.1254 55.4406 42.0448C56.0881 41.9641 56.6988 41.9238 57.2763 41.9238V41.9312ZM57.475 51.451C57.7546 51.451 58.0599 51.4217 58.3984 51.3667C58.7331 51.3117 58.9833 51.2347 59.1488 51.1358V49.1966L57.3757 49.3432C56.9158 49.3762 56.5369 49.4715 56.2426 49.6328C55.9483 49.7941 55.8012 50.036 55.8012 50.3586C55.8012 50.6812 55.9299 50.9451 56.1837 51.1467C56.4376 51.3484 56.868 51.451 57.475 51.451Z" fill="white"/>
<path d="M77.5168 46.4842V48.713H73.3304V46.6052C73.3304 46.103 73.1795 45.7364 72.8742 45.5018C72.5689 45.2672 72.1716 45.1499 71.6786 45.1499C71.3512 45.1499 71.0422 45.1902 70.7552 45.2709C70.4683 45.3515 70.1924 45.4578 69.9312 45.5861V48.713H65.7448V45.0289C65.7448 44.5927 65.8404 44.2371 66.028 43.9622C66.2157 43.6873 66.4768 43.438 66.8043 43.2107C67.3634 42.8222 68.0697 42.5106 68.9232 42.2796C69.7767 42.045 70.7111 41.9277 71.7301 41.9277C73.5842 41.9277 75.0115 42.3273 76.0122 43.1264C77.0128 43.9255 77.5131 45.0436 77.5131 46.4805L77.5168 46.4842ZM65.7484 47.6719H69.9349V54.0429C69.7546 54.0905 69.4971 54.1382 69.1587 54.1895C68.8239 54.2372 68.456 54.2628 68.0624 54.2628C67.2567 54.2628 66.6718 54.1272 66.3003 53.8523C65.9324 53.5774 65.7448 53.0678 65.7448 52.3273V47.6756L65.7484 47.6719ZM73.3304 47.6719H77.5168V54.0429C77.3365 54.0905 77.079 54.1382 76.7406 54.1895C76.4058 54.2372 76.0379 54.2628 75.6443 54.2628C74.8386 54.2628 74.2537 54.1272 73.8822 53.8523C73.5143 53.5774 73.3267 53.0678 73.3267 52.3273V47.6756L73.3304 47.6719Z" fill="white"/>
<path d="M89.6529 48.9591H85.3451V39.3403C85.5437 39.3073 85.8343 39.2633 86.2206 39.2083C86.6069 39.1534 86.9785 39.124 87.3427 39.124C88.163 39.124 88.7553 39.2597 89.1158 39.5346C89.4763 39.8095 89.6566 40.341 89.6566 41.1328V48.9591H89.6529ZM85.3451 43.3616H89.6529V53.9225L87.6333 54.1388C86.9269 54.1388 86.3678 53.9371 85.9594 53.5339C85.5474 53.1307 85.3451 52.5808 85.3451 51.888V43.3616ZM87.6333 54.1424V50.726H95.2888C95.4028 50.9056 95.5095 51.1365 95.6088 51.4298C95.7081 51.7194 95.756 52.0347 95.756 52.3756C95.756 52.9731 95.6235 53.4166 95.3623 53.7099C95.1012 53.9995 94.737 54.1461 94.2808 54.1461H87.6333V54.1424Z" fill="white"/>
<path d="M102.58 41.9313C104.368 41.9313 105.803 42.2905 106.877 43.009C107.951 43.7274 108.488 44.8455 108.488 46.3631V51.7883C108.488 52.2099 108.37 52.5508 108.131 52.8184C107.892 53.086 107.609 53.3133 107.281 53.5076C106.755 53.8155 106.115 54.0501 105.361 54.2114C104.607 54.3727 103.743 54.4533 102.775 54.4533C101.053 54.4533 99.6701 54.1271 98.6254 53.4709C97.5843 52.8184 97.0619 51.8287 97.0619 50.5017C97.0619 49.3873 97.404 48.5332 98.0846 47.932C98.7651 47.3345 99.8025 46.9643 101.2 46.8176L104.427 46.4767V46.3081C104.427 45.8389 104.217 45.5053 103.798 45.3037C103.378 45.1021 102.775 44.9994 101.988 44.9994C101.381 44.9994 100.777 45.0654 100.178 45.1937C99.5781 45.322 99.0411 45.4833 98.5665 45.6776C98.3531 45.531 98.1729 45.311 98.0257 45.0104C97.8786 44.7135 97.805 44.4019 97.805 44.0794C97.805 43.3059 98.2244 42.756 99.0595 42.4335C99.534 42.2575 100.097 42.1255 100.744 42.0449C101.392 41.9642 102.002 41.9239 102.58 41.9239V41.9313ZM102.775 51.4511C103.055 51.4511 103.36 51.4218 103.698 51.3668C104.033 51.3118 104.283 51.2348 104.449 51.1358V49.1967L102.676 49.3433C102.216 49.3763 101.837 49.4716 101.543 49.6329C101.248 49.7942 101.101 50.0361 101.101 50.3587C101.101 50.6813 101.23 50.9452 101.484 51.1468C101.738 51.3485 102.168 51.4511 102.775 51.4511ZM101.767 38.4928L104.254 35.8535C105.107 35.8535 105.747 36.0331 106.174 36.385C106.601 36.7406 106.814 37.1438 106.814 37.5947C106.814 37.965 106.733 38.2765 106.568 38.5258C106.402 38.7751 106.126 39.0647 105.729 39.3873L103.389 41.2751C102.668 41.2751 102.12 41.1065 101.752 40.7656C101.384 40.4246 101.197 40.0617 101.197 39.6768C101.197 39.4826 101.234 39.2993 101.307 39.1197C101.381 38.9437 101.532 38.7311 101.763 38.4892L101.767 38.4928Z" fill="white"/>
<path d="M120.477 50.1689H116.291V41.6424C116.291 40.9496 116.497 40.3998 116.905 39.9965C117.314 39.5933 117.873 39.3917 118.579 39.3917C118.973 39.3917 119.341 39.4174 119.686 39.465C120.032 39.5127 120.293 39.5603 120.474 39.6116V50.1725L120.477 50.1689ZM116.291 43.3616H120.477V53.9225C120.297 53.9702 120.036 54.0179 119.69 54.0692C119.344 54.1168 118.976 54.1425 118.583 54.1425C117.876 54.1425 117.317 53.9409 116.909 53.5377C116.497 53.1344 116.295 52.5846 116.295 51.8918V43.3653L116.291 43.3616ZM118.583 42.7055V39.388H126.709C126.823 39.5676 126.926 39.7913 127.018 40.0662C127.106 40.3411 127.154 40.649 127.154 40.9863C127.154 41.5838 127.022 42.02 126.761 42.2949C126.499 42.5699 126.135 42.7055 125.679 42.7055H118.59H118.583ZM118.583 48.2554V44.9599H126.018C126.132 45.1395 126.235 45.3631 126.327 45.6381C126.415 45.913 126.463 46.2209 126.463 46.5581C126.463 47.1557 126.33 47.5882 126.069 47.8558C125.808 48.1234 125.444 48.2554 124.987 48.2554H118.586H118.583ZM118.583 54.1425V50.7994H126.805C126.919 50.979 127.022 51.2099 127.114 51.5032C127.202 51.7928 127.25 52.108 127.25 52.4489C127.25 53.0464 127.118 53.479 126.856 53.7466C126.595 54.0142 126.231 54.1462 125.775 54.1462H118.586L118.583 54.1425ZM121.07 35.7553L123.924 33.5742C124.612 33.5742 125.149 33.7392 125.536 34.0691C125.922 34.399 126.113 34.8096 126.113 35.2934C126.113 35.6014 126.036 35.8873 125.878 36.1549C125.723 36.4225 125.414 36.6937 124.954 36.965L122.493 38.369C121.838 38.369 121.338 38.2223 121.003 37.9327C120.669 37.6431 120.499 37.3022 120.499 36.9137C120.499 36.7194 120.529 36.5288 120.584 36.3455C120.643 36.1585 120.801 35.9606 121.062 35.7516L121.07 35.7553Z" fill="white"/>
<path d="M190.46 15.2423C190.46 15.4146 190.416 15.5649 190.324 15.7005C190.232 15.8361 190.129 15.9388 190.012 16.0158C189.839 15.8985 189.644 15.7995 189.438 15.7188C189.228 15.6382 188.989 15.5942 188.717 15.5942C188.36 15.5942 188.058 15.6675 187.812 15.8141C187.565 15.9608 187.374 16.1734 187.245 16.452C187.116 16.7306 187.05 17.0641 187.05 17.4564C187.05 18.0612 187.205 18.5194 187.517 18.8347C187.826 19.1499 188.257 19.3076 188.809 19.3076C189.096 19.3076 189.338 19.2709 189.537 19.1939C189.736 19.1169 189.927 19.0326 190.107 18.9373C190.225 19.0253 190.317 19.1389 190.383 19.2782C190.449 19.4175 190.482 19.5752 190.482 19.7511C190.482 19.9087 190.442 20.0517 190.357 20.1837C190.273 20.3156 190.129 20.4256 189.927 20.5136C189.802 20.5686 189.625 20.6236 189.394 20.6785C189.162 20.7335 188.886 20.7592 188.555 20.7592C187.926 20.7592 187.356 20.6419 186.844 20.4109C186.333 20.1763 185.924 19.8171 185.619 19.3296C185.317 18.842 185.163 18.2188 185.163 17.4564C185.163 16.7416 185.31 16.1404 185.601 15.6492C185.895 15.158 186.289 14.7841 186.789 14.5275C187.289 14.2709 187.837 14.1426 188.437 14.1426C188.864 14.1426 189.224 14.1902 189.526 14.2855C189.828 14.3809 190.056 14.5128 190.218 14.6778C190.379 14.8427 190.457 15.0297 190.457 15.2423H190.46Z" fill="white"/>
<path d="M193.116 18.7722H191.336V13.8602C191.413 13.8382 191.524 13.8199 191.667 13.7979C191.81 13.7759 191.965 13.7686 192.134 13.7686C192.484 13.7686 192.734 13.8235 192.888 13.9372C193.043 14.0508 193.12 14.2671 193.12 14.5897V18.7686L193.116 18.7722ZM191.34 17.8558H193.12V20.5648C193.043 20.5868 192.933 20.6051 192.789 20.6271C192.646 20.6491 192.491 20.6564 192.322 20.6564C191.98 20.6564 191.73 20.5978 191.575 20.4805C191.417 20.3632 191.34 20.1469 191.34 19.8316V17.8558ZM196.339 18.4643H194.559V17.5479C194.559 17.2656 194.489 17.0677 194.345 16.9577C194.202 16.8441 194.025 16.7891 193.815 16.7891C193.606 16.7891 193.422 16.8257 193.26 16.9027C193.098 16.9797 192.958 17.0604 192.841 17.1483V15.737C193.002 15.6564 193.194 15.5794 193.414 15.5171C193.639 15.4511 193.882 15.4181 194.146 15.4181C194.831 15.4181 195.364 15.5867 195.754 15.9277C196.14 16.2686 196.335 16.7744 196.335 17.4453V18.4643H196.339ZM194.562 17.8558H196.343V20.5648C196.265 20.5868 196.155 20.6051 196.012 20.6271C195.868 20.6491 195.714 20.6564 195.544 20.6564C195.202 20.6564 194.952 20.5978 194.798 20.4805C194.639 20.3632 194.562 20.1469 194.562 19.8316V17.8558Z" fill="white"/>
<path d="M198.234 12.6287C198.506 12.6287 198.767 12.6726 199.025 12.757C199.278 12.8413 199.488 12.9732 199.654 13.1529C199.819 13.3325 199.9 13.5597 199.9 13.842C199.9 14.1976 199.786 14.4578 199.554 14.6228C199.322 14.7878 199.061 14.8757 198.771 14.8904V15.169C198.734 15.191 198.668 15.213 198.568 15.235C198.465 15.2606 198.351 15.2716 198.219 15.2716C197.983 15.2716 197.818 15.2496 197.733 15.1983C197.645 15.1507 197.601 15.0847 197.601 15.004V14.6118C197.601 14.4322 197.645 14.3149 197.733 14.2562C197.822 14.1976 197.925 14.1683 198.042 14.1683H198.219C198.476 14.1683 198.605 14.0729 198.605 13.8787C198.605 13.7834 198.561 13.7064 198.469 13.6477C198.377 13.5891 198.234 13.5598 198.039 13.5598C197.877 13.5598 197.73 13.5817 197.59 13.6221C197.45 13.6624 197.34 13.7027 197.255 13.7357C197.178 13.6807 197.119 13.6111 197.071 13.5304C197.027 13.4498 197.001 13.3581 197.001 13.2628C197.001 13.0429 197.123 12.8816 197.369 12.779C197.612 12.6763 197.903 12.625 198.237 12.625L198.234 12.6287ZM199.26 18.4021H197.479V15.6419C197.557 15.6199 197.667 15.6016 197.811 15.5796C197.954 15.5576 198.109 15.5502 198.278 15.5502C198.627 15.5502 198.877 15.6052 199.032 15.7188C199.186 15.8325 199.264 16.0488 199.264 16.3714V18.3985L199.26 18.4021ZM197.479 17.9293H199.26V20.5649C199.183 20.5869 199.072 20.6052 198.929 20.6272C198.785 20.6492 198.631 20.6566 198.462 20.6566C198.12 20.6566 197.869 20.5979 197.715 20.4806C197.557 20.3633 197.479 20.147 197.479 19.8318V17.9256V17.9293Z" fill="white"/>
<path d="M205.348 16.7968C204.999 16.7968 204.697 16.9067 204.443 17.1267C204.19 17.3466 204.061 17.6692 204.061 18.0944C204.061 18.5197 204.182 18.8349 204.429 19.0402C204.675 19.2455 204.977 19.3481 205.337 19.3481C205.547 19.3481 205.735 19.3224 205.896 19.2711C206.062 19.2198 206.198 19.1685 206.308 19.1098C206.441 19.2051 206.54 19.3078 206.606 19.4178C206.673 19.5277 206.706 19.6597 206.706 19.821C206.706 20.0959 206.57 20.3159 206.294 20.4808C206.018 20.6458 205.624 20.7264 205.117 20.7264C204.539 20.7264 204.035 20.6274 203.605 20.4295C203.174 20.2315 202.843 19.9346 202.611 19.5387C202.376 19.1428 202.262 18.6626 202.262 18.0908C202.262 17.4859 202.391 16.9874 202.648 16.5915C202.906 16.1956 203.248 15.9023 203.674 15.7044C204.101 15.5101 204.565 15.4111 205.065 15.4111C205.565 15.4111 205.944 15.4991 206.22 15.6787C206.496 15.8584 206.632 16.0856 206.632 16.3679C206.632 16.4999 206.599 16.6208 206.537 16.7345C206.474 16.8481 206.4 16.9471 206.316 17.0277C206.198 16.9727 206.055 16.9214 205.885 16.8664C205.716 16.8114 205.536 16.7894 205.341 16.7894L205.348 16.7968Z" fill="white"/>
<path d="M212.706 18.0727C212.706 18.6226 212.592 19.0954 212.367 19.495C212.139 19.8946 211.823 20.1988 211.415 20.4151C211.006 20.6314 210.524 20.7377 209.965 20.7377C209.406 20.7377 208.931 20.6314 208.519 20.4188C208.107 20.2062 207.787 19.9019 207.563 19.5023C207.335 19.1028 207.224 18.6262 207.224 18.0727C207.224 17.5192 207.339 17.061 207.57 16.6614C207.802 16.2619 208.122 15.9576 208.534 15.7413C208.946 15.5251 209.424 15.4187 209.969 15.4187C210.513 15.4187 210.999 15.5287 211.407 15.7487C211.816 15.9686 212.136 16.2765 212.364 16.6761C212.595 17.0756 212.709 17.5412 212.709 18.0764L212.706 18.0727ZM209.597 14.8506L208.571 13.9231C208.564 13.8975 208.56 13.8572 208.556 13.8058C208.553 13.7545 208.553 13.7142 208.553 13.6885C208.553 13.4356 208.626 13.2376 208.773 13.0983C208.92 12.9591 209.101 12.8857 209.318 12.8857C209.457 12.8857 209.59 12.9151 209.719 12.9664C209.847 13.0214 209.972 13.1203 210.09 13.2633L211.021 14.407C210.992 14.6489 210.903 14.8249 210.752 14.9422C210.602 15.0595 210.443 15.1182 210.278 15.1182C210.131 15.1182 210.009 15.0962 209.906 15.0522C209.803 15.0082 209.704 14.9422 209.597 14.8506ZM209.961 16.786C209.675 16.786 209.45 16.896 209.288 17.1196C209.123 17.3432 209.042 17.6585 209.042 18.0727C209.042 18.4869 209.123 18.8205 209.281 19.0405C209.443 19.2604 209.667 19.3704 209.961 19.3704C210.256 19.3704 210.48 19.2604 210.642 19.0368C210.804 18.8132 210.881 18.4943 210.881 18.0727C210.881 17.6512 210.8 17.3506 210.635 17.127C210.469 16.8997 210.245 16.786 209.961 16.786Z" fill="white"/>
<path d="M218.573 17.3542V18.2999H216.793V17.4055C216.793 17.1929 216.727 17.0353 216.598 16.9363C216.469 16.8373 216.3 16.786 216.09 16.786C215.95 16.786 215.822 16.8043 215.696 16.8373C215.575 16.8703 215.457 16.918 215.347 16.973V18.2999H213.57V16.7347C213.57 16.5477 213.611 16.3975 213.692 16.2802C213.773 16.1628 213.883 16.0565 214.023 15.9612C214.258 15.7963 214.56 15.6643 214.924 15.5653C215.288 15.4664 215.685 15.415 216.116 15.415C216.903 15.415 217.51 15.5837 217.937 15.9246C218.364 16.2655 218.573 16.7384 218.573 17.3505V17.3542ZM213.574 17.8564H215.351V20.5654C215.273 20.5873 215.163 20.6057 215.02 20.6277C214.876 20.6497 214.722 20.657 214.552 20.657C214.21 20.657 213.96 20.5984 213.806 20.481C213.647 20.3637 213.57 20.1475 213.57 19.8322V17.8564H213.574ZM216.796 17.8564H218.577V20.5654C218.5 20.5873 218.389 20.6057 218.246 20.6277C218.102 20.6497 217.948 20.657 217.779 20.657C217.437 20.657 217.186 20.5984 217.032 20.481C216.874 20.3637 216.796 20.1475 216.796 19.8322V17.8564Z" fill="white"/>
<path d="M152.805 6.965C153.487 6.965 154.041 6.37253 154.041 5.64168C154.041 4.91083 153.487 4.31836 152.805 4.31836C152.122 4.31836 151.569 4.91083 151.569 5.64168C151.569 6.37253 152.122 6.965 152.805 6.965Z" fill="#480090"/>
<path d="M152.805 10.5539C153.487 10.5539 154.041 9.9614 154.041 9.23055C154.041 8.4997 153.487 7.90723 152.805 7.90723C152.122 7.90723 151.569 8.4997 151.569 9.23055C151.569 9.9614 152.122 10.5539 152.805 10.5539Z" fill="#480090"/>
<path d="M152.805 14.1427C153.487 14.1427 154.041 13.5503 154.041 12.8194C154.041 12.0886 153.487 11.4961 152.805 11.4961C152.122 11.4961 151.569 12.0886 151.569 12.8194C151.569 13.5503 152.122 14.1427 152.805 14.1427Z" fill="#480090"/>
<path d="M152.805 17.7316C153.487 17.7316 154.041 17.1391 154.041 16.4083C154.041 15.6774 153.487 15.085 152.805 15.085C152.122 15.085 151.569 15.6774 151.569 16.4083C151.569 17.1391 152.122 17.7316 152.805 17.7316Z" fill="#480090"/>
<path d="M152.805 21.3195C153.487 21.3195 154.041 20.727 154.041 19.9962C154.041 19.2653 153.487 18.6729 152.805 18.6729C152.122 18.6729 151.569 19.2653 151.569 19.9962C151.569 20.727 152.122 21.3195 152.805 21.3195Z" fill="#480090"/>
<path d="M152.805 24.9084C153.487 24.9084 154.041 24.3159 154.041 23.585C154.041 22.8542 153.487 22.2617 152.805 22.2617C152.122 22.2617 151.569 22.8542 151.569 23.585C151.569 24.3159 152.122 24.9084 152.805 24.9084Z" fill="#480090"/>
<path d="M152.805 28.4933C153.487 28.4933 154.041 27.9009 154.041 27.17C154.041 26.4392 153.487 25.8467 152.805 25.8467C152.122 25.8467 151.569 26.4392 151.569 27.17C151.569 27.9009 152.122 28.4933 152.805 28.4933Z" fill="#480090"/>
<path d="M152.805 32.0822C153.487 32.0822 154.041 31.4897 154.041 30.7589C154.041 30.028 153.487 29.4355 152.805 29.4355C152.122 29.4355 151.569 30.028 151.569 30.7589C151.569 31.4897 152.122 32.0822 152.805 32.0822Z" fill="#480090"/>
<path d="M152.805 35.6711C153.487 35.6711 154.041 35.0786 154.041 34.3477C154.041 33.6169 153.487 33.0244 152.805 33.0244C152.122 33.0244 151.569 33.6169 151.569 34.3477C151.569 35.0786 152.122 35.6711 152.805 35.6711Z" fill="#480090"/>
<path d="M152.805 39.2599C153.487 39.2599 154.041 38.6675 154.041 37.9366C154.041 37.2058 153.487 36.6133 152.805 36.6133C152.122 36.6133 151.569 37.2058 151.569 37.9366C151.569 38.6675 152.122 39.2599 152.805 39.2599Z" fill="#480090"/>
<path d="M152.805 42.8488C153.487 42.8488 154.041 42.2563 154.041 41.5255C154.041 40.7946 153.487 40.2021 152.805 40.2021C152.122 40.2021 151.569 40.7946 151.569 41.5255C151.569 42.2563 152.122 42.8488 152.805 42.8488Z" fill="#480090"/>
<path d="M152.805 46.4377C153.487 46.4377 154.041 45.8452 154.041 45.1143C154.041 44.3835 153.487 43.791 152.805 43.791C152.122 43.791 151.569 44.3835 151.569 45.1143C151.569 45.8452 152.122 46.4377 152.805 46.4377Z" fill="#480090"/>
<path d="M152.805 50.0226C153.487 50.0226 154.041 49.4301 154.041 48.6993C154.041 47.9684 153.487 47.376 152.805 47.376C152.122 47.376 151.569 47.9684 151.569 48.6993C151.569 49.4301 152.122 50.0226 152.805 50.0226Z" fill="#480090"/>
<path d="M152.805 53.6115C153.487 53.6115 154.041 53.019 154.041 52.2882C154.041 51.5573 153.487 50.9648 152.805 50.9648C152.122 50.9648 151.569 51.5573 151.569 52.2882C151.569 53.019 152.122 53.6115 152.805 53.6115Z" fill="#480090"/>
<path d="M152.805 57.1994C153.487 57.1994 154.041 56.6069 154.041 55.8761C154.041 55.1452 153.487 54.5527 152.805 54.5527C152.122 54.5527 151.569 55.1452 151.569 55.8761C151.569 56.6069 152.122 57.1994 152.805 57.1994Z" fill="#480090"/>
<path d="M152.805 60.7882C153.487 60.7882 154.041 60.1958 154.041 59.4649C154.041 58.7341 153.487 58.1416 152.805 58.1416C152.122 58.1416 151.569 58.7341 151.569 59.4649C151.569 60.1958 152.122 60.7882 152.805 60.7882Z" fill="#480090"/>
<path d="M152.805 64.3771C153.487 64.3771 154.041 63.7846 154.041 63.0538C154.041 62.3229 153.487 61.7305 152.805 61.7305C152.122 61.7305 151.569 62.3229 151.569 63.0538C151.569 63.7846 152.122 64.3771 152.805 64.3771Z" fill="#480090"/>
<path d="M163.65 27.0459H181.37C181.948 27.4125 182.466 27.922 182.923 28.5745C183.382 29.227 183.61 30.0371 183.61 31.0049C183.61 31.5401 183.559 32.0826 183.456 32.6324C183.353 33.1823 183.184 33.7285 182.948 34.26L172.357 57.8598C171.883 57.8928 171.43 57.9111 171.007 57.9111H169.811C168.285 57.9111 167.045 57.6179 166.092 57.035C165.143 56.4522 164.665 55.4735 164.665 54.1025C164.665 53.4023 164.841 52.6399 165.198 51.8224C165.555 51.005 166.004 50.0262 166.548 48.8898L173.983 33.9081H161.505C161.303 33.5415 161.096 33.0576 160.894 32.4565C160.692 31.8553 160.589 31.2211 160.589 30.554C160.589 29.2856 160.876 28.3839 161.453 27.8487C162.031 27.3135 162.759 27.0459 163.642 27.0459H163.65Z" fill="url(#paint0_linear_15_567)"/>
<path d="M208.873 30.7554C208.873 31.4555 208.711 32.1337 208.387 32.7862C208.063 33.4387 207.681 33.9299 207.243 34.2634C206.327 33.8639 205.367 33.5523 204.366 33.336C203.365 33.1197 202.438 33.0098 201.592 33.0098C199.587 33.0098 198.028 33.5376 196.906 34.5897C195.784 35.6417 195.037 37.1557 194.665 39.1242C195.342 38.6549 196.243 38.2297 197.365 37.8448C198.487 37.4599 199.639 37.2693 200.827 37.2693C203.95 37.2693 206.437 38.1637 208.288 39.9489C210.138 41.7378 211.061 44.2672 211.061 47.5406C211.061 49.4431 210.602 51.2173 209.686 52.8522C208.77 54.4908 207.419 55.8105 205.635 56.8112C203.855 57.8119 201.622 58.3141 198.94 58.3141C196.258 58.3141 193.999 57.7203 192.064 56.5363C190.129 55.3522 188.643 53.622 187.609 51.3493C186.572 49.0766 186.057 46.3236 186.057 43.0831C186.057 40.3119 186.406 37.8705 187.102 35.7664C187.797 33.6623 188.79 31.9064 190.081 30.5061C191.373 29.1021 192.892 28.0501 194.639 27.3499C196.387 26.6498 198.333 26.2979 200.47 26.2979C202.269 26.2979 203.796 26.4665 205.054 26.8001C206.308 27.1336 207.261 27.6285 207.905 28.2773C208.549 28.9298 208.873 29.7546 208.873 30.759V30.7554ZM198.991 51.5509C200.113 51.5509 200.952 51.1843 201.511 50.4475C202.071 49.7144 202.35 48.7613 202.35 47.5919C202.35 46.4226 202.052 45.4952 201.46 44.8097C200.864 44.1242 200.007 43.7833 198.888 43.7833C198.245 43.7833 197.557 43.9189 196.825 44.1828C196.093 44.4504 195.508 44.817 195.066 45.2862V46.5399C195.066 48.3104 195.449 49.5897 196.21 50.3742C196.975 51.1587 197.899 51.5509 198.984 51.5509H198.991Z" fill="url(#paint1_linear_15_567)"/>
<path d="M224.912 46.9394H215.998V27.0456C216.407 26.9796 217.01 26.888 217.805 26.7707C218.603 26.6534 219.375 26.5947 220.122 26.5947C221.818 26.5947 223.043 26.8807 223.79 27.4452C224.537 28.0134 224.912 29.1167 224.912 30.7516V46.9357V46.9394ZM216.002 35.3631H224.916V57.46C224.54 57.559 223.963 57.6616 223.183 57.7606C222.403 57.8595 221.605 57.9109 220.788 57.9109C219.022 57.9109 217.783 57.6029 217.069 56.9834C216.355 56.3676 215.998 55.2899 215.998 53.7503V35.3594L216.002 35.3631ZM231.026 44.2341L219.364 45.0846L235.507 26.844C237.817 26.844 239.469 27.2692 240.473 28.1233C241.474 28.9738 241.974 29.9855 241.974 31.1549C241.974 32.0236 241.753 32.8411 241.312 33.6109C240.87 34.3807 240.157 35.2495 239.174 36.2172L231.026 44.2341ZM220.586 41.1769L230.975 40.4768C233.59 43.3177 235.956 45.8543 238.078 48.0941C240.201 50.3338 241.889 52.119 243.144 53.457C243.144 54.894 242.651 56.023 241.669 56.8405C240.683 57.6579 239.546 58.0685 238.255 58.0685C236.861 58.0685 235.724 57.7239 234.845 57.0421C233.962 56.3566 233.112 55.5465 232.299 54.6117L220.586 41.1842V41.1769Z" fill="url(#paint2_linear_15_567)"/>
<path d="M251.7 41.7896C255.295 41.7896 258.208 38.8863 258.208 35.3049C258.208 31.7236 255.295 28.8203 251.7 28.8203C248.106 28.8203 245.193 31.7236 245.193 35.3049C245.193 38.8863 248.106 41.7896 251.7 41.7896Z" fill="white"/>
<defs>
<linearGradient id="paint0_linear_15_567" x1="160.596" y1="42.3026" x2="243.144" y2="42.3026" gradientUnits="userSpaceOnUse">
<stop stop-color="#ECFFB6"/>
<stop offset="1" stop-color="#FF7800"/>
</linearGradient>
<linearGradient id="paint1_linear_15_567" x1="160.596" y1="42.3023" x2="243.144" y2="42.3023" gradientUnits="userSpaceOnUse">
<stop stop-color="#ECFFB6"/>
<stop offset="1" stop-color="#FF7800"/>
</linearGradient>
<linearGradient id="paint2_linear_15_567" x1="160.596" y1="42.3023" x2="243.144" y2="42.3023" gradientUnits="userSpaceOnUse">
<stop stop-color="#ECFFB6"/>
<stop offset="1" stop-color="#FF7800"/>
</linearGradient>
</defs>
</svg>
