<svg width="259" height="70" viewBox="0 0 259 70" fill="none" xmlns="http://www.w3.org/2000/svg">
<path d="M246.469 0H18.3092C11.7853 0 6.4967 5.26987 6.4967 11.7706V57.8302C6.4967 64.3309 11.7853 69.6008 18.3092 69.6008H246.469C252.993 69.6008 258.282 64.3309 258.282 57.8302V11.7706C258.282 5.26987 252.993 0 246.469 0Z" fill="#480090"/>
<path d="M246.469 3.66602H18.3092C13.817 3.66602 10.1754 7.29469 10.1754 11.7709V57.8305C10.1754 62.3067 13.817 65.9354 18.3092 65.9354H246.469C250.962 65.9354 254.603 62.3067 254.603 57.8305V11.7709C254.603 7.29469 250.962 3.66602 246.469 3.66602Z" fill="#6B01A3"/>
<path d="M147.602 28.7363L146.359 33.6227L145.862 40.023C146.491 39.8617 147.127 39.7151 147.775 39.5832C148.419 39.4549 149.239 39.3889 150.232 39.3889C152.55 39.3889 154.444 39.8214 155.92 40.6829C157.391 41.548 158.495 42.71 159.223 44.1763C159.952 45.6426 160.316 47.2701 160.316 49.0627C160.316 50.8552 159.885 52.5231 159.025 54.07C158.164 55.617 156.821 56.8633 155.004 57.8091C153.183 58.7548 150.817 59.2277 147.904 59.2277C145.884 59.2277 144.115 59.0224 142.592 58.6155C141.069 58.2086 139.877 57.6074 139.016 56.8083C138.155 56.0092 137.725 55.0231 137.725 53.8537C137.725 52.941 137.997 52.1675 138.545 51.5334C139.089 50.8992 139.678 50.419 140.307 50.0927C141.234 50.7782 142.227 51.3721 143.287 51.8779C144.346 52.3838 145.685 52.6367 147.308 52.6367C148.93 52.6367 149.997 52.2958 150.711 51.6103C151.421 50.9249 151.777 50.0964 151.777 49.1177C151.777 48.1389 151.461 47.3911 150.836 46.7716C150.207 46.1521 149.18 45.8442 147.756 45.8442C146.863 45.8442 146.116 45.9432 145.523 46.1374C144.928 46.3317 144.247 46.6103 143.489 46.9696C141.867 46.9036 140.583 46.4637 139.641 45.6499C138.699 44.8361 138.225 43.6154 138.225 41.9842V41.3244C138.225 41.1118 138.24 40.7965 138.273 40.3713L138.869 33.2855C138.968 31.8852 139.413 30.7781 140.208 29.9643C141.002 29.1506 142.11 28.7437 143.533 28.7437H147.606L147.602 28.7363ZM144.126 35.4299V28.7363H157.829C158.061 29.0956 158.267 29.5501 158.451 30.1036C158.631 30.6572 158.723 31.2767 158.723 31.9585C158.723 33.1645 158.458 34.0443 157.928 34.5978C157.399 35.1513 156.67 35.4299 155.743 35.4299H144.122H144.126Z" fill="url(#paint0_linear_15_546)"/>
<path d="M176.701 59.2286C174.085 59.2286 171.775 58.6421 169.774 57.4691C167.769 56.2961 166.205 54.5549 165.08 52.2418C163.954 49.9287 163.391 47.0475 163.391 43.5944C163.391 40.1413 163.954 37.4067 165.08 35.0936C166.205 32.7806 167.769 31.021 169.774 29.815C171.775 28.609 174.085 28.0078 176.701 28.0078C179.316 28.0078 181.575 28.609 183.576 29.815C185.578 31.021 187.152 32.7806 188.293 35.0936C189.437 37.4067 190.007 40.2403 190.007 43.5944C190.007 46.9485 189.437 49.9287 188.293 52.2418C187.152 54.5549 185.578 56.2961 183.576 57.4691C181.571 58.6421 179.28 59.2286 176.701 59.2286ZM181.516 43.5907C181.516 41.6699 181.325 40.0423 180.946 38.7043C180.563 37.37 180.012 36.351 179.283 35.6508C178.555 34.9507 177.676 34.5988 176.653 34.5988C175.63 34.5988 174.758 34.9507 174.045 35.6508C173.331 36.351 172.794 37.37 172.43 38.7043C172.066 40.0387 171.882 41.6699 171.882 43.5907C171.882 46.6516 172.294 48.9243 173.125 50.4053C173.953 51.8862 175.126 52.6304 176.649 52.6304C178.172 52.6304 179.405 51.8899 180.251 50.4053C181.093 48.9243 181.516 46.6516 181.516 43.5907Z" fill="url(#paint1_linear_15_546)"/>
<path d="M194.926 54.877C194.926 54.1915 195.084 53.5316 195.396 52.8975C195.709 52.2633 196.084 51.7831 196.515 51.4569C197.409 51.8491 198.343 52.1497 199.322 52.3623C200.297 52.5749 201.201 52.6812 202.029 52.6812C203.486 52.6812 204.737 52.4283 205.778 51.9224C206.819 51.4165 207.632 50.7017 208.21 49.7706C208.787 48.8432 209.063 47.7765 209.03 46.5705C208.599 46.8967 208.077 47.19 207.466 47.4502C206.852 47.7105 206.201 47.9085 205.506 48.0368C204.81 48.1687 204.067 48.231 203.273 48.231C201.286 48.231 199.531 47.8645 198.008 47.1313C196.485 46.3982 195.286 45.3058 194.407 43.8578C193.528 42.4099 193.09 40.6247 193.09 38.5059C193.09 36.6181 193.535 34.8842 194.429 33.3006C195.323 31.7207 196.647 30.4414 198.402 29.4663C200.157 28.4875 202.323 28 204.906 28C207.488 28 209.766 28.5792 211.634 29.7339C213.503 30.8922 214.945 32.5748 215.953 34.7926C216.961 37.0066 217.469 39.6973 217.469 42.8534C217.469 46.4678 216.873 49.492 215.681 51.9187C214.489 54.3454 212.841 56.171 210.74 57.3916C208.636 58.6123 206.197 59.2245 203.416 59.2245C200.8 59.2245 198.733 58.8579 197.21 58.1248C195.687 57.3916 194.926 56.3103 194.926 54.877ZM205.204 41.9773C205.833 41.9773 206.469 41.849 207.117 41.5851C207.761 41.3248 208.301 40.9656 208.732 40.5111V39.8769C208.732 38.1503 208.408 36.838 207.764 35.9436C207.121 35.0492 206.149 34.5983 204.858 34.5983C203.766 34.5983 202.93 34.9319 202.349 35.599C201.768 36.2662 201.481 37.1716 201.481 38.3116C201.481 39.4517 201.838 40.3461 202.548 40.9986C203.258 41.6511 204.144 41.9773 205.204 41.9773Z" fill="url(#paint2_linear_15_546)"/>
<path d="M231.125 48.1357H222.435V28.7368C222.833 28.6708 223.421 28.5828 224.197 28.4692C224.974 28.3555 225.728 28.2969 226.456 28.2969C228.112 28.2969 229.304 28.5755 230.032 29.129C230.76 29.6825 231.125 30.7566 231.125 32.3548V48.1357ZM222.432 36.849H231.121V58.396C230.757 58.495 230.194 58.5903 229.432 58.6892C228.671 58.7882 227.895 58.8359 227.1 58.8359C225.378 58.8359 224.172 58.5353 223.476 57.9304C222.781 57.3256 222.435 56.2772 222.435 54.7779V36.8453L222.432 36.849ZM237.08 45.4964L225.709 46.3285L241.451 28.5425C243.702 28.5425 245.313 28.9567 246.292 29.7888C247.267 30.6209 247.756 31.6033 247.756 32.7434C247.756 33.5902 247.539 34.3893 247.112 35.1371C246.682 35.8849 245.987 36.7353 245.027 37.6774L237.08 45.4964ZM226.901 42.5162L237.033 41.8307C239.582 44.5983 241.892 47.0763 243.96 49.2574C246.027 51.4385 247.675 53.1834 248.9 54.4847C248.9 55.885 248.418 56.9847 247.462 57.7838C246.502 58.5829 245.394 58.9825 244.136 58.9825C242.779 58.9825 241.668 58.6489 240.811 57.9818C239.95 57.3146 239.122 56.5228 238.328 55.6137L226.905 42.5198L226.901 42.5162Z" fill="url(#paint3_linear_15_546)"/>
<path d="M42.2468 16.4587C42.2468 16.8803 42.1365 17.2542 41.9121 17.5841C41.6877 17.914 41.4338 18.1706 41.1395 18.3539C40.7128 18.068 40.2382 17.8224 39.7269 17.6207C39.2118 17.4191 38.6232 17.3165 37.9537 17.3165C37.0782 17.3165 36.3387 17.4961 35.7317 17.859C35.1247 18.2219 34.6612 18.7425 34.3449 19.4279C34.0285 20.1098 33.8703 20.9345 33.8703 21.895C33.8703 23.3796 34.2529 24.5086 35.0144 25.2857C35.7759 26.0629 36.8354 26.4478 38.1892 26.4478C38.8918 26.4478 39.4878 26.3561 39.977 26.1692C40.4663 25.9822 40.9335 25.7733 41.3786 25.535C41.6693 25.755 41.8973 26.0335 42.0592 26.3708C42.2211 26.708 42.302 27.0966 42.302 27.5328C42.302 27.9214 42.199 28.2733 41.993 28.5959C41.787 28.9148 41.4375 29.1861 40.9409 29.406C40.6319 29.5416 40.1941 29.6773 39.6312 29.8092C39.0647 29.9449 38.3805 30.0108 37.5748 30.0108C36.0334 30.0108 34.6318 29.7249 33.3737 29.1494C32.1155 28.5775 31.1112 27.6904 30.3644 26.4954C29.6176 25.2967 29.2461 23.7645 29.2461 21.8913C29.2461 20.1391 29.6066 18.6581 30.324 17.4521C31.045 16.2461 32.0162 15.326 33.2412 14.6955C34.4663 14.0613 35.8164 13.7461 37.2915 13.7461C38.3363 13.7461 39.2266 13.8634 39.966 14.1017C40.7017 14.3363 41.2683 14.6589 41.6619 15.0621C42.0555 15.4653 42.2542 15.9309 42.2542 16.4514L42.2468 16.4587Z" fill="white"/>
<path d="M56.9508 23.4166C56.9508 24.7655 56.6713 25.9276 56.1158 26.9063C55.5603 27.8851 54.7804 28.6402 53.7761 29.1717C52.7755 29.7032 51.5872 29.9672 50.215 29.9672C48.8429 29.9672 47.6804 29.7069 46.6687 29.1827C45.6571 28.6585 44.8735 27.9107 44.318 26.932C43.7625 25.9532 43.4829 24.7839 43.4829 23.4166C43.4829 22.0493 43.7662 20.9312 44.3327 19.9525C44.8992 18.9737 45.6865 18.2186 46.6981 17.6871C47.7098 17.1555 48.8833 16.8916 50.2187 16.8916C51.5541 16.8916 52.7497 17.1629 53.754 17.7017C54.7546 18.2406 55.5419 18.9994 56.1047 19.9781C56.6713 20.9569 56.9545 22.1042 56.9545 23.4166H56.9508ZM50.215 20.2531C49.5124 20.2531 48.9606 20.528 48.5559 21.0742C48.1513 21.624 47.9526 22.4012 47.9526 23.4129C47.9526 24.4246 48.1513 25.2494 48.5449 25.7919C48.9385 26.3308 49.4977 26.6021 50.215 26.6021C50.9324 26.6021 51.4916 26.3271 51.8852 25.7809C52.2788 25.2347 52.4775 24.443 52.4775 23.4166C52.4775 22.3902 52.2751 21.646 51.8742 21.0888C51.4732 20.5316 50.9177 20.2531 50.215 20.2531Z" fill="white"/>
<path d="M70.8051 21.1143V23.9735H66.4347V21.6971C66.4347 21.1912 66.2839 20.8247 65.9859 20.5974C65.6842 20.3701 65.32 20.2565 64.8933 20.2565C64.5659 20.2565 64.2863 20.3041 64.0435 20.3958C63.8044 20.4874 63.6057 20.5754 63.4512 20.6597V23.9735H59.0809V20.1282C59.0809 19.6736 59.1802 19.3034 59.3752 19.0138C59.5738 18.7279 59.8424 18.4676 60.1845 18.2293C60.7657 17.8261 61.4905 17.4999 62.355 17.2543C63.2195 17.0087 64.1244 16.8877 65.0662 16.8877C65.8719 16.8877 66.6444 17.0087 67.3802 17.2543C68.1159 17.4999 68.7854 17.8921 69.3851 18.431C69.5212 18.5483 69.6647 18.6656 69.8081 18.7865C69.9553 18.9038 70.062 19.0321 70.1282 19.1641C70.3158 19.45 70.474 19.7616 70.6027 20.0989C70.7315 20.4361 70.794 20.7733 70.794 21.1106L70.8051 21.1143ZM59.0845 22.8848H63.4549V29.538C63.2673 29.5894 62.9951 29.6407 62.6456 29.6883C62.2924 29.7397 61.9135 29.7653 61.5015 29.7653C60.6627 29.7653 60.0484 29.6224 59.6621 29.3364C59.2758 29.0505 59.0845 28.519 59.0845 27.7419V22.8848ZM66.4347 22.8848H70.8051V29.538C70.6175 29.5894 70.3452 29.6407 69.9957 29.6883C69.6426 29.7397 69.2637 29.7653 68.8517 29.7653C68.0129 29.7653 67.3985 29.6224 67.0123 29.3364C66.626 29.0505 66.4347 28.519 66.4347 27.7419V22.8848ZM78.1589 21.5688V23.9698H73.7885V21.6934C73.7885 21.1876 73.6524 20.821 73.3765 20.5937C73.1006 20.3665 72.7438 20.2528 72.2986 20.2528C71.9712 20.2528 71.6659 20.3151 71.3716 20.4434C71.081 20.5717 70.8419 20.7074 70.6506 20.8613L68.2594 18.4603C68.859 18.0387 69.5212 17.6722 70.2533 17.3606C70.9817 17.049 71.8866 16.8914 72.9645 16.8914C73.84 16.8914 74.6751 17.0417 75.4697 17.3459C76.268 17.6502 76.9118 18.1414 77.4121 18.8269C77.9088 19.5087 78.1589 20.4251 78.1589 21.5725V21.5688ZM73.7885 22.8848H78.1589V29.538C77.9713 29.5894 77.6991 29.6407 77.3496 29.6883C76.9964 29.7397 76.6175 29.7653 76.2055 29.7653C75.3667 29.7653 74.7524 29.6224 74.3661 29.3364C73.9798 29.0505 73.7885 28.519 73.7885 27.7419V22.8848Z" fill="white"/>
<path d="M85.2773 19.7214H80.9069V13.0681C81.0945 13.0168 81.3668 12.9655 81.7163 12.9178C82.0657 12.8665 82.4483 12.8408 82.8603 12.8408C83.7175 12.8408 84.3355 12.9801 84.7108 13.2587C85.086 13.5373 85.2773 14.0725 85.2773 14.8643V19.7214ZM87.7972 16.8878C88.9266 16.8878 89.9567 17.1334 90.88 17.6209C91.8071 18.1084 92.5392 18.8343 93.0763 19.7947C93.617 20.7551 93.8856 21.9464 93.8856 23.3614C93.8856 24.7764 93.5986 25.9531 93.0248 26.9391C92.4509 27.9252 91.6415 28.6767 90.5968 29.1899C89.552 29.7031 88.327 29.9597 86.9217 29.9597C85.7923 29.9597 84.8322 29.824 84.0412 29.5564C83.254 29.2852 82.5844 28.9663 82.0363 28.596C81.6758 28.3431 81.3962 28.0498 81.2012 27.7126C81.0026 27.3753 80.9069 26.9978 80.9069 26.5726V18.6803H85.2515V26.1913C85.4392 26.294 85.6672 26.3819 85.9321 26.4553C86.197 26.5322 86.5097 26.5689 86.8702 26.5689C87.6427 26.5689 88.2571 26.294 88.7206 25.7478C89.1841 25.2016 89.4159 24.4025 89.4159 23.3577C89.4159 22.313 89.1988 21.4919 88.7611 20.9934C88.3233 20.4948 87.7273 20.2455 86.9732 20.2455C86.4582 20.2455 86.0057 20.3372 85.6121 20.5241C85.2184 20.7111 84.8763 20.9127 84.5857 21.1327V17.6686C84.9793 17.4669 85.4502 17.2837 85.9983 17.126C86.5465 16.9647 87.1461 16.8841 87.7972 16.8841V16.8878Z" fill="white"/>
<path d="M108.95 23.4166C108.95 24.7655 108.671 25.9276 108.115 26.9063C107.56 27.8851 106.78 28.6402 105.775 29.1717C104.775 29.7032 103.586 29.9672 102.214 29.9672C100.842 29.9672 99.6796 29.7069 98.668 29.1827C97.6563 28.6585 96.8728 27.9107 96.3173 26.932C95.7618 25.9532 95.4822 24.7839 95.4822 23.4166C95.4822 22.0493 95.7654 20.9312 96.332 19.9525C96.8985 18.9737 97.6858 18.2186 98.6974 17.6871C99.7091 17.1555 100.883 16.8916 102.218 16.8916C103.553 16.8916 104.749 17.1629 105.753 17.7017C106.754 18.2406 107.541 18.9994 108.104 19.9781C108.671 20.9569 108.954 22.1042 108.954 23.4166H108.95ZM102.218 20.2531C101.515 20.2531 100.964 20.528 100.559 21.0742C100.154 21.624 99.9555 22.4012 99.9555 23.4129C99.9555 24.4246 100.154 25.2494 100.548 25.7919C100.941 26.3308 101.501 26.6021 102.218 26.6021C102.935 26.6021 103.495 26.3271 103.888 25.7809C104.282 25.2347 104.48 24.443 104.48 23.4166C104.48 22.3902 104.278 21.646 103.877 21.0888C103.476 20.5316 102.921 20.2531 102.218 20.2531Z" fill="white"/>
<path d="M21.311 47.3462C21.1896 47.1593 21.083 46.9247 20.991 46.6387C20.8953 46.3528 20.8512 46.0302 20.8512 45.6783C20.8512 45.0552 20.9873 44.6043 21.2632 44.3257C21.5354 44.0471 21.9144 43.9078 22.3926 43.9078H25.8359V47.3462H21.311ZM36.4786 50.1798C35.7575 51.3785 34.7532 52.2766 33.4583 52.8741C32.1634 53.4716 30.6514 53.7722 28.9224 53.7722C28.3411 53.7722 27.6164 53.7282 26.7519 53.6439C25.8874 53.5596 25.1112 53.391 24.427 53.138C23.4852 52.7825 23.0143 52.1703 23.0143 51.2905V39.4796C23.0143 39.124 23.1173 38.8528 23.3233 38.6585C23.5293 38.4642 23.7942 38.3103 24.1216 38.1893C24.8574 37.9547 25.6373 37.7971 26.4613 37.7201C27.2853 37.6431 28.0211 37.6064 28.6722 37.6064C30.4528 37.6064 32.0089 37.896 33.3369 38.4789C34.6649 39.0617 35.7023 39.9452 36.4455 41.1329C37.1922 42.3205 37.5638 43.8345 37.5638 45.6747C37.5638 47.5149 37.2033 48.9811 36.4859 50.1762L36.4786 50.1798ZM29.7428 43.9078C29.8642 44.0947 29.9708 44.3294 30.0628 44.6153C30.1585 44.9012 30.2026 45.2238 30.2026 45.5757C30.2026 46.1989 30.0665 46.6497 29.7906 46.9283C29.5147 47.2069 29.1394 47.3462 28.6612 47.3462H25.5269V43.9078H29.7428ZM32.443 43.2223C32.1156 42.5478 31.6594 42.0383 31.0671 41.6937C30.4748 41.3491 29.7759 41.1768 28.9739 41.1768C28.7348 41.1768 28.4883 41.1842 28.2418 41.2025C27.9917 41.2208 27.7415 41.2465 27.484 41.2795V50.0808C27.6716 50.1138 27.9071 50.1432 28.1903 50.1688C28.4736 50.1945 28.7274 50.2055 28.9481 50.2055C30.1143 50.2055 31.0671 49.8352 31.8139 49.0911C32.5607 48.3506 32.9322 47.2363 32.9322 45.7516C32.9322 44.7399 32.7704 43.8968 32.443 43.2223Z" fill="white"/>
<path d="M44.936 40.6927C46.8048 40.6927 48.2984 41.0666 49.4204 41.8181C50.5425 42.5696 51.1053 43.7353 51.1053 45.3225V50.9897C51.1053 51.4296 50.9802 51.7851 50.7338 52.0637C50.4836 52.3423 50.1893 52.5806 49.8472 52.7859C49.299 53.1048 48.6295 53.3504 47.8422 53.519C47.055 53.6876 46.1537 53.772 45.142 53.772C43.3431 53.772 41.8974 53.431 40.8121 52.7492C39.7232 52.0674 39.1788 51.0337 39.1788 49.6517C39.1788 48.4897 39.5356 47.5952 40.2456 46.9721C40.9556 46.3489 42.0408 45.9603 43.4976 45.81L46.8637 45.4545V45.2785C46.8637 44.791 46.6467 44.4391 46.2089 44.2301C45.7711 44.0212 45.142 43.9149 44.318 43.9149C43.6853 43.9149 43.0525 43.9809 42.4271 44.1165C41.8017 44.2521 41.2389 44.4207 40.7422 44.6224C40.5178 44.4721 40.3302 44.2375 40.1757 43.9259C40.0212 43.6143 39.944 43.288 39.944 42.9508C39.944 42.1407 40.3817 41.5688 41.2536 41.2316C41.7502 41.0446 42.3388 40.9127 43.0157 40.8283C43.6926 40.744 44.329 40.7 44.9323 40.7L44.936 40.6927ZM45.4216 36.2169C45.9514 36.2169 46.3855 36.0886 46.7202 35.8393C47.055 35.5864 47.272 35.2748 47.375 34.9046C47.4597 34.8862 47.5406 34.8789 47.6178 34.8789H47.8349C48.5375 34.8789 49.0562 35.0732 49.391 35.4618C49.7258 35.8503 49.8913 36.2645 49.8913 36.7008C49.8913 37.4596 49.5014 38.0974 48.7215 38.6106C47.9416 39.1238 46.8416 39.3804 45.4179 39.3804C43.9943 39.3804 42.8943 39.1238 42.1144 38.6106C41.3345 38.0974 40.9446 37.4596 40.9446 36.7008C40.9446 36.2609 41.1138 35.8503 41.4596 35.4618C41.8017 35.0732 42.3168 34.8789 43.001 34.8789H43.2328C43.3027 34.8789 43.3799 34.8862 43.4645 34.9046C43.5491 35.2748 43.7625 35.5864 44.1083 35.8393C44.4504 36.0923 44.8882 36.2169 45.4179 36.2169H45.4216ZM47.4781 56.9575C47.4781 57.5806 47.2684 58.1048 46.849 58.5264C46.4296 58.9479 45.8668 59.1605 45.1641 59.1605C44.4615 59.1605 43.9207 58.9479 43.494 58.5264C43.0672 58.1048 42.8502 57.5806 42.8502 56.9575C42.8502 56.3343 43.0635 55.8101 43.494 55.3885C43.9207 54.967 44.4799 54.758 45.1641 54.758C45.8484 54.758 46.4259 54.967 46.849 55.3885C47.2684 55.8101 47.4781 56.3343 47.4781 56.9575ZM45.1384 50.6341C45.429 50.6341 45.749 50.6048 46.1022 50.5461C46.4517 50.4875 46.7129 50.4068 46.8858 50.3042V48.2807L45.0354 48.431C44.5571 48.464 44.1598 48.5667 43.8545 48.7353C43.5455 48.9039 43.3909 49.1568 43.3909 49.4941C43.3909 49.8313 43.5234 50.1062 43.7883 50.3152C44.0531 50.5278 44.5019 50.6304 45.1384 50.6304V50.6341Z" fill="white"/>
<path d="M60.8209 44.0836C59.9638 44.0836 59.2244 44.3549 58.599 44.8938C57.9736 45.4326 57.6609 46.2244 57.6609 47.2728C57.6609 48.3212 57.9589 49.0947 58.5622 49.6005C59.1618 50.1064 59.9086 50.3593 60.7989 50.3593C61.3139 50.3593 61.7701 50.297 62.1747 50.1687C62.5757 50.0404 62.9142 49.9121 63.1901 49.7765C63.5138 50.0111 63.7603 50.264 63.9221 50.5353C64.084 50.8065 64.1649 51.1328 64.1649 51.5214C64.1649 52.1959 63.8265 52.7347 63.1496 53.1416C62.4727 53.5448 61.5089 53.7501 60.2581 53.7501C58.8344 53.7501 57.5983 53.5045 56.5425 53.017C55.4904 52.5294 54.6737 51.8 54.0998 50.8285C53.526 49.8608 53.239 48.6731 53.239 47.2765C53.239 45.7919 53.5554 44.5675 54.1918 43.5961C54.8246 42.6284 55.667 41.9025 56.7118 41.4223C57.7565 40.9421 58.8969 40.7002 60.1293 40.7002C61.3617 40.7002 62.2924 40.9201 62.9693 41.3564C63.6462 41.7962 63.9847 42.3608 63.9847 43.0499C63.9847 43.3688 63.9074 43.6694 63.7529 43.948C63.5984 44.2266 63.4181 44.4649 63.2121 44.6702C62.9215 44.5345 62.5683 44.4062 62.16 44.2779C61.748 44.1496 61.3029 44.0873 60.8246 44.0873L60.8209 44.0836Z" fill="white"/>
<path d="M78.2985 47.1185L78.4272 44.7394C79.9355 44.7394 81.1863 44.9007 82.1796 45.2196C83.1728 45.5386 83.9233 46.0041 84.4273 46.6089C84.9313 47.2174 85.1851 47.9652 85.1851 48.8597C85.1851 50.5129 84.5524 51.7446 83.2832 52.5511C82.014 53.3612 80.2077 53.7644 77.8607 53.7644C77.4671 53.7644 76.9962 53.7461 76.448 53.7131C75.8999 53.6801 75.3444 53.6141 74.7779 53.5225C74.2114 53.4308 73.7 53.2989 73.2365 53.1302C72.2947 52.7747 71.8239 52.1625 71.8239 51.2827V39.4718C71.8239 39.1162 71.9269 38.845 72.1329 38.6507C72.3389 38.4564 72.6037 38.3024 72.9312 38.1815C73.5124 37.9799 74.2445 37.8332 75.1274 37.7379C76.0103 37.6463 76.9042 37.5986 77.8129 37.5986C79.9907 37.5986 81.6719 37.9652 82.8638 38.6983C84.0557 39.4315 84.6517 40.5495 84.6517 42.0488C84.6517 42.8919 84.3905 43.5957 83.8681 44.1602C83.3457 44.7248 82.6026 45.1463 81.6461 45.4249C80.686 45.7035 79.5456 45.8428 78.2286 45.8428L78.0741 44.0209C78.8098 44.0209 79.3469 43.8853 79.6817 43.6177C80.0164 43.3465 80.182 42.9506 80.182 42.43C80.182 41.9755 79.9907 41.6126 79.6044 41.3413C79.2182 41.0701 78.6406 40.9381 77.868 40.9381C77.6105 40.9381 77.3162 40.9454 76.9815 40.9638C76.6467 40.9821 76.3855 41.0077 76.1979 41.0407V50.1977C76.437 50.2636 76.7497 50.3113 77.136 50.337C77.5222 50.3626 77.8754 50.3736 78.2028 50.3736C78.8871 50.3736 79.4573 50.2343 79.9134 49.9557C80.3659 49.6771 80.594 49.2446 80.594 48.6544C80.594 48.0972 80.4027 47.7013 80.0164 47.4667C79.6302 47.2321 79.06 47.1111 78.3058 47.1111L78.2985 47.1185ZM79.8914 44.0319V47.1185H74.5976V44.0319H79.8914Z" fill="white"/>
<path d="M87.2931 37.6573C87.2931 37.0158 87.5138 36.4769 87.9626 36.037C88.4078 35.5971 88.9816 35.3809 89.6843 35.3809C90.3869 35.3809 90.9608 35.6008 91.4059 36.037C91.8511 36.4769 92.0755 37.0158 92.0755 37.6573C92.0755 38.2988 91.8511 38.8156 91.4059 39.2628C90.9608 39.7101 90.3869 39.9337 89.6843 39.9337C88.9816 39.9337 88.4078 39.7101 87.9626 39.2628C87.5175 38.8156 87.2931 38.2804 87.2931 37.6573ZM91.8695 48.9403H87.4991V41.2497C87.6867 41.1983 87.9589 41.147 88.3084 41.0994C88.6579 41.048 89.0405 41.0224 89.4525 41.0224C90.3097 41.0224 90.9277 41.1617 91.3029 41.4403C91.6782 41.7189 91.8695 42.2541 91.8695 43.0459V48.9403ZM87.4991 46.6896H91.8695V53.3428C91.6819 53.3941 91.4096 53.4455 91.0601 53.4931C90.707 53.5444 90.3281 53.5701 89.916 53.5701C89.0773 53.5701 88.4629 53.4271 88.0767 53.1412C87.6904 52.8553 87.4991 52.3238 87.4991 51.5466V46.6896Z" fill="white"/>
<path d="M96.755 49.1425L96.6005 46.3089L102.538 45.3485C102.505 45.0113 102.332 44.674 102.023 44.3368C101.714 43.9995 101.236 43.8309 100.585 43.8309C99.9004 43.8309 99.3302 44.0508 98.874 44.4871C98.4215 44.927 98.175 45.5501 98.1419 46.3602L98.2964 48.4864C98.4693 49.2635 98.8593 49.8023 99.4663 50.1066C100.073 50.4109 100.754 50.5611 101.512 50.5611C102.269 50.5611 102.917 50.4695 103.568 50.2825C104.219 50.0956 104.742 49.894 105.135 49.674C105.407 49.8427 105.639 50.0773 105.831 50.3815C106.018 50.6858 106.114 51.0047 106.114 51.3419C106.114 51.8991 105.904 52.3573 105.485 52.7202C105.065 53.0832 104.488 53.3471 103.748 53.5157C103.013 53.6843 102.163 53.7686 101.203 53.7686C99.8673 53.7686 98.6606 53.5194 97.5901 53.0208C96.5196 52.5223 95.6698 51.7782 95.0444 50.7811C94.419 49.7877 94.1063 48.5377 94.1063 47.0384C94.1063 45.924 94.2903 44.9636 94.6581 44.1535C95.026 43.3434 95.519 42.6872 96.137 42.1813C96.755 41.6755 97.443 41.3016 98.2045 41.056C98.966 40.8104 99.7495 40.6894 100.555 40.6894C101.773 40.6894 102.832 40.9203 103.741 41.3859C104.65 41.8514 105.36 42.4819 105.875 43.281C106.39 44.0838 106.647 45.0039 106.647 46.0523C106.647 46.6242 106.485 47.0641 106.158 47.3683C105.831 47.6726 105.378 47.8668 104.797 47.9512L96.7514 49.1389L96.755 49.1425ZM101.611 38.7722L100.585 37.5332C100.139 38.0208 99.7753 38.424 99.492 38.7356C99.2088 39.0472 98.8777 39.4211 98.5024 39.8609C97.8329 39.8609 97.3032 39.7107 96.9095 39.4064C96.5159 39.1021 96.3173 38.7136 96.3173 38.2444C96.3173 37.9071 96.4129 37.6175 96.6005 37.3719C96.7881 37.1263 97.0714 36.8184 97.4503 36.4482L98.3259 35.5867C98.6496 35.2678 98.9991 35.0076 99.3669 34.8169C99.7348 34.6227 100.169 34.5273 100.666 34.5273C101.111 34.5273 101.526 34.6117 101.913 34.7803C102.299 34.9489 102.729 35.3301 103.211 35.9203L105.036 38.1197C105.036 38.5926 104.896 38.9922 104.613 39.3221C104.33 39.652 103.896 39.817 103.314 39.817C102.987 39.817 102.693 39.7253 102.428 39.5384C102.163 39.3514 101.891 39.0985 101.618 38.7796L101.611 38.7722ZM102.77 56.9578C102.77 57.581 102.56 58.1052 102.141 58.5267C101.721 58.9483 101.159 59.1609 100.456 59.1609C99.7532 59.1609 99.2124 58.9483 98.7857 58.5267C98.359 58.1052 98.1419 57.581 98.1419 56.9578C98.1419 56.3346 98.3553 55.8104 98.7857 55.3889C99.2124 54.9673 99.7716 54.7584 100.456 54.7584C101.14 54.7584 101.718 54.9673 102.141 55.3889C102.56 55.8104 102.77 56.3346 102.77 56.9578Z" fill="white"/>
<path d="M113.129 47.2948H108.81V38.2148C108.998 38.1635 109.27 38.1085 109.62 38.0499C109.969 37.9912 110.344 37.9619 110.738 37.9619C111.577 37.9619 112.187 38.1049 112.563 38.3908C112.938 38.6767 113.129 39.2083 113.129 39.9854V47.2948ZM108.81 46.69H113.129V49.1423C113.129 49.5639 113.269 49.8718 113.552 50.0661C113.835 50.2604 114.233 50.3557 114.748 50.3557C115.005 50.3557 115.27 50.3337 115.546 50.2934C115.818 50.253 116.061 50.198 116.267 50.1284C116.422 50.297 116.554 50.4986 116.664 50.7369C116.775 50.9715 116.83 51.2501 116.83 51.5727C116.83 52.1959 116.587 52.7164 116.098 53.1269C115.609 53.5375 114.748 53.7464 113.515 53.7464C112.007 53.7464 110.845 53.4092 110.032 52.7347C109.219 52.0602 108.81 50.9642 108.81 49.4466V46.69ZM111.636 44.6408V41.3527H116.495C116.598 41.5213 116.698 41.7486 116.79 42.0345C116.885 42.3204 116.929 42.632 116.929 42.9693C116.929 43.5594 116.797 43.9847 116.532 44.2449C116.267 44.5052 115.91 44.6372 115.465 44.6372H111.636V44.6408Z" fill="white"/>
<path d="M181.274 14.4975C181.274 14.6771 181.227 14.8347 181.135 14.974C181.039 15.1133 180.932 15.2196 180.811 15.3002C180.631 15.1793 180.432 15.0766 180.215 14.9923C179.998 14.908 179.748 14.864 179.468 14.864C179.1 14.864 178.787 14.941 178.53 15.095C178.272 15.2489 178.077 15.4689 177.945 15.7548C177.813 16.0444 177.743 16.389 177.743 16.7959C177.743 17.4227 177.905 17.8992 178.225 18.2255C178.545 18.5517 178.993 18.7167 179.564 18.7167C179.862 18.7167 180.112 18.6764 180.318 18.5994C180.524 18.5224 180.723 18.4308 180.91 18.3318C181.032 18.4234 181.127 18.5407 181.197 18.6837C181.267 18.8267 181.3 18.9916 181.3 19.1749C181.3 19.3399 181.256 19.4865 181.171 19.6221C181.083 19.7577 180.936 19.8714 180.726 19.963C180.597 20.0217 180.41 20.0767 180.174 20.1353C179.935 20.1903 179.645 20.2196 179.306 20.2196C178.655 20.2196 178.063 20.0987 177.533 19.8567C177.003 19.6148 176.58 19.2409 176.264 18.735C175.947 18.2291 175.793 17.584 175.793 16.7922C175.793 16.0517 175.944 15.4285 176.249 14.919C176.554 14.4095 176.963 14.0209 177.482 13.757C178 13.4894 178.567 13.3574 179.188 13.3574C179.63 13.3574 180.005 13.4087 180.318 13.5077C180.631 13.6067 180.866 13.7423 181.035 13.9146C181.201 14.0869 181.285 14.2812 181.285 14.5011L181.274 14.4975Z" fill="white"/>
<path d="M184.03 18.1596H182.187V13.068C182.268 13.046 182.382 13.024 182.529 13.0056C182.676 12.9837 182.838 12.9727 183.011 12.9727C183.371 12.9727 183.632 13.0313 183.791 13.1486C183.949 13.2659 184.03 13.4932 184.03 13.8268V18.1596ZM182.187 17.2102H184.03V20.0181C183.949 20.0401 183.835 20.0621 183.688 20.0805C183.54 20.1025 183.379 20.1135 183.206 20.1135C182.853 20.1135 182.591 20.0511 182.429 19.9302C182.268 19.8092 182.187 19.5856 182.187 19.2593V17.2102ZM187.37 17.837H185.527V16.8876C185.527 16.5944 185.453 16.3928 185.306 16.2755C185.159 16.1582 184.975 16.0995 184.758 16.0995C184.541 16.0995 184.35 16.1398 184.184 16.2168C184.019 16.2938 183.872 16.3818 183.75 16.4734V15.0108C183.916 14.9265 184.114 14.8495 184.346 14.7798C184.578 14.7139 184.832 14.6772 185.104 14.6772C185.814 14.6772 186.369 14.8532 186.77 15.2051C187.171 15.557 187.374 16.0812 187.374 16.7813V17.837H187.37ZM185.527 17.2102H187.37V20.0181C187.289 20.0401 187.175 20.0621 187.028 20.0805C186.881 20.1025 186.719 20.1135 186.546 20.1135C186.193 20.1135 185.932 20.0511 185.77 19.9302C185.608 19.8092 185.527 19.5856 185.527 19.2593V17.2102Z" fill="white"/>
<path d="M189.334 11.7849C189.618 11.7849 189.89 11.8289 190.155 11.9169C190.42 12.0049 190.637 12.1442 190.806 12.3274C190.975 12.5144 191.06 12.7527 191.06 13.0423C191.06 13.4125 190.942 13.6838 190.703 13.8524C190.464 14.0247 190.192 14.1163 189.89 14.131V14.4206C189.853 14.4426 189.783 14.4645 189.68 14.4902C189.574 14.5159 189.456 14.5269 189.316 14.5269C189.07 14.5269 188.9 14.5012 188.812 14.4536C188.72 14.4022 188.676 14.3362 188.676 14.2519V13.845C188.676 13.6618 188.72 13.5371 188.812 13.4785C188.904 13.4198 189.011 13.3868 189.132 13.3868H189.316C189.585 13.3868 189.717 13.2879 189.717 13.0862C189.717 12.9873 189.669 12.9066 189.577 12.848C189.482 12.7893 189.334 12.7563 189.132 12.7563C188.967 12.7563 188.812 12.7783 188.665 12.8186C188.521 12.8626 188.404 12.8993 188.319 12.9359C188.238 12.881 188.176 12.8076 188.128 12.7233C188.08 12.639 188.058 12.5437 188.058 12.4447C188.058 12.2175 188.183 12.0488 188.437 11.9425C188.691 11.8362 188.989 11.7812 189.338 11.7812L189.334 11.7849ZM190.398 17.7747H188.555V14.9154C188.636 14.8934 188.75 14.8714 188.897 14.8531C189.044 14.8348 189.206 14.8201 189.379 14.8201C189.739 14.8201 190 14.8788 190.159 14.9961C190.317 15.1134 190.398 15.3407 190.398 15.6742V17.7783V17.7747ZM188.555 17.2835H190.398V20.0144C190.317 20.0364 190.203 20.0584 190.056 20.0767C189.908 20.0987 189.747 20.1097 189.574 20.1097C189.22 20.1097 188.959 20.0474 188.797 19.9265C188.636 19.8055 188.555 19.5819 188.555 19.2556V17.2798V17.2835Z" fill="white"/>
<path d="M196.71 16.1103C196.35 16.1103 196.037 16.2239 195.772 16.4512C195.507 16.6785 195.375 17.0121 195.375 17.4556C195.375 17.8992 195.5 18.2254 195.754 18.438C196.008 18.6506 196.32 18.7569 196.699 18.7569C196.916 18.7569 197.111 18.7313 197.281 18.6763C197.45 18.6213 197.593 18.5663 197.707 18.5113C197.843 18.6103 197.946 18.7166 198.016 18.8302C198.086 18.9439 198.119 19.0832 198.119 19.2481C198.119 19.5341 197.976 19.7613 197.693 19.93C197.406 20.1022 197.001 20.1866 196.471 20.1866C195.872 20.1866 195.349 20.0839 194.904 19.8786C194.459 19.6734 194.117 19.3654 193.874 18.9549C193.631 18.5443 193.51 18.0458 193.51 17.4556C193.51 16.8288 193.642 16.3119 193.911 15.9013C194.179 15.4908 194.533 15.1865 194.974 14.9849C195.415 14.7833 195.897 14.6807 196.416 14.6807C196.935 14.6807 197.328 14.7723 197.615 14.9593C197.902 15.1462 198.042 15.3808 198.042 15.6741C198.042 15.8097 198.009 15.9343 197.943 16.0516C197.877 16.1689 197.803 16.2716 197.715 16.3559C197.593 16.3009 197.442 16.2423 197.27 16.1909C197.097 16.1396 196.909 16.1103 196.707 16.1103H196.71Z" fill="white"/>
<path d="M204.337 17.4342C204.337 18.0024 204.219 18.4936 203.983 18.9078C203.748 19.3221 203.421 19.6373 202.997 19.8646C202.574 20.0919 202.074 20.2018 201.497 20.2018C200.919 20.2018 200.426 20.0919 199.999 19.8719C199.573 19.652 199.241 19.3331 199.006 18.9225C198.771 18.5083 198.653 18.0171 198.653 17.4379C198.653 16.8587 198.771 16.3895 199.01 15.9753C199.249 15.5611 199.58 15.2458 200.007 15.0185C200.433 14.7949 200.93 14.6813 201.493 14.6813C202.056 14.6813 202.56 14.7949 202.983 15.0222C203.406 15.2495 203.737 15.5684 203.976 15.9826C204.215 16.3968 204.333 16.8807 204.333 17.4342H204.337ZM201.114 14.0911L200.051 13.1307C200.043 13.1014 200.04 13.061 200.036 13.0097C200.032 12.9584 200.032 12.9144 200.032 12.8888C200.032 12.6248 200.11 12.4195 200.26 12.2766C200.411 12.13 200.599 12.0566 200.823 12.0566C200.967 12.0566 201.107 12.086 201.243 12.141C201.375 12.1996 201.504 12.3022 201.629 12.4489L202.593 13.6329C202.563 13.8822 202.471 14.0654 202.317 14.1864C202.162 14.3074 201.997 14.3697 201.824 14.3697C201.673 14.3697 201.544 14.3477 201.438 14.3001C201.331 14.2524 201.228 14.1828 201.118 14.0911H201.114ZM201.493 16.0999C201.195 16.0999 200.963 16.2172 200.794 16.4482C200.625 16.6791 200.54 17.009 200.54 17.4342C200.54 17.8595 200.625 18.2114 200.79 18.4386C200.956 18.6659 201.191 18.7795 201.497 18.7795C201.802 18.7795 202.034 18.6622 202.203 18.4313C202.368 18.2004 202.453 17.8668 202.453 17.4342C202.453 17.0017 202.368 16.6864 202.199 16.4518C202.03 16.2172 201.794 16.0999 201.5 16.0999H201.493Z" fill="white"/>
<path d="M210.421 16.6863V17.6687H208.578V16.7413C208.578 16.5213 208.512 16.36 208.376 16.2574C208.243 16.1548 208.067 16.1034 207.849 16.1034C207.706 16.1034 207.57 16.1218 207.441 16.1584C207.316 16.1951 207.195 16.2391 207.077 16.2977V17.676H205.234V16.0521C205.234 15.8615 205.274 15.7039 205.359 15.5829C205.444 15.4619 205.558 15.352 205.701 15.253C205.948 15.0807 206.257 14.9451 206.635 14.8424C207.011 14.7398 207.423 14.6885 207.872 14.6885C208.688 14.6885 209.317 14.8644 209.759 15.2163C210.2 15.5682 210.421 16.0631 210.421 16.6936V16.6863ZM205.238 17.2105H207.081V20.0184C207 20.0404 206.886 20.0624 206.738 20.0807C206.591 20.1027 206.429 20.1137 206.257 20.1137C205.903 20.1137 205.642 20.0514 205.48 19.9304C205.318 19.8095 205.238 19.5859 205.238 19.2596V17.2105ZM208.578 17.2105H210.421V20.0184C210.34 20.0404 210.226 20.0624 210.079 20.0807C209.932 20.1027 209.77 20.1137 209.597 20.1137C209.244 20.1137 208.983 20.0514 208.821 19.9304C208.659 19.8095 208.578 19.5859 208.578 19.2596V17.2105Z" fill="white"/>
<path d="M132.391 6.965C133.074 6.965 133.627 6.37253 133.627 5.64168C133.627 4.91083 133.074 4.31836 132.391 4.31836C131.709 4.31836 131.155 4.91083 131.155 5.64168C131.155 6.37253 131.709 6.965 132.391 6.965Z" fill="#480090"/>
<path d="M132.391 10.5539C133.074 10.5539 133.627 9.9614 133.627 9.23055C133.627 8.4997 133.074 7.90723 132.391 7.90723C131.709 7.90723 131.155 8.4997 131.155 9.23055C131.155 9.9614 131.709 10.5539 132.391 10.5539Z" fill="#480090"/>
<path d="M132.391 14.1427C133.074 14.1427 133.627 13.5503 133.627 12.8194C133.627 12.0886 133.074 11.4961 132.391 11.4961C131.709 11.4961 131.155 12.0886 131.155 12.8194C131.155 13.5503 131.709 14.1427 132.391 14.1427Z" fill="#480090"/>
<path d="M132.391 17.7277C133.074 17.7277 133.627 17.1352 133.627 16.4044C133.627 15.6735 133.074 15.0811 132.391 15.0811C131.709 15.0811 131.155 15.6735 131.155 16.4044C131.155 17.1352 131.709 17.7277 132.391 17.7277Z" fill="#480090"/>
<path d="M132.391 21.3166C133.074 21.3166 133.627 20.7241 133.627 19.9932C133.627 19.2624 133.074 18.6699 132.391 18.6699C131.709 18.6699 131.155 19.2624 131.155 19.9932C131.155 20.7241 131.709 21.3166 132.391 21.3166Z" fill="#480090"/>
<path d="M132.391 24.9054C133.074 24.9054 133.627 24.313 133.627 23.5821C133.627 22.8513 133.074 22.2588 132.391 22.2588C131.709 22.2588 131.155 22.8513 131.155 23.5821C131.155 24.313 131.709 24.9054 132.391 24.9054Z" fill="#480090"/>
<path d="M132.391 28.4933C133.074 28.4933 133.627 27.9008 133.627 27.17C133.627 26.4392 133.074 25.8467 132.391 25.8467C131.709 25.8467 131.155 26.4392 131.155 27.17C131.155 27.9008 131.709 28.4933 132.391 28.4933Z" fill="#480090"/>
<path d="M132.391 32.0822C133.074 32.0822 133.627 31.4897 133.627 30.7589C133.627 30.028 133.074 29.4355 132.391 29.4355C131.709 29.4355 131.155 30.028 131.155 30.7589C131.155 31.4897 131.709 32.0822 132.391 32.0822Z" fill="#480090"/>
<path d="M132.391 35.6711C133.074 35.6711 133.627 35.0786 133.627 34.3477C133.627 33.6169 133.074 33.0244 132.391 33.0244C131.709 33.0244 131.155 33.6169 131.155 34.3477C131.155 35.0786 131.709 35.6711 132.391 35.6711Z" fill="#480090"/>
<path d="M132.391 39.256C133.074 39.256 133.627 38.6635 133.627 37.9327C133.627 37.2018 133.074 36.6094 132.391 36.6094C131.709 36.6094 131.155 37.2018 131.155 37.9327C131.155 38.6635 131.709 39.256 132.391 39.256Z" fill="#480090"/>
<path d="M132.391 42.8449C133.074 42.8449 133.627 42.2524 133.627 41.5216C133.627 40.7907 133.074 40.1982 132.391 40.1982C131.709 40.1982 131.155 40.7907 131.155 41.5216C131.155 42.2524 131.709 42.8449 132.391 42.8449Z" fill="#480090"/>
<path d="M132.391 46.4338C133.074 46.4338 133.627 45.8413 133.627 45.1104C133.627 44.3796 133.074 43.7871 132.391 43.7871C131.709 43.7871 131.155 44.3796 131.155 45.1104C131.155 45.8413 131.709 46.4338 132.391 46.4338Z" fill="#480090"/>
<path d="M132.391 50.0226C133.074 50.0226 133.627 49.4301 133.627 48.6993C133.627 47.9684 133.074 47.376 132.391 47.376C131.709 47.376 131.155 47.9684 131.155 48.6993C131.155 49.4301 131.709 50.0226 132.391 50.0226Z" fill="#480090"/>
<path d="M132.391 53.6115C133.074 53.6115 133.627 53.019 133.627 52.2882C133.627 51.5573 133.074 50.9648 132.391 50.9648C131.709 50.9648 131.155 51.5573 131.155 52.2882C131.155 53.019 131.709 53.6115 132.391 53.6115Z" fill="#480090"/>
<path d="M132.391 57.1994C133.074 57.1994 133.627 56.6069 133.627 55.876C133.627 55.1452 133.074 54.5527 132.391 54.5527C131.709 54.5527 131.155 55.1452 131.155 55.876C131.155 56.6069 131.709 57.1994 132.391 57.1994Z" fill="#480090"/>
<path d="M132.391 60.7853C133.074 60.7853 133.627 60.1928 133.627 59.462C133.627 58.7311 133.074 58.1387 132.391 58.1387C131.709 58.1387 131.155 58.7311 131.155 59.462C131.155 60.1928 131.709 60.7853 132.391 60.7853Z" fill="#480090"/>
<path d="M132.391 64.3732C133.074 64.3732 133.627 63.7807 133.627 63.0499C133.627 62.319 133.074 61.7266 132.391 61.7266C131.709 61.7266 131.155 62.319 131.155 63.0499C131.155 63.7807 131.709 64.3732 132.391 64.3732Z" fill="#480090"/>
<path d="M6.50772 40.6929C10.1018 40.6929 13.0154 37.7896 13.0154 34.2083C13.0154 30.6269 10.1018 27.7236 6.50772 27.7236C2.91361 27.7236 0 30.6269 0 34.2083C0 37.7896 2.91361 40.6929 6.50772 40.6929Z" fill="white"/>
<defs>
<linearGradient id="paint0_linear_15_546" x1="137.721" y1="43.6154" x2="248.9" y2="43.6154" gradientUnits="userSpaceOnUse">
<stop stop-color="#ECFFB6"/>
<stop offset="1" stop-color="#FF7800"/>
</linearGradient>
<linearGradient id="paint1_linear_15_546" x1="137.721" y1="43.6164" x2="248.9" y2="43.6164" gradientUnits="userSpaceOnUse">
<stop stop-color="#ECFFB6"/>
<stop offset="1" stop-color="#FF7800"/>
</linearGradient>
<linearGradient id="paint2_linear_15_546" x1="137.721" y1="43.6159" x2="248.9" y2="43.6159" gradientUnits="userSpaceOnUse">
<stop stop-color="#ECFFB6"/>
<stop offset="1" stop-color="#FF7800"/>
</linearGradient>
<linearGradient id="paint3_linear_15_546" x1="137.721" y1="43.6159" x2="248.9" y2="43.6159" gradientUnits="userSpaceOnUse">
<stop stop-color="#ECFFB6"/>
<stop offset="1" stop-color="#FF7800"/>
</linearGradient>
</defs>
</svg>
