<svg width="35" height="35" viewBox="0 0 35 35" fill="none" xmlns="http://www.w3.org/2000/svg">
<path d="M34.8137 17.2301C34.8137 21.9822 32.8686 26.3009 29.7079 29.4241C26.6383 32.4726 22.4139 34.3854 17.7639 34.4751C17.6424 34.4751 17.536 34.4751 17.4144 34.4751C15.8949 34.4751 14.4057 34.2808 12.9924 33.9072C5.51609 31.9646 0 25.2249 0 17.2301C0 12.478 1.94507 8.15925 5.09061 5.03602C8.23615 1.92774 12.5974 0 17.3992 0C22.2011 0 26.5623 1.92774 29.7079 5.05097C32.8686 8.1742 34.8137 12.478 34.8137 17.245" fill="#0978FF" fill-opacity="0.91"/>
<path d="M18.4781 12.6273C18.9492 11.9548 19.785 11.626 20.9551 11.626C21.5629 11.626 22.2315 11.7008 22.9305 11.8651V8.33844C22.0948 8.08439 21.1526 7.96484 20.1193 7.96484C17.5664 7.96484 15.7429 8.71203 14.6336 10.2064C13.5243 11.7008 12.9773 13.4641 12.9773 15.4815V17.8127H9.36064V21.5935H12.9773V33.8921C14.3905 34.2508 15.8797 34.46 17.3992 34.46C17.5208 34.46 17.6424 34.46 17.7487 34.46V21.6084H22.7026V17.8277H17.7487V15.4965C17.7487 14.2561 17.9919 13.3147 18.463 12.6422" fill="white"/>
</svg>
