<svg width="35" height="35" viewBox="0 0 35 35" fill="none" xmlns="http://www.w3.org/2000/svg">
<path d="M0 17.2002C0 7.696 7.82586 0 17.4904 0C27.155 0 34.9808 7.696 34.9808 17.2002C34.9808 26.7044 27.155 34.4004 17.4904 34.4004C7.82586 34.4004 0 26.7044 0 17.2002Z" fill="black"/>
<path d="M25.5442 12.5376C25.5442 12.4629 25.5442 12.4479 25.4531 12.4479C25.2403 12.4479 25.0276 12.433 24.83 12.3881C24.0854 12.2835 21.6389 11.0133 21.2286 8.96604C21.2286 8.92121 21.1222 8.41313 21.1222 8.20392C21.1222 8.09931 21.1222 8.09931 21.0311 8.09931C21.0159 8.09931 20.9855 8.09931 20.9703 8.09931C20.0129 8.09931 19.0708 8.09931 18.1135 8.09931C17.9159 8.09931 17.9463 8.06942 17.9463 8.26369V20.4577C17.9463 20.6072 17.9463 20.7566 17.9159 20.9061C17.7792 21.6981 17.3689 22.3108 16.6699 22.7292C16.062 23.0878 15.4238 23.1924 14.7248 23.0579C14.512 23.0131 14.2993 22.9384 14.1018 22.8487C14.0866 22.8487 14.0714 22.8188 14.0562 22.8039C13.9802 22.7441 13.9042 22.6993 13.8434 22.6545C12.9621 22.0567 12.5366 21.2199 12.6733 20.1738C12.8101 19.1128 13.4179 18.3955 14.4361 18.0219C14.74 17.9173 15.0591 17.8725 15.3782 17.8874C15.591 17.8874 15.7885 17.9323 16.0012 17.9771C16.0772 17.992 16.1076 17.9771 16.1076 17.9024C16.1076 17.8725 16.1076 17.8575 16.1076 17.8277C16.1076 17.0954 16.0772 15.5114 16.0772 15.4964C16.0772 15.2872 16.0772 15.078 16.0772 14.8688C16.0772 14.809 16.0468 14.7941 16.0012 14.7941C15.6213 14.7493 15.2262 14.7343 14.8463 14.7642C14.3145 14.809 13.7978 14.9136 13.2964 15.093C12.491 15.3769 11.792 15.8103 11.1842 16.408C10.6675 16.9161 10.2572 17.4989 9.95329 18.1564C9.66457 18.784 9.49741 19.4416 9.45183 20.129C9.43663 20.4279 9.43663 20.7267 9.45183 21.0256C9.49741 21.444 9.57339 21.8475 9.69495 22.236C10.0597 23.3718 10.7283 24.2983 11.6704 25.0305C11.7616 25.1052 11.8528 25.1949 11.9743 25.2397C12.0199 25.2846 12.0655 25.3294 12.1263 25.3593C12.2782 25.4788 12.4454 25.5685 12.6126 25.6581C13.6763 26.1662 14.7856 26.3754 15.9556 26.2409C17.4752 26.0616 18.7517 25.3892 19.7546 24.2534C20.6968 23.1775 21.1526 21.9073 21.1678 20.4876C21.1678 18.4702 21.1678 16.4379 21.1678 14.4205C21.1678 14.3757 21.1374 14.3009 21.1982 14.286C21.2438 14.2711 21.2894 14.3159 21.3198 14.3458C22.0796 14.8389 22.9153 15.1976 23.8119 15.4068C24.3286 15.5263 24.8604 15.601 25.3923 15.601C25.5594 15.601 25.5898 15.601 25.5898 15.4217C25.5898 14.7044 25.5594 12.7319 25.5594 12.5525" fill="white"/>
</svg>
